# This file uses centimeters as units for non-parametric coordinates.

mtllib Cart_Collider_Inside.mtl
g default
v -0.988022 -0.040523 -0.330685
v 0.742664 -0.040523 -0.330685
v -0.988022 -0.040523 0.330685
v 0.742664 -0.040523 0.330685
v -1.036520 0.900905 0.415757
v 1.036520 0.734943 0.415757
v -1.036520 0.900905 -0.415757
v 1.036520 0.734943 -0.415757
vt 0.375000 0.000000
vt 0.625000 0.000000
vt 0.375000 0.250000
vt 0.625000 0.250000
vt 0.375000 0.500000
vt 0.625000 0.500000
vt 0.375000 0.750000
vt 0.625000 0.750000
vt 0.375000 1.000000
vt 0.625000 1.000000
vt 0.875000 0.000000
vt 0.875000 0.250000
vt 0.125000 0.000000
vt 0.125000 0.250000
vn 0.000000 -1.000000 0.000000
vn 0.000000 -1.000000 0.000000
vn 0.000000 -1.000000 0.000000
vn 0.000000 -1.000000 0.000000
vn -0.004276 -0.098011 0.995176
vn -0.004276 -0.098011 0.995176
vn -0.004276 -0.098011 0.995176
vn -0.004276 -0.098011 0.995176
vn 0.079802 0.996811 0.000000
vn 0.079802 0.996811 0.000000
vn 0.079802 0.996811 0.000000
vn 0.079802 0.996811 0.000000
vn -0.004276 -0.098011 -0.995176
vn -0.004276 -0.098011 -0.995176
vn -0.004276 -0.098011 -0.995176
vn -0.004276 -0.098011 -0.995176
vn 0.935112 -0.354353 0.000000
vn 0.935112 -0.354353 0.000000
vn 0.935112 -0.354353 0.000000
vn 0.935112 -0.354353 0.000000
vn -0.998676 -0.051447 0.000000
vn -0.998676 -0.051447 0.000000
vn -0.998676 -0.051447 0.000000
vn -0.998676 -0.051447 0.000000
s off
g Cart_Collider_Inside
usemtl initialShadingGroup
f 1/1/1 2/2/2 4/4/3 3/3/4
f 3/3/5 4/4/6 6/6/7 5/5/8
f 5/5/9 6/6/10 8/8/11 7/7/12
f 7/7/13 8/8/14 2/10/15 1/9/16
f 2/2/17 8/11/18 6/12/19 4/4/20
f 7/13/21 1/1/22 3/3/23 5/14/24
