# This file uses centimeters as units for non-parametric coordinates.

mtllib Cart_Collider_Outside_BIGEND.mtl
g default
v -1.059528 -1.029465 0.438559
v 0.678542 -1.137311 0.493523
v -1.185321 0.860157 0.525165
v 1.216253 0.799414 0.590982
v -1.185321 0.860157 -0.525165
v 1.216253 0.799414 -0.590982
v -1.059528 -1.029465 -0.477925
v 0.678542 -1.137311 -0.537822
v -1.064638 0.860617 0.400772
v 1.043467 0.687323 0.400772
v 1.043467 0.687323 -0.400772
v -1.064638 0.860617 -0.400772
v -1.008363 -0.057426 0.335244
v 0.753649 -0.050388 0.309265
v 0.753649 -0.050388 -0.347110
v -1.008363 -0.057426 -0.335244
v -1.186311 1.120037 0.525165
v -1.186311 1.120037 -0.525165
v -1.065628 1.120496 0.522860
v -1.065628 1.120496 -0.522860
vt 0.375000 0.000000
vt 0.625000 0.000000
vt 0.375000 0.250000
vt 0.625000 0.250000
vt 0.375000 0.500000
vt 0.625000 0.500000
vt 0.375000 0.750000
vt 0.625000 0.750000
vt 0.375000 1.000000
vt 0.625000 1.000000
vt 0.875000 0.000000
vt 0.875000 0.250000
vt 0.125000 0.000000
vt 0.125000 0.250000
vt 0.375000 0.250000
vt 0.625000 0.250000
vt 0.625000 0.500000
vt 0.375000 0.500000
vt 0.375000 0.250000
vt 0.625000 0.250000
vt 0.625000 0.500000
vt 0.375000 0.500000
vt 0.375000 0.500000
vt 0.375000 0.250000
vt 0.375000 0.250000
vt 0.375000 0.500000
vn -0.030954 -0.044701 0.998521
vn -0.030954 -0.044701 0.998521
vn -0.030954 -0.044701 0.998521
vn -0.030954 -0.044701 0.998521
vn -0.003994 0.999992 0.000000
vn -0.003994 0.999992 0.000000
vn -0.003994 0.999992 0.000000
vn -0.003994 0.999992 0.000000
vn -0.031276 -0.022852 -0.999250
vn -0.031276 -0.022852 -0.999250
vn -0.031276 -0.022852 -0.999250
vn -0.031276 -0.022852 -0.999250
vn -0.061930 -0.998080 0.000000
vn -0.061930 -0.998080 0.000000
vn -0.061930 -0.998081 0.000000
vn -0.061930 -0.998080 0.000000
vn 0.963552 -0.267520 0.000000
vn 0.963552 -0.267520 0.000000
vn 0.963552 -0.267520 0.000000
vn 0.963552 -0.267520 0.000000
vn -0.997792 -0.066424 0.000000
vn -0.997792 -0.066424 0.000000
vn -0.998304 -0.058224 0.000000
vn -0.998298 -0.058320 0.000000
vn 0.053680 0.938237 -0.341805
vn -0.153727 0.958162 -0.241441
vn -0.174062 0.957337 -0.230671
vn 0.053680 0.938237 -0.341805
vn -0.153727 0.958162 0.241441
vn -0.174062 0.957337 0.230671
vn 0.053680 0.938237 0.341805
vn 0.053680 0.938237 0.341805
vn -0.003809 0.999993 0.000000
vn -0.003809 0.999993 0.000000
vn -0.003809 0.999993 0.000000
vn -0.003809 0.999993 0.000000
vn -0.002611 0.094782 -0.995495
vn -0.002611 0.094782 -0.995495
vn -0.002611 0.094782 -0.995495
vn -0.002611 0.094782 -0.995495
vn -0.930750 0.365655 0.000000
vn -0.930750 0.365655 0.000000
vn -0.930750 0.365655 0.000000
vn -0.930750 0.365655 0.000000
vn 0.006106 0.070941 0.997462
vn 0.006106 0.070941 0.997462
vn 0.006106 0.070941 0.997462
vn 0.006106 0.070941 0.997462
vn 0.999087 0.042716 0.000000
vn 0.999087 0.042716 0.000000
vn 0.998127 0.061184 0.000000
vn 0.998127 0.061184 0.000000
vn -0.999993 -0.003809 0.000000
vn -0.999993 -0.003809 0.000000
vn 0.455809 -0.201889 0.866879
vn 0.455809 -0.201889 0.866879
vn 0.455809 -0.201889 0.866879
vn 0.455809 -0.201889 0.866879
vn 0.999993 0.003809 0.000000
vn 0.999993 0.003809 0.000000
vn 0.455809 -0.201889 -0.866879
vn 0.455809 -0.201889 -0.866879
vn 0.455809 -0.201889 -0.866879
vn 0.455809 -0.201889 -0.866879
s off
g Cart_Collider_Out
usemtl initialShadingGroup
f 1/1/1 2/2/2 4/4/3 3/3/4
f 13/19/5 14/20/6 15/21/7 16/22/8
f 5/5/9 6/6/10 8/8/11 7/7/12
f 7/7/13 8/8/14 2/10/15 1/9/16
f 2/2/17 8/11/18 6/12/19 4/4/20
s 1
f 7/13/21 1/1/22 3/3/23 5/14/24
s 2
f 3/3/25 4/4/26 10/16/27 9/15/28
f 4/4/26 6/6/29 11/17/30 10/16/27
f 6/6/29 5/5/31 12/18/32 11/17/30
s off
f 18/23/33 17/24/34 19/25/35 20/26/36
f 9/15/37 10/16/38 14/20/39 13/19/40
f 10/16/41 11/17/42 15/21/43 14/20/44
f 11/17/45 12/18/46 16/22/47 15/21/48
s 3
f 12/18/49 9/15/50 13/19/51 16/22/52
s 1
f 5/5/24 3/3/23 17/24/53 18/23/54
s off
f 3/3/55 9/15/56 19/25/57 17/24/58
s 3
f 9/15/50 12/18/49 20/26/59 19/25/60
s off
f 12/18/61 5/5/62 18/23/63 20/26/64
