# This file uses centimeters as units for non-parametric coordinates.

g default
v -2.000000 0.000000 0.000000
v 0.000000 0.000000 0.000000
v -2.000000 1.000000 0.000000
v 0.000000 1.000000 0.000000
v -2.000000 0.802081 -0.610208
v 0.000000 0.802081 -0.610208
v -2.000000 0.000000 -0.610208
v 0.000000 0.000000 -0.610208
v -2.000000 1.000000 -0.078411
v -2.000000 0.000000 -0.078411
v 0.000000 0.000000 -0.078411
v 0.000000 1.000000 -0.078411
v -2.000000 1.792711 0.000000
v 0.000000 1.792711 0.000000
v 0.000000 1.792711 -0.078411
v -2.000000 1.792711 -0.078411
v -2.000000 1.965485 -0.079384
v 0.000000 1.965485 -0.079384
v 0.000000 1.925935 -0.147091
v -2.000000 1.925935 -0.147091
v -2.000000 2.070169 -0.231046
v 0.000000 2.070169 -0.231046
v 0.000000 1.994634 -0.252088
v -2.000000 1.994634 -0.252088
v -2.000000 2.074716 -0.454607
v 0.000000 2.074716 -0.454607
v 0.000000 1.997139 -0.443202
v -2.000000 1.997139 -0.443202
v -2.000000 1.995084 -0.646887
v 0.000000 1.995084 -0.646887
v 0.000000 1.929251 -0.604293
v -2.000000 1.929251 -0.604293
v -2.000000 1.813606 -0.740650
v 0.000000 1.813606 -0.740650
v 0.000000 1.786333 -0.667135
v -2.000000 1.786333 -0.667135
v -0.060000 0.979072 -0.134643
v -1.940000 0.979072 -0.134643
v -0.060000 0.823009 -0.553976
v -1.940000 0.823009 -0.553976
v -0.060000 0.472847 -0.134643
v -1.940000 0.472847 -0.134643
v -0.060000 0.472576 -0.553976
v -1.940000 0.472576 -0.553976
v 0.000000 1.399938 -0.078411
v 0.000000 1.419282 0.000000
v -2.000000 1.419282 0.000000
v -2.000000 1.399938 -0.078411
v 0.000000 1.376382 -0.078411
v 0.000000 1.376382 0.000000
v -2.000000 1.376382 0.000000
v -2.000000 1.376382 -0.078411
v -2.000000 1.264642 -0.403072
v 0.000000 1.264642 -0.403072
v -2.000000 1.307542 -0.396042
v 0.000000 1.307542 -0.396042
v 0.000000 1.296212 -0.386818
v -2.000000 1.296212 -0.386818
v -2.000000 1.272656 -0.379788
v 0.000000 1.272656 -0.379788
v 0.000000 1.358931 -0.386818
v -2.000000 1.358931 -0.386818
v 0.000000 1.350917 -0.396042
v -2.000000 1.350917 -0.396042
vt 0.375000 0.000000
vt 0.625000 0.000000
vt 0.625000 0.250000
vt 0.375000 0.250000
vt 0.375000 0.250000
vt 0.625000 0.250000
vt 0.625000 0.294313
vt 0.375000 0.294313
vt 0.375000 0.500000
vt 0.625000 0.500000
vt 0.625000 0.750000
vt 0.375000 0.750000
vt 0.669313 0.000000
vt 0.669313 0.250000
vt 0.330687 0.000000
vt 0.330687 0.250000
vt 0.125000 0.000000
vt 0.125000 0.250000
vt 0.875000 0.000000
vt 0.875000 0.250000
vt 0.375000 0.294313
vt 0.625000 0.294313
vt 0.625000 0.500000
vt 0.375000 0.500000
vt 0.625000 0.250000
vt 0.375000 0.250000
vt 0.625000 0.294313
vt 0.625000 0.294313
vt 0.375000 0.294313
vt 0.375000 0.294313
vt 0.375000 0.250000
vt 0.625000 0.250000
vt 0.625000 0.250000
vt 0.375000 0.250000
vt 0.625000 0.294313
vt 0.625000 0.294313
vt 0.375000 0.294313
vt 0.375000 0.294313
vt 0.625000 0.250000
vt 0.375000 0.250000
vt 0.625000 0.294313
vt 0.375000 0.294313
vt 0.625000 0.250000
vt 0.375000 0.250000
vt 0.625000 0.294313
vt 0.375000 0.294313
vt 0.625000 0.250000
vt 0.375000 0.250000
vt 0.625000 0.294313
vt 0.375000 0.294313
vt 0.625000 0.294313
vt 0.375000 0.294313
vt 0.625000 0.500000
vt 0.375000 0.500000
vt 0.625000 0.250000
vt 0.625000 0.294313
vt 0.375000 0.250000
vt 0.375000 0.294313
vt 0.625000 0.294313
vt 0.375000 0.294313
vt 0.375000 0.294313
vt 0.625000 0.294313
vt 0.375000 0.294313
vt 0.625000 0.294313
vt 0.375000 0.294313
vt 0.625000 0.294313
vt 0.375000 0.294313
vt 0.625000 0.294313
vt 0.625000 0.294313
vt 0.375000 0.294313
vn 0.000000 0.000000 1.000000
vn 0.000000 0.000000 1.000000
vn 0.000000 0.000000 1.000000
vn 0.000000 0.000000 1.000000
vn 0.000000 -0.937557 -0.347831
vn 0.000000 -0.937557 -0.347831
vn 0.000000 -0.937557 -0.347831
vn 0.000000 -0.937557 -0.347831
vn 0.000000 0.000000 -1.000000
vn 0.000000 0.000000 -1.000000
vn 0.000000 0.000000 -1.000000
vn 0.000000 0.000000 -1.000000
vn 1.000000 0.000000 0.000000
vn 1.000000 0.000000 0.000000
vn 1.000000 0.000000 0.000000
vn 1.000000 0.000000 0.000000
vn -1.000000 0.000000 0.000000
vn -1.000000 0.000000 0.000000
vn -1.000000 0.000000 0.000000
vn -1.000000 0.000000 0.000000
vn -1.000000 0.000000 0.000000
vn -1.000000 0.000000 0.000000
vn 1.000000 0.000000 0.000000
vn 1.000000 0.000000 0.000000
vn 0.000000 1.000000 -0.000645
vn 0.000000 1.000000 -0.000645
vn 0.000000 1.000000 -0.000645
vn 0.000000 1.000000 -0.000645
vn 0.000000 0.000000 1.000000
vn 0.000000 0.000000 1.000000
vn 0.000000 0.000000 1.000000
vn 0.000000 0.000000 1.000000
vn 1.000000 0.000000 0.000000
vn 1.000000 0.000000 0.000000
vn 1.000000 0.000000 0.000000
vn 1.000000 0.000000 0.000000
vn 0.000000 -0.000000 -1.000000
vn 0.000000 -0.000000 -1.000000
vn 0.000000 -0.000000 -1.000000
vn 0.000000 -0.000000 -1.000000
vn -1.000000 0.000000 0.000000
vn -1.000000 0.000000 0.000000
vn -1.000000 0.000000 0.000000
vn -1.000000 0.000000 0.000000
vn 0.000000 0.143827 0.989603
vn 0.000000 0.143827 0.989603
vn 0.000000 0.417507 0.908674
vn 0.000000 0.417507 0.908674
vn 1.000000 0.000000 0.000000
vn 1.000000 0.000000 0.000000
vn 1.000000 0.000000 0.000000
vn 1.000000 0.000000 0.000000
vn 0.000000 -0.129471 -0.991583
vn 0.000000 -0.129471 -0.991583
vn 0.000000 -0.458213 -0.888842
vn 0.000000 -0.458213 -0.888842
vn -1.000000 0.000000 0.000000
vn -1.000000 0.000000 0.000000
vn -1.000000 0.000000 0.000000
vn -1.000000 0.000000 0.000000
vn 0.000000 0.822983 0.568065
vn 0.000000 0.822983 0.568065
vn 0.000000 0.960144 0.279508
vn 0.000000 0.960144 0.279508
vn 1.000000 0.000000 0.000000
vn 1.000000 0.000000 0.000000
vn 1.000000 0.000000 0.000000
vn 1.000000 0.000000 0.000000
vn 0.000000 -0.836797 -0.547513
vn 0.000000 -0.836797 -0.547513
vn 0.000000 -0.972285 -0.233799
vn 0.000000 -0.972285 -0.233799
vn -1.000000 0.000000 0.000000
vn -1.000000 0.000000 0.000000
vn -1.000000 0.000000 0.000000
vn -1.000000 0.000000 0.000000
vn 0.000000 0.984087 -0.177690
vn 0.000000 0.984087 -0.177690
vn 1.000000 0.000000 0.000000
vn 1.000000 0.000000 0.000000
vn 0.000000 -0.983202 0.182523
vn 0.000000 -0.983202 0.182523
vn -1.000000 0.000000 0.000000
vn -1.000000 0.000000 0.000000
vn 0.000000 0.923901 -0.382633
vn 0.000000 0.923901 -0.382633
vn 1.000000 0.000000 0.000000
vn 1.000000 0.000000 0.000000
vn 0.000000 -0.921510 0.388354
vn 0.000000 -0.921510 0.388354
vn -1.000000 0.000000 0.000000
vn -1.000000 0.000000 0.000000
vn 0.000000 0.459017 -0.888427
vn 0.000000 0.459017 -0.888427
vn 0.000000 0.459017 -0.888427
vn 0.000000 0.459017 -0.888427
vn 1.000000 0.000000 0.000000
vn 1.000000 0.000000 0.000000
vn 1.000000 0.000000 0.000000
vn 1.000000 0.000000 0.000000
vn 0.000000 -0.402514 0.915414
vn 0.000000 -0.402514 0.915414
vn 0.000000 -0.402514 0.915414
vn 0.000000 -0.402514 0.915414
vn -1.000000 0.000000 0.000000
vn -1.000000 0.000000 0.000000
vn -1.000000 0.000000 0.000000
vn -1.000000 0.000000 0.000000
vn -0.000000 0.937198 -0.348797
vn 0.000000 0.937198 -0.348797
vn 0.000000 0.937199 -0.348797
vn -0.000000 0.937198 -0.348797
vn 0.000000 0.937198 -0.348798
vn 0.000000 0.937198 -0.348798
vn -0.000000 0.937198 -0.348798
vn -0.000000 0.937198 -0.348798
vn 0.000000 0.000000 -1.000000
vn 0.000000 0.000000 -1.000000
vn 0.000000 0.000000 -1.000000
vn 0.000000 0.000000 -1.000000
vn -1.000000 0.000000 0.000000
vn -1.000000 0.000000 0.000000
vn -1.000000 0.000000 0.000000
vn -1.000000 0.000000 0.000000
vn 0.000000 0.000000 1.000000
vn 0.000000 0.000000 1.000000
vn 0.000000 0.000000 1.000000
vn 0.000000 0.000000 1.000000
vn 1.000000 0.000000 0.000000
vn 1.000000 0.000000 0.000000
vn 1.000000 0.000000 0.000000
vn 1.000000 0.000000 0.000000
vn 1.000000 0.000000 0.000000
vn 1.000000 0.000000 0.000000
vn 0.000000 0.000000 1.000000
vn 0.000000 0.000000 1.000000
vn -1.000000 0.000000 0.000000
vn -1.000000 0.000000 0.000000
vn 0.000000 0.000000 -1.000000
vn 0.000000 0.000000 -1.000000
vn 0.000000 0.161713 -0.986838
vn 0.000000 0.161713 -0.986838
vn 0.000000 0.161713 -0.986838
vn 0.000000 0.161713 -0.986838
vn 0.000000 -0.945563 0.325438
vn 0.000000 -0.945563 0.325438
vn 0.000000 -0.945563 0.325438
vn 0.000000 -0.945563 0.325438
vn -1.000000 0.000000 0.000000
vn -1.000000 0.000000 0.000000
vn 0.000000 0.947828 -0.318781
vn 0.000000 0.947828 -0.318781
vn 0.000000 0.947828 -0.318781
vn 0.000000 0.947828 -0.318781
vn 1.000000 0.000000 0.000000
vn 1.000000 0.000000 0.000000
vn 0.000000 0.754899 -0.655841
vn 0.000000 0.754899 -0.655841
vn 0.000000 0.754899 -0.655841
vn 0.000000 0.754899 -0.655841
vn -1.000000 0.000000 0.000000
vn -1.000000 0.000000 0.000000
vn 0.000000 -0.945563 0.325440
vn 0.000000 -0.945563 0.325440
vn 1.000000 0.000000 0.000000
vn 1.000000 0.000000 0.000000
vn 0.000000 0.000000 1.000000
vn 0.000000 0.000000 1.000000
vn 0.000000 0.000000 1.000000
vn 0.000000 0.000000 1.000000
vn 1.000000 0.000000 0.000000
vn 1.000000 0.000000 0.000000
vn 1.000000 0.000000 0.000000
vn 1.000000 0.000000 0.000000
vn 0.000000 0.000000 -1.000000
vn 0.000000 0.000000 -1.000000
vn 0.000000 0.000000 -1.000000
vn 0.000000 0.000000 -1.000000
vn -1.000000 0.000000 0.000000
vn -1.000000 0.000000 0.000000
vn -1.000000 0.000000 0.000000
vn -1.000000 0.000000 0.000000
s off
g Estante_RefiParedBajo EstantesExport
f 1/1/1 2/2/2 4/3/3 3/4/4
f 33/5/5 34/6/6 35/7/7 36/8/8
f 5/9/9 6/10/10 8/11/11 7/12/12
s 1
f 2/2/13 11/13/14 12/14/15 4/3/16
s 2
f 10/15/17 1/1/18 3/4/19 9/16/20
f 7/17/21 10/15/17 9/16/20 5/18/22
s 1
f 12/14/15 11/13/14 8/19/23 6/20/24
s off
f 42/21/25 41/22/26 43/23/27 44/24/28
s 3
f 3/4/29 4/3/30 50/25/31 51/26/32
s 4
f 4/3/33 12/27/34 49/28/35 50/25/36
s off
f 12/27/37 9/29/38 52/30/39 49/28/40
s 5
f 9/29/41 3/4/42 51/26/43 52/30/44
s 3
f 13/31/45 14/32/46 18/33/47 17/34/48
s 4
f 14/32/49 15/35/50 19/36/51 18/33/52
s 8
f 15/35/53 16/37/54 20/38/55 19/36/56
s 5
f 16/37/57 13/31/58 17/34/59 20/38/60
s 10
f 17/34/61 18/33/62 22/39/63 21/40/64
s 11
f 18/33/65 19/36/66 23/41/67 22/39/68
s 12
f 19/36/69 20/38/70 24/42/71 23/41/72
s 13
f 20/38/73 17/34/74 21/40/75 24/42/76
s 10
f 21/40/64 22/39/63 26/43/77 25/44/78
s 11
f 22/39/68 23/41/67 27/45/79 26/43/80
s 12
f 23/41/72 24/42/71 28/46/81 27/45/82
s 13
f 24/42/76 21/40/75 25/44/83 28/46/84
s 10
f 25/44/78 26/43/77 30/47/85 29/48/86
s 11
f 26/43/80 27/45/79 31/49/87 30/47/88
s 12
f 27/45/82 28/46/81 32/50/89 31/49/90
s 13
f 28/46/84 25/44/83 29/48/91 32/50/92
s off
f 29/48/93 30/47/94 34/6/95 33/5/96
f 30/47/97 31/49/98 35/7/99 34/6/100
f 31/49/101 32/50/102 36/8/103 35/7/104
f 32/50/105 29/48/106 33/5/107 36/8/108
s 14
f 9/29/109 12/27/110 37/51/111 38/52/112
f 12/27/110 6/10/113 39/53/114 37/51/111
f 6/10/113 5/9/115 40/54/116 39/53/114
f 5/9/115 9/29/109 38/52/112 40/54/116
s off
f 38/52/117 37/51/118 41/22/119 42/21/120
f 37/51/121 39/53/122 43/23/123 41/22/124
f 39/53/125 40/54/126 44/24/127 43/23/128
f 40/54/129 38/52/130 42/21/131 44/24/132
s 4
f 46/55/133 45/56/134 15/35/50 14/32/49
s 3
f 47/57/135 46/55/136 14/32/46 13/31/45
s 5
f 48/58/137 47/57/138 13/31/58 16/37/57
s 8
f 45/56/139 48/58/140 16/37/54 15/35/53
s 4
f 50/25/36 49/28/35 45/56/134 46/55/133
s 3
f 51/26/32 50/25/31 46/55/136 47/57/135
s 5
f 52/30/44 51/26/43 47/57/138 48/58/137
s off
f 54/59/141 53/60/142 55/61/143 56/62/144
s 15
f 49/28/145 52/30/146 59/63/147 60/64/148
s 5
f 52/30/44 48/58/137 58/65/149 59/63/150
s off
f 48/58/151 45/56/152 57/66/153 58/65/154
s 4
f 45/56/134 49/28/35 60/64/155 57/66/156
s off
f 62/67/157 61/68/158 63/69/159 64/70/160
s 5
f 59/63/150 58/65/149 55/61/161 53/60/162
s 15
f 60/64/148 59/63/147 53/60/163 54/59/164
s 4
f 57/66/156 60/64/155 54/59/165 56/62/166
s off
f 58/65/167 57/66/168 61/68/169 62/67/170
f 57/66/171 56/62/172 63/69/173 61/68/174
f 56/62/175 55/61/176 64/70/177 63/69/178
f 55/61/179 58/65/180 62/67/181 64/70/182
