# This file uses centimeters as units for non-parametric coordinates.

g default
v -2.000000 0.000000 0.000000
v 0.000000 0.000000 0.000000
v -2.000000 1.000000 0.000000
v 0.000000 1.000000 0.000000
v -2.000000 0.802081 -0.610208
v 0.000000 0.802081 -0.610208
v -2.000000 0.000000 -0.610208
v 0.000000 0.000000 -0.610208
v -2.000000 1.000000 -0.078411
v -2.000000 0.000000 -0.078411
v 0.000000 0.000000 -0.078411
v 0.000000 1.000000 -0.078411
v -2.000000 1.792711 0.000000
v 0.000000 1.792711 0.000000
v 0.000000 1.792711 -0.078411
v -2.000000 1.792711 -0.078411
v -2.000000 1.965485 -0.079384
v 0.000000 1.965485 -0.079384
v 0.000000 1.925935 -0.147091
v -2.000000 1.925935 -0.147091
v -2.000000 2.070169 -0.231046
v 0.000000 2.070169 -0.231046
v 0.000000 1.994634 -0.252088
v -2.000000 1.994634 -0.252088
v -2.000000 2.074716 -0.454607
v 0.000000 2.074716 -0.454607
v 0.000000 1.997139 -0.443202
v -2.000000 1.997139 -0.443202
v -2.000000 1.995084 -0.646887
v 0.000000 1.995084 -0.646887
v 0.000000 1.929251 -0.604293
v -2.000000 1.929251 -0.604293
v -2.000000 1.813606 -0.740650
v 0.000000 1.813606 -0.740650
v 0.000000 1.786333 -0.667135
v -2.000000 1.786333 -0.667135
v -0.060000 0.979072 -0.134643
v -1.940000 0.979072 -0.134643
v -0.060000 0.823009 -0.553976
v -1.940000 0.823009 -0.553976
v -0.060000 0.472847 -0.134643
v -1.940000 0.472847 -0.134643
v -0.060000 0.472576 -0.553976
v -1.940000 0.472576 -0.553976
v 0.000000 1.399938 -0.078411
v 0.000000 1.419282 0.000000
v -2.000000 1.419282 0.000000
v -2.000000 1.399938 -0.078411
v 0.000000 1.376382 -0.078411
v 0.000000 1.376382 0.000000
v -2.000000 1.376382 0.000000
v -2.000000 1.376382 -0.078411
v -2.000000 1.264642 -0.403072
v 0.000000 1.264642 -0.403072
v -2.000000 1.307542 -0.396042
v 0.000000 1.307542 -0.396042
v 0.000000 1.296212 -0.386818
v -2.000000 1.296212 -0.386818
v -2.000000 1.272656 -0.379788
v 0.000000 1.272656 -0.379788
v 0.000000 1.358931 -0.386818
v -2.000000 1.358931 -0.386818
v 0.000000 1.350917 -0.396042
v -2.000000 1.350917 -0.396042
vt 0.124171 0.180733
vt 0.136619 0.141178
vt 0.625000 0.250000
vt 0.375000 0.250000
vt 0.375000 0.250000
vt 0.625000 0.250000
vt 0.625000 0.294313
vt 0.375000 0.294313
vt 0.375000 0.500000
vt 0.625000 0.500000
vt 0.136619 0.447531
vt 0.044514 0.447531
vt 0.143371 0.223715
vt 0.143371 0.272775
vt 0.111885 0.180733
vt 0.111885 0.250049
vt 0.054855 0.180733
vt 0.054855 0.250049
vt 0.183734 0.223715
vt 0.183734 0.272775
vt 0.375000 0.294313
vt 0.625000 0.294313
vt 0.625000 0.500000
vt 0.375000 0.500000
vt 0.625000 0.250000
vt 0.375000 0.250000
vt 0.625000 0.294313
vt 0.625000 0.294313
vt 0.375000 0.294313
vt 0.375000 0.294313
vt 0.375000 0.250000
vt 0.625000 0.250000
vt 0.625000 0.250000
vt 0.375000 0.250000
vt 0.625000 0.294313
vt 0.625000 0.294313
vt 0.044514 0.249609
vt 0.375000 0.294313
vt 0.625000 0.250000
vt 0.375000 0.250000
vt 0.625000 0.294313
vt 0.375000 0.294313
vt 0.625000 0.250000
vt 0.375000 0.250000
vt 0.625000 0.294313
vt 0.375000 0.294313
vt 0.625000 0.250000
vt 0.375000 0.250000
vt 0.625000 0.294313
vt 0.375000 0.294313
vt 0.625000 0.294313
vt 0.375000 0.294313
vt 0.625000 0.500000
vt 0.375000 0.500000
vt 0.625000 0.250000
vt 0.625000 0.294313
vt 0.375000 0.250000
vt 0.375000 0.294313
vt 0.625000 0.294313
vt 0.375000 0.294313
vt 0.375000 0.294313
vt 0.625000 0.294313
vt 0.375000 0.294313
vt 0.625000 0.294313
vt 0.375000 0.294313
vt 0.625000 0.294313
vt 0.375000 0.294313
vt 0.625000 0.294313
vt 0.625000 0.294313
vt 0.375000 0.294313
vt 0.044514 0.355426
vt 0.136619 0.355426
vt 0.124171 0.250049
vt 0.044514 0.141178
vt 0.134675 0.272775
vt 0.134675 0.223715
vt 0.136619 0.249609
vt 0.044514 0.249609
vt 0.375000 0.294313
vt 0.136619 0.249609
vt 0.044514 0.249609
vt 0.136619 0.249609
vt 0.044514 0.249609
vt 0.375000 0.294313
vt 0.625000 0.294313
vt 0.136619 0.249609
vt 0.044514 0.233283
vt 0.136619 0.233283
vn 0.000000 0.000000 1.000000
vn 0.000000 0.000000 1.000000
vn 0.000000 0.000000 1.000000
vn 0.000000 0.000000 1.000000
vn 0.000000 -0.937557 -0.347831
vn 0.000000 -0.937557 -0.347831
vn 0.000000 -0.937557 -0.347831
vn 0.000000 -0.937557 -0.347831
vn 0.000000 0.000000 -1.000000
vn 0.000000 0.000000 -1.000000
vn 0.000000 0.000000 -1.000000
vn 0.000000 0.000000 -1.000000
vn 1.000000 0.000000 0.000000
vn 1.000000 0.000000 0.000000
vn 1.000000 0.000000 0.000000
vn 1.000000 0.000000 0.000000
vn -1.000000 0.000000 0.000000
vn -1.000000 0.000000 0.000000
vn -1.000000 0.000000 0.000000
vn -1.000000 0.000000 0.000000
vn -1.000000 0.000000 0.000000
vn -1.000000 0.000000 0.000000
vn -1.000000 0.000000 0.000000
vn -1.000000 0.000000 0.000000
vn 1.000000 0.000000 0.000000
vn 1.000000 0.000000 0.000000
vn 1.000000 0.000000 0.000000
vn 1.000000 0.000000 0.000000
vn 0.000000 1.000000 -0.000645
vn 0.000000 1.000000 -0.000645
vn 0.000000 1.000000 -0.000645
vn 0.000000 1.000000 -0.000645
vn 0.000000 0.000000 1.000000
vn 0.000000 0.000000 1.000000
vn 0.000000 0.000000 1.000000
vn 0.000000 0.000000 1.000000
vn 1.000000 0.000000 0.000000
vn 1.000000 0.000000 0.000000
vn 1.000000 0.000000 0.000000
vn 1.000000 0.000000 0.000000
vn 0.000000 0.000000 -1.000000
vn 0.000000 0.000000 -1.000000
vn 0.000000 0.000000 -1.000000
vn 0.000000 0.000000 -1.000000
vn -1.000000 0.000000 0.000000
vn -1.000000 0.000000 0.000000
vn -1.000000 0.000000 0.000000
vn -1.000000 0.000000 0.000000
vn 0.000000 0.143827 0.989603
vn 0.000000 0.143827 0.989603
vn 0.000000 0.417507 0.908674
vn 0.000000 0.417507 0.908674
vn 1.000000 0.000000 0.000000
vn 1.000000 0.000000 0.000000
vn 1.000000 0.000000 0.000000
vn 1.000000 0.000000 0.000000
vn 0.000000 -0.129471 -0.991583
vn 0.000000 -0.129471 -0.991583
vn 0.000000 -0.458213 -0.888842
vn 0.000000 -0.458213 -0.888842
vn -1.000000 0.000000 0.000000
vn -1.000000 0.000000 0.000000
vn -1.000000 0.000000 0.000000
vn -1.000000 0.000000 0.000000
vn 0.000000 0.822984 0.568065
vn 0.000000 0.822984 0.568065
vn 0.000000 0.960144 0.279508
vn 0.000000 0.960144 0.279508
vn 1.000000 0.000000 0.000000
vn 1.000000 0.000000 0.000000
vn 1.000000 0.000000 0.000000
vn 1.000000 0.000000 0.000000
vn 0.000000 -0.836797 -0.547513
vn 0.000000 -0.836797 -0.547513
vn 0.000000 -0.972285 -0.233799
vn 0.000000 -0.972285 -0.233799
vn -1.000000 0.000000 0.000000
vn -1.000000 0.000000 0.000000
vn -1.000000 0.000000 0.000000
vn -1.000000 0.000000 0.000000
vn 0.000000 0.960144 0.279508
vn 0.000000 0.960144 0.279508
vn 0.000000 0.984087 -0.177690
vn 0.000000 0.984087 -0.177690
vn 1.000000 0.000000 0.000000
vn 1.000000 0.000000 0.000000
vn 1.000000 0.000000 0.000000
vn 1.000000 0.000000 0.000000
vn 0.000000 -0.972285 -0.233799
vn 0.000000 -0.972285 -0.233799
vn 0.000000 -0.983202 0.182523
vn 0.000000 -0.983202 0.182523
vn -1.000000 0.000000 0.000000
vn -1.000000 0.000000 0.000000
vn -1.000000 0.000000 0.000000
vn -1.000000 0.000000 0.000000
vn 0.000000 0.984087 -0.177690
vn 0.000000 0.984087 -0.177690
vn 0.000000 0.923900 -0.382633
vn 0.000000 0.923900 -0.382633
vn 1.000000 0.000000 0.000000
vn 1.000000 0.000000 0.000000
vn 1.000000 0.000000 0.000000
vn 1.000000 0.000000 0.000000
vn 0.000000 -0.983202 0.182523
vn 0.000000 -0.983202 0.182523
vn 0.000000 -0.921510 0.388354
vn 0.000000 -0.921510 0.388354
vn -1.000000 0.000000 0.000000
vn -1.000000 0.000000 0.000000
vn -1.000000 0.000000 0.000000
vn -1.000000 0.000000 0.000000
vn 0.000000 0.459017 -0.888427
vn 0.000000 0.459017 -0.888427
vn 0.000000 0.459017 -0.888427
vn 0.000000 0.459017 -0.888427
vn 1.000000 0.000000 0.000000
vn 1.000000 0.000000 0.000000
vn 1.000000 0.000000 0.000000
vn 1.000000 0.000000 0.000000
vn 0.000000 -0.402514 0.915414
vn 0.000000 -0.402514 0.915414
vn 0.000000 -0.402514 0.915414
vn 0.000000 -0.402514 0.915414
vn -1.000000 0.000000 0.000000
vn -1.000000 0.000000 0.000000
vn -1.000000 0.000000 0.000000
vn -1.000000 0.000000 0.000000
vn -0.000000 0.937198 -0.348797
vn 0.000000 0.937198 -0.348797
vn 0.000000 0.937198 -0.348797
vn -0.000000 0.937198 -0.348797
vn 0.000000 0.937198 -0.348797
vn 0.000000 0.937198 -0.348798
vn 0.000000 0.937198 -0.348798
vn 0.000000 0.937198 -0.348797
vn 0.000000 0.937198 -0.348798
vn -0.000000 0.937198 -0.348798
vn -0.000000 0.937198 -0.348798
vn 0.000000 0.937198 -0.348798
vn -0.000000 0.937198 -0.348798
vn -0.000000 0.937198 -0.348797
vn -0.000000 0.937198 -0.348797
vn -0.000000 0.937198 -0.348798
vn 0.000000 0.000000 -1.000000
vn 0.000000 0.000000 -1.000000
vn 0.000000 0.000000 -1.000000
vn 0.000000 0.000000 -1.000000
vn -1.000000 0.000000 0.000000
vn -1.000000 0.000000 0.000000
vn -1.000000 0.000000 0.000000
vn -1.000000 0.000000 0.000000
vn 0.000000 0.000000 1.000000
vn 0.000000 0.000000 1.000000
vn 0.000000 0.000000 1.000000
vn 0.000000 0.000000 1.000000
vn 1.000000 0.000000 0.000000
vn 1.000000 0.000000 0.000000
vn 1.000000 0.000000 0.000000
vn 1.000000 0.000000 0.000000
vn 1.000000 0.000000 0.000000
vn 1.000000 0.000000 0.000000
vn 1.000000 0.000000 0.000000
vn 1.000000 0.000000 0.000000
vn 0.000000 0.000000 1.000000
vn 0.000000 0.000000 1.000000
vn 0.000000 0.143827 0.989603
vn 0.000000 0.143827 0.989603
vn -1.000000 0.000000 0.000000
vn -1.000000 0.000000 0.000000
vn -1.000000 0.000000 0.000000
vn -1.000000 0.000000 0.000000
vn 0.000000 0.000000 -1.000000
vn 0.000000 0.000000 -1.000000
vn 0.000000 -0.129471 -0.991583
vn 0.000000 -0.129471 -0.991583
vn 1.000000 0.000000 0.000000
vn 1.000000 0.000000 0.000000
vn 1.000000 0.000000 0.000000
vn 1.000000 0.000000 0.000000
vn 0.000000 0.000000 1.000000
vn 0.000000 0.000000 1.000000
vn 0.000000 0.000000 1.000000
vn 0.000000 0.000000 1.000000
vn -1.000000 0.000000 0.000000
vn -1.000000 0.000000 0.000000
vn -1.000000 0.000000 0.000000
vn -1.000000 0.000000 0.000000
vn 0.000000 0.161713 -0.986838
vn 0.000000 0.161713 -0.986838
vn 0.000000 0.161713 -0.986838
vn 0.000000 0.161713 -0.986838
vn 0.000000 -0.945563 0.325438
vn 0.000000 -0.945563 0.325438
vn 0.000000 -0.945563 0.325438
vn 0.000000 -0.945563 0.325438
vn -1.000000 0.000000 0.000000
vn -1.000000 0.000000 0.000000
vn -1.000000 0.000000 0.000000
vn -1.000000 0.000000 0.000000
vn 0.000000 0.947828 -0.318781
vn 0.000000 0.947828 -0.318781
vn 0.000000 0.947828 -0.318781
vn 0.000000 0.947828 -0.318781
vn 1.000000 0.000000 0.000000
vn 1.000000 0.000000 0.000000
vn 1.000000 0.000000 0.000000
vn 1.000000 0.000000 0.000000
vn 0.000000 0.754899 -0.655841
vn 0.000000 0.754899 -0.655841
vn 0.000000 0.754899 -0.655841
vn 0.000000 0.754899 -0.655841
vn -1.000000 0.000000 0.000000
vn -1.000000 0.000000 0.000000
vn -1.000000 0.000000 0.000000
vn -1.000000 0.000000 0.000000
vn 0.000000 -0.945563 0.325438
vn 0.000000 -0.945563 0.325438
vn 0.000000 -0.945563 0.325440
vn 0.000000 -0.945563 0.325440
vn 1.000000 0.000000 0.000000
vn 1.000000 0.000000 0.000000
vn 1.000000 0.000000 0.000000
vn 1.000000 0.000000 0.000000
vn 0.000000 0.000000 1.000000
vn 0.000000 0.000000 1.000000
vn 0.000000 0.000000 1.000000
vn 0.000000 0.000000 1.000000
vn 1.000000 0.000000 0.000000
vn 1.000000 0.000000 0.000000
vn 1.000000 0.000000 0.000000
vn 1.000000 0.000000 0.000000
vn 0.000000 0.000000 -1.000000
vn 0.000000 0.000000 -1.000000
vn 0.000000 0.000000 -1.000000
vn 0.000000 0.000000 -1.000000
vn -1.000000 0.000000 0.000000
vn -1.000000 0.000000 0.000000
vn -1.000000 0.000000 0.000000
vn -1.000000 0.000000 0.000000
s off
g Estante_RefriPared:polySurface1
f 1/74/1 2/2/2 4/88/3 3/87/4
f 33/5/5 34/6/6 35/7/7 36/8/8
f 5/71/9 6/72/10 8/11/11 7/12/12
f 2/76/13 11/13/14 12/14/15 4/75/16
f 10/15/17 1/1/18 3/73/19 9/16/20
f 7/17/21 10/15/22 9/16/23 5/18/24
f 12/14/25 11/13/26 8/19/27 6/20/28
f 42/21/29 41/22/30 43/23/31 44/24/32
f 3/4/33 4/3/34 50/25/35 51/26/36
f 4/3/37 12/85/38 49/28/39 50/25/40
f 12/86/41 9/83/42 52/81/43 49/82/44
f 9/84/45 3/4/46 51/26/47 52/30/48
f 13/31/49 14/32/50 18/33/51 17/34/52
f 14/32/53 15/35/54 19/36/55 18/33/56
f 15/35/57 16/79/58 20/38/59 19/36/60
f 16/79/61 13/31/62 17/34/63 20/38/64
f 17/34/65 18/33/66 22/39/67 21/40/68
f 18/33/69 19/36/70 23/41/71 22/39/72
f 19/36/73 20/38/74 24/42/75 23/41/76
f 20/38/77 17/34/78 21/40/79 24/42/80
f 21/40/81 22/39/82 26/43/83 25/44/84
f 22/39/85 23/41/86 27/45/87 26/43/88
f 23/41/89 24/42/90 28/46/91 27/45/92
f 24/42/93 21/40/94 25/44/95 28/46/96
f 25/44/97 26/43/98 30/47/99 29/48/100
f 26/43/101 27/45/102 31/49/103 30/47/104
f 27/45/105 28/46/106 32/50/107 31/49/108
f 28/46/109 25/44/110 29/48/111 32/50/112
f 29/48/113 30/47/114 34/6/115 33/5/116
f 30/47/117 31/49/118 35/7/119 34/6/120
f 31/49/121 32/50/122 36/8/123 35/7/124
f 32/50/125 29/48/126 33/5/127 36/8/128
f 9/29/129 12/27/130 37/51/131 38/52/132
f 12/27/133 6/10/134 39/53/135 37/51/136
f 6/10/137 5/9/138 40/54/139 39/53/140
f 5/9/141 9/29/142 38/52/143 40/54/144
f 38/52/145 37/51/146 41/22/147 42/21/148
f 37/51/149 39/53/150 43/23/151 41/22/152
f 39/53/153 40/54/154 44/24/155 43/23/156
f 40/54/157 38/52/158 42/21/159 44/24/160
f 46/55/161 45/56/162 15/35/163 14/32/164
f 47/57/165 46/55/166 14/32/167 13/31/168
f 48/58/169 47/57/170 13/31/171 16/79/172
f 45/77/173 48/78/174 16/37/175 15/80/176
f 50/25/177 49/28/178 45/56/179 46/55/180
f 51/26/181 50/25/182 46/55/183 47/57/184
f 52/30/185 51/26/186 47/57/187 48/58/188
f 54/59/189 53/60/190 55/61/191 56/62/192
f 49/28/193 52/30/194 59/63/195 60/64/196
f 52/30/197 48/58/198 58/65/199 59/63/200
f 48/58/201 45/56/202 57/66/203 58/65/204
f 45/56/205 49/28/206 60/64/207 57/66/208
f 62/67/209 61/68/210 63/69/211 64/70/212
f 59/63/213 58/65/214 55/61/215 53/60/216
f 60/64/217 59/63/218 53/60/219 54/59/220
f 57/66/221 60/64/222 54/59/223 56/62/224
f 58/65/225 57/66/226 61/68/227 62/67/228
f 57/66/229 56/62/230 63/69/231 61/68/232
f 56/62/233 55/61/234 64/70/235 63/69/236
f 55/61/237 58/65/238 62/67/239 64/70/240
