# This file uses centimeters as units for non-parametric coordinates.

g default
v -1.608078 0.000000 0.000000
v 0.000000 0.000000 0.000000
v -1.608078 1.000000 0.000000
v 0.000000 1.000000 0.000000
v -1.608078 1.000000 -0.230379
v 0.000000 1.000000 -0.230379
v -1.608078 0.000000 -0.230379
v 0.000000 0.000000 -0.230379
v 0.000000 0.861285 -0.230379
v -1.608078 0.861285 -0.230379
v -1.608078 0.861285 0.000000
v 0.000000 0.861285 0.000000
v -1.608078 1.000000 -0.566601
v 0.000000 1.000000 -0.566601
v 0.000000 0.861285 -0.566601
v -1.608078 0.861285 -0.566601
v -1.144125 0.993798 -0.012040
v -0.787229 0.993798 -0.012040
v -1.144125 1.100505 -0.012040
v -0.787229 1.100505 -0.012040
v -1.144125 1.100505 -0.110201
v -0.787229 1.100505 -0.110201
v -1.144125 0.993798 -0.249397
v -0.787229 0.993798 -0.249397
v -0.787229 1.017354 -0.012040
v -1.144125 1.017354 -0.012040
v -1.144125 1.017354 -0.245354
v -0.787229 1.017354 -0.245354
v -1.114826 1.144769 -0.034156
v -0.807579 1.144769 -0.034156
v -1.114826 1.326558 -0.034156
v -0.807579 1.326558 -0.034156
v -1.114826 1.326558 -0.068086
v -0.807579 1.326558 -0.068086
v -1.114826 1.144769 -0.068086
v -0.807579 1.144769 -0.068086
v -0.997782 1.056037 0.010913
v -0.912320 1.056037 0.010913
v -0.982009 1.276575 -0.001212
v -0.928093 1.276575 -0.001212
v -0.982009 1.276575 -0.039981
v -0.928093 1.276575 -0.039981
v -0.997782 1.056037 -0.039981
v -0.912320 1.056037 -0.039981
v -0.997782 1.242893 0.010913
v -0.997782 1.242893 -0.039981
v -0.912320 1.242893 -0.039981
v -0.912320 1.242893 0.010913
v -1.652393 0.937851 -0.539465
v -1.665034 0.962661 -0.539465
v -1.684724 0.982351 -0.539465
v -1.709534 0.994992 -0.539465
v -1.737037 0.999348 -0.539465
v -1.737037 0.821348 -0.539465
v -1.709534 0.825704 -0.539465
v -1.684724 0.838346 -0.539465
v -1.665035 0.858035 -0.539465
v -1.652393 0.882846 -0.539465
v -1.648037 0.910348 -0.539465
v -1.652393 0.937851 -0.031440
v -1.665034 0.962661 -0.031440
v -1.684724 0.982351 -0.031440
v -1.709534 0.994992 -0.031440
v -1.737037 0.999348 -0.031440
v -1.737037 0.821348 -0.031440
v -1.709534 0.825704 -0.031440
v -1.684724 0.838346 -0.031440
v -1.665035 0.858035 -0.031440
v -1.652393 0.882846 -0.031440
v -1.648037 0.910348 -0.031440
v -3.174188 0.999348 -0.539465
v -3.201690 0.994992 -0.539465
v -3.201690 0.994992 -0.031440
v -3.174188 0.999348 -0.031440
v -3.226501 0.982351 -0.539465
v -3.226501 0.982351 -0.031440
v -3.246190 0.962661 -0.539465
v -3.246190 0.962661 -0.031440
v -3.258832 0.937851 -0.539465
v -3.258832 0.937851 -0.031440
v -3.263187 0.910348 -0.539465
v -3.263187 0.910348 -0.031440
v -3.258832 0.882846 -0.539465
v -3.258832 0.882846 -0.031440
v -3.246190 0.858035 -0.539465
v -3.246190 0.858035 -0.031440
v -3.226501 0.838346 -0.539465
v -3.226501 0.838346 -0.031440
v -3.201690 0.825704 -0.539465
v -3.201690 0.825704 -0.031440
v -3.174188 0.821348 -0.539465
v -3.174188 0.821348 -0.031440
v -3.283534 1.068389 -0.507290
v -3.283534 0.811281 -0.507290
v -1.638385 1.068389 -0.507290
v -1.638385 0.811281 -0.507290
v -1.638385 1.068389 -0.552320
v -1.638385 0.811281 -0.552320
v -3.283534 1.068389 -0.552320
v -3.283534 0.811281 -0.552320
v -3.283534 1.068389 -0.016644
v -3.283534 0.811281 -0.016644
v -1.638385 1.068389 -0.016644
v -1.638385 0.811281 -0.016644
v -1.638385 1.068389 -0.061675
v -1.638385 0.811281 -0.061675
v -3.283534 1.068389 -0.061675
v -3.283534 0.811281 -0.061675
v -3.066200 0.000000 -0.073833
v -2.953072 0.000000 -0.073833
v -3.066200 0.244413 -0.208657
v -2.953072 0.244413 -0.208657
v -3.066200 0.244413 -0.352515
v -2.953072 0.244413 -0.352515
v -3.066200 0.000000 -0.487339
v -2.953072 0.000000 -0.487339
v -2.953072 0.116225 -0.487339
v -3.066200 0.116225 -0.487339
v -3.066200 0.116225 -0.073833
v -2.953072 0.116225 -0.073833
v -3.066200 0.838024 -0.208657
v -2.953072 0.838024 -0.208657
v -2.953072 0.838024 -0.352515
v -3.066200 0.838024 -0.352515
vt 0.375000 0.000000
vt 0.625000 0.000000
vt 0.375000 0.250000
vt 0.625000 0.250000
vt 0.375000 0.500000
vt 0.625000 0.500000
vt 0.375000 0.750000
vt 0.625000 0.750000
vt 0.875000 0.000000
vt 0.875000 0.250000
vt 0.125000 0.000000
vt 0.125000 0.250000
vt 0.625000 0.560201
vt 0.875000 0.189799
vt 0.125000 0.189799
vt 0.375000 0.560201
vt 0.375000 0.189799
vt 0.625000 0.189799
vt 0.375000 0.500000
vt 0.625000 0.500000
vt 0.625000 0.560201
vt 0.375000 0.560201
vt 0.375000 0.000000
vt 0.625000 0.000000
vt 0.625000 0.055190
vt 0.375000 0.055190
vt 0.375000 0.250000
vt 0.625000 0.250000
vt 0.625000 0.500000
vt 0.375000 0.500000
vt 0.375000 0.694810
vt 0.625000 0.694810
vt 0.625000 0.750000
vt 0.375000 0.750000
vt 0.875000 0.000000
vt 0.875000 0.055190
vt 0.125000 0.000000
vt 0.125000 0.055190
vt 0.125000 0.250000
vt 0.875000 0.250000
vt 0.375000 0.000000
vt 0.625000 0.000000
vt 0.625000 0.250000
vt 0.375000 0.250000
vt 0.625000 0.500000
vt 0.375000 0.500000
vt 0.625000 0.750000
vt 0.375000 0.750000
vt 0.625000 1.000000
vt 0.375000 1.000000
vt 0.875000 0.000000
vt 0.875000 0.250000
vt 0.125000 0.000000
vt 0.125000 0.250000
vt 0.375000 0.000000
vt 0.625000 0.000000
vt 0.625000 0.211818
vt 0.375000 0.211818
vt 0.375000 0.250000
vt 0.625000 0.250000
vt 0.625000 0.500000
vt 0.375000 0.500000
vt 0.375000 0.538182
vt 0.625000 0.538182
vt 0.625000 0.750000
vt 0.375000 0.750000
vt 0.625000 1.000000
vt 0.375000 1.000000
vt 0.875000 0.000000
vt 0.875000 0.211818
vt 0.125000 0.000000
vt 0.125000 0.211818
vt 0.125000 0.250000
vt 0.875000 0.250000
vt 0.375000 0.312500
vt 0.387500 0.312500
vt 0.387500 0.688440
vt 0.375000 0.688440
vt 0.400000 0.312500
vt 0.400000 0.688440
vt 0.412500 0.312500
vt 0.412500 0.688440
vt 0.425000 0.312500
vt 0.425000 0.688440
vt 0.425000 0.312500
vt 0.437500 0.312500
vt 0.437500 0.688440
vt 0.425000 0.688440
vt 0.450000 0.312500
vt 0.450000 0.688440
vt 0.462500 0.312500
vt 0.462500 0.688440
vt 0.475000 0.312500
vt 0.475000 0.688440
vt 0.487500 0.312500
vt 0.487500 0.688440
vt 0.500000 0.312500
vt 0.500000 0.688440
vt 0.512500 0.312500
vt 0.512500 0.688440
vt 0.525000 0.312500
vt 0.525000 0.688440
vt 0.537500 0.312500
vt 0.537500 0.688440
vt 0.550000 0.312500
vt 0.550000 0.688440
vt 0.550000 0.312500
vt 0.562500 0.312500
vt 0.562500 0.688440
vt 0.550000 0.688440
vt 0.575000 0.312500
vt 0.575000 0.688440
vt 0.587500 0.312500
vt 0.587500 0.688440
vt 0.600000 0.312500
vt 0.600000 0.688440
vt 0.612500 0.312500
vt 0.612500 0.688440
vt 0.625000 0.312500
vt 0.625000 0.688440
vt 0.375000 0.000000
vt 0.625000 0.000000
vt 0.625000 0.250000
vt 0.375000 0.250000
vt 0.625000 0.500000
vt 0.375000 0.500000
vt 0.625000 0.750000
vt 0.375000 0.750000
vt 0.625000 1.000000
vt 0.375000 1.000000
vt 0.875000 0.000000
vt 0.875000 0.250000
vt 0.125000 0.000000
vt 0.125000 0.250000
vt 0.375000 0.000000
vt 0.625000 0.000000
vt 0.625000 0.250000
vt 0.375000 0.250000
vt 0.625000 0.500000
vt 0.375000 0.500000
vt 0.625000 0.750000
vt 0.375000 0.750000
vt 0.625000 1.000000
vt 0.375000 1.000000
vt 0.875000 0.000000
vt 0.875000 0.250000
vt 0.125000 0.000000
vt 0.125000 0.250000
vt 0.375000 0.118882
vt 0.625000 0.118882
vt 0.625000 0.250000
vt 0.375000 0.250000
vt 0.375000 0.500000
vt 0.625000 0.500000
vt 0.625000 0.631118
vt 0.375000 0.631118
vt 0.875000 0.118882
vt 0.875000 0.250000
vt 0.125000 0.118882
vt 0.125000 0.250000
vt 0.625000 0.750000
vt 0.375000 0.750000
vt 0.125000 0.000000
vt 0.375000 0.000000
vt 0.625000 0.000000
vt 0.875000 0.000000
vt 0.625000 0.250000
vt 0.375000 0.250000
vt 0.625000 0.500000
vt 0.375000 0.500000
vn 0.000000 0.000000 1.000000
vn 0.000000 0.000000 1.000000
vn 0.000000 0.000000 1.000000
vn 0.000000 0.000000 1.000000
vn 0.000000 1.000000 0.000000
vn 0.000000 1.000000 0.000000
vn 0.000000 1.000000 0.000000
vn 0.000000 1.000000 0.000000
vn 0.000000 0.000000 -1.000000
vn 0.000000 0.000000 -1.000000
vn 0.000000 0.000000 -1.000000
vn 0.000000 0.000000 -1.000000
vn 1.000000 0.000000 0.000000
vn 1.000000 0.000000 0.000000
vn 1.000000 0.000000 0.000000
vn 1.000000 0.000000 0.000000
vn -1.000000 0.000000 0.000000
vn -1.000000 0.000000 0.000000
vn -1.000000 0.000000 0.000000
vn -1.000000 0.000000 0.000000
vn 0.000000 0.000000 -1.000000
vn 0.000000 0.000000 -1.000000
vn 0.000000 0.000000 -1.000000
vn 0.000000 0.000000 -1.000000
vn -1.000000 0.000000 0.000000
vn -1.000000 0.000000 0.000000
vn 0.000000 0.000000 1.000000
vn 0.000000 0.000000 1.000000
vn 1.000000 0.000000 0.000000
vn 1.000000 0.000000 0.000000
vn 0.000000 1.000000 0.000000
vn 0.000000 1.000000 0.000000
vn 0.000000 1.000000 0.000000
vn 0.000000 1.000000 0.000000
vn 1.000000 0.000000 0.000000
vn 1.000000 0.000000 0.000000
vn 1.000000 0.000000 0.000000
vn 1.000000 0.000000 0.000000
vn 0.000000 -1.000000 0.000000
vn 0.000000 -1.000000 0.000000
vn 0.000000 -1.000000 0.000000
vn 0.000000 -1.000000 0.000000
vn -1.000000 0.000000 0.000000
vn -1.000000 0.000000 0.000000
vn -1.000000 0.000000 0.000000
vn -1.000000 0.000000 0.000000
vn 0.000000 0.000000 1.000000
vn 0.000000 0.000000 1.000000
vn 0.000000 0.000000 1.000000
vn 0.000000 0.000000 1.000000
vn 0.000000 1.000000 0.000000
vn 0.000000 1.000000 0.000000
vn 0.000000 1.000000 0.000000
vn 0.000000 1.000000 0.000000
vn 0.000000 0.793633 -0.608396
vn 0.000000 0.793633 -0.608396
vn 0.000000 0.169165 -0.985588
vn 0.000000 0.169165 -0.985588
vn 1.000000 -0.000003 0.000000
vn 1.000000 -0.000003 0.000000
vn 1.000000 -0.000001 0.000000
vn 1.000000 -0.000000 0.000000
vn -1.000000 0.000006 0.000000
vn -1.000000 0.000006 0.000000
vn -1.000000 0.000002 0.000000
vn -1.000000 0.000004 0.000000
vn 0.000000 0.000000 1.000000
vn 0.000000 0.000000 1.000000
vn -1.000000 0.000000 0.000000
vn -1.000000 0.000000 0.000000
vn 0.000000 0.851716 -0.524004
vn 0.000000 0.851716 -0.524004
vn 1.000000 0.000001 0.000000
vn 1.000000 0.000001 0.000000
vn 0.000000 0.000000 1.000000
vn 0.000000 0.000000 1.000000
vn 0.000000 0.000000 1.000000
vn 0.000000 0.000000 1.000000
vn 0.000000 1.000000 0.000000
vn 0.000000 1.000000 0.000000
vn 0.000000 1.000000 0.000000
vn 0.000000 1.000000 0.000000
vn 0.000000 0.000000 -1.000000
vn 0.000000 0.000000 -1.000000
vn 0.000000 0.000000 -1.000000
vn 0.000000 0.000000 -1.000000
vn 0.000000 -1.000000 0.000000
vn 0.000000 -1.000000 0.000000
vn 0.000000 -1.000000 0.000000
vn 0.000000 -1.000000 0.000000
vn 1.000000 0.000000 0.000000
vn 1.000000 0.000000 0.000000
vn 1.000000 0.000000 0.000000
vn 1.000000 0.000000 0.000000
vn -1.000000 0.000000 0.000000
vn -1.000000 0.000000 0.000000
vn -1.000000 0.000000 0.000000
vn -1.000000 0.000000 0.000000
vn 0.000000 0.000000 1.000000
vn 0.000000 0.000000 1.000000
vn 0.000000 0.035111 0.999383
vn 0.000000 0.035111 0.999383
vn 0.000000 1.000000 0.000000
vn 0.000000 1.000000 0.000000
vn 0.000000 1.000000 0.000000
vn 0.000000 1.000000 0.000000
vn 0.000000 0.000000 -1.000000
vn 0.000000 0.000000 -1.000000
vn 0.000000 0.000000 -1.000000
vn 0.000000 0.000000 -1.000000
vn 0.000000 -1.000000 0.000000
vn 0.000000 -1.000000 0.000000
vn 0.000000 -1.000000 0.000000
vn 0.000000 -1.000000 0.000000
vn 1.000000 0.000000 0.000000
vn 1.000000 0.000000 0.000000
vn 0.997948 0.064036 0.000000
vn 0.998612 0.052671 0.000000
vn -1.000000 0.000000 0.000000
vn -1.000000 0.000000 0.000000
vn -0.998612 0.052670 0.000000
vn -0.997948 0.064035 0.000000
vn -0.905623 0.424084 0.000000
vn -0.905623 0.424084 0.000000
vn 0.000000 0.000000 -1.000000
vn 0.000000 0.000000 -1.000000
vn 0.905622 0.424086 0.000000
vn 0.905622 0.424086 0.000000
vn 0.000000 0.338700 0.940894
vn 0.000000 0.338700 0.940894
vn 0.951056 0.309017 0.000000
vn 0.809016 0.587787 0.000000
vn 0.809016 0.587787 0.000000
vn 0.951056 0.309017 0.000000
vn 0.587786 0.809016 0.000000
vn 0.587786 0.809016 0.000000
vn 0.309017 0.951057 0.000000
vn 0.309017 0.951057 0.000000
vn 0.156434 0.987689 0.000000
vn 0.156434 0.987689 0.000000
vn -0.156434 0.987689 0.000000
vn -0.309018 0.951056 0.000000
vn -0.309018 0.951056 0.000000
vn -0.156434 0.987689 0.000000
vn -0.587786 0.809016 0.000000
vn -0.587786 0.809016 0.000000
vn -0.809018 0.587784 0.000000
vn -0.809018 0.587784 0.000000
vn -0.951058 0.309013 0.000000
vn -0.951058 0.309013 0.000000
vn -1.000000 0.000000 0.000000
vn -1.000000 0.000000 0.000000
vn -0.951058 -0.309013 0.000000
vn -0.951058 -0.309013 0.000000
vn -0.809018 -0.587784 0.000000
vn -0.809018 -0.587784 0.000000
vn -0.587786 -0.809017 0.000000
vn -0.587786 -0.809017 0.000000
vn -0.309017 -0.951057 0.000000
vn -0.309017 -0.951057 0.000000
vn -0.156434 -0.987689 0.000000
vn -0.156434 -0.987689 0.000000
vn 0.156434 -0.987689 0.000000
vn 0.309017 -0.951057 0.000000
vn 0.309017 -0.951057 0.000000
vn 0.156434 -0.987689 0.000000
vn 0.587787 -0.809016 0.000000
vn 0.587787 -0.809016 0.000000
vn 0.809017 -0.587786 0.000000
vn 0.809017 -0.587786 0.000000
vn 0.951056 -0.309019 0.000000
vn 0.951056 -0.309019 0.000000
vn 1.000000 -0.000002 0.000000
vn 1.000000 -0.000002 0.000000
vn 0.000000 1.000000 0.000000
vn 0.000000 1.000000 0.000000
vn 0.000000 1.000000 0.000000
vn 0.000000 1.000000 0.000000
vn 0.000000 -1.000000 0.000000
vn 0.000000 -1.000000 0.000000
vn 0.000000 -1.000000 0.000000
vn 0.000000 -1.000000 0.000000
vn 0.000000 0.000000 1.000000
vn 0.000000 0.000000 1.000000
vn 0.000000 0.000000 1.000000
vn 0.000000 0.000000 1.000000
vn 1.000000 0.000000 0.000000
vn 1.000000 0.000000 0.000000
vn 1.000000 0.000000 0.000000
vn 1.000000 0.000000 0.000000
vn -0.000000 0.000000 -1.000000
vn -0.000000 0.000000 -1.000000
vn -0.000000 0.000000 -1.000000
vn -0.000000 0.000000 -1.000000
vn -1.000000 0.000000 0.000000
vn -1.000000 0.000000 0.000000
vn -1.000000 0.000000 0.000000
vn -1.000000 0.000000 0.000000
vn 0.000000 -1.000000 0.000000
vn 0.000000 -1.000000 0.000000
vn 0.000000 -1.000000 0.000000
vn 0.000000 -1.000000 0.000000
vn 0.000000 1.000000 0.000000
vn 0.000000 1.000000 0.000000
vn 0.000000 1.000000 0.000000
vn 0.000000 1.000000 0.000000
vn 0.000000 0.000000 1.000000
vn 0.000000 0.000000 1.000000
vn 0.000000 0.000000 1.000000
vn 0.000000 0.000000 1.000000
vn 1.000000 0.000000 0.000000
vn 1.000000 0.000000 0.000000
vn 1.000000 0.000000 0.000000
vn 1.000000 0.000000 0.000000
vn -0.000000 0.000000 -1.000000
vn -0.000000 0.000000 -1.000000
vn -0.000000 0.000000 -1.000000
vn -0.000000 0.000000 -1.000000
vn -1.000000 0.000000 0.000000
vn -1.000000 0.000000 0.000000
vn -1.000000 0.000000 0.000000
vn -1.000000 0.000000 0.000000
vn 0.000000 -1.000000 0.000000
vn 0.000000 -1.000000 0.000000
vn 0.000000 -1.000000 0.000000
vn 0.000000 -1.000000 0.000000
vn 0.000000 1.000000 0.000000
vn 0.000000 1.000000 0.000000
vn 0.000000 1.000000 0.000000
vn 0.000000 1.000000 0.000000
vn 0.000000 0.483011 0.875615
vn 0.000000 0.483011 0.875615
vn 0.000000 0.724719 0.689045
vn 0.000000 0.724719 0.689045
vn 0.000000 0.724720 -0.689044
vn 0.000000 0.724720 -0.689044
vn 0.000000 0.483011 -0.875614
vn 0.000000 0.483011 -0.875614
vn 1.000000 0.000000 0.000000
vn 1.000000 0.000000 0.000000
vn 1.000000 0.000002 0.000000
vn 1.000000 0.000002 0.000000
vn -1.000000 0.000000 0.000000
vn -1.000000 0.000000 0.000000
vn -1.000000 0.000000 0.000000
vn -1.000000 0.000000 0.000000
vn 0.000000 0.000000 -1.000000
vn 0.000000 0.000000 -1.000000
vn -1.000000 0.000000 0.000000
vn -1.000000 0.000000 0.000000
vn 0.000000 0.000000 1.000000
vn 0.000000 0.000000 1.000000
vn 1.000000 0.000000 0.000000
vn 1.000000 0.000000 0.000000
vn 0.000000 0.000000 1.000000
vn 0.000000 0.000000 1.000000
vn 0.000000 0.000000 1.000000
vn 0.000000 0.000000 1.000000
vn 1.000000 0.000000 0.000000
vn 1.000000 0.000000 0.000000
vn 1.000000 0.000000 0.000000
vn 1.000000 0.000000 0.000000
vn 0.000000 0.000000 -1.000000
vn 0.000000 0.000000 -1.000000
vn 0.000000 0.000000 -1.000000
vn 0.000000 0.000000 -1.000000
vn -1.000000 0.000000 0.000000
vn -1.000000 0.000000 0.000000
vn -1.000000 0.000000 0.000000
vn -1.000000 0.000000 0.000000
s 1
g Estante_Caja
f 11/17/1 12/18/2 4/4/3 3/3/4
s off
f 3/3/5 4/4/6 6/6/7 5/5/8
f 13/19/9 14/20/10 15/21/11 16/22/12
s 2
f 12/18/13 9/14/14 6/10/15 4/4/16
s 3
f 10/15/17 11/17/18 3/3/19 5/12/20
s off
f 10/16/21 9/13/22 8/8/23 7/7/24
s 3
f 7/11/25 1/1/26 11/17/18 10/15/17
s 1
f 1/1/27 2/2/28 12/18/2 11/17/1
s 2
f 2/2/29 8/9/30 9/14/14 12/18/13
s off
f 5/5/31 6/6/32 14/20/33 13/19/34
f 6/6/35 9/13/36 15/21/37 14/20/38
f 9/13/39 10/16/40 16/22/41 15/21/42
f 10/16/43 5/5/44 13/19/45 16/22/46
s 4
f 17/23/47 18/24/48 25/25/49 26/26/50
s off
f 19/27/51 20/28/52 22/29/53 21/30/54
s 5
f 27/31/55 28/32/56 24/33/57 23/34/58
s 6
f 18/24/59 24/35/60 28/36/61 25/25/62
s 7
f 23/37/63 17/23/64 26/26/65 27/38/66
s 4
f 26/26/50 25/25/49 20/28/67 19/27/68
s 7
f 27/38/66 26/26/65 19/27/69 21/39/70
s 5
f 21/30/71 22/29/72 28/32/56 27/31/55
s 6
f 25/25/62 28/36/61 22/40/73 20/28/74
s off
f 29/41/75 30/42/76 32/43/77 31/44/78
f 31/44/79 32/43/80 34/45/81 33/46/82
f 33/46/83 34/45/84 36/47/85 35/48/86
f 35/48/87 36/47/88 30/49/89 29/50/90
f 30/42/91 36/51/92 34/52/93 32/43/94
f 35/53/95 29/41/96 31/44/97 33/54/98
s 8
f 37/55/99 38/56/100 48/57/101 45/58/102
s off
f 39/59/103 40/60/104 42/61/105 41/62/106
s 9
f 46/63/107 47/64/108 44/65/109 43/66/110
s off
f 43/66/111 44/65/112 38/67/113 37/68/114
s 10
f 38/56/115 44/69/116 47/70/117 48/57/118
s 11
f 43/71/119 37/55/120 45/58/121 46/72/122
f 46/72/122 45/58/121 39/59/123 41/73/124
s 9
f 41/62/125 42/61/126 47/64/108 46/63/107
s 10
f 48/57/118 47/70/117 42/74/127 40/60/128
s 8
f 45/58/102 48/57/101 40/60/129 39/59/130
s 12
f 49/75/131 50/76/132 61/77/133 60/78/134
f 50/76/132 51/79/135 62/80/136 61/77/133
f 51/79/135 52/81/137 63/82/138 62/80/136
f 52/81/137 53/83/139 64/84/140 63/82/138
s 13
f 71/85/141 72/86/142 73/87/143 74/88/144
f 72/86/142 75/89/145 76/90/146 73/87/143
f 75/89/145 77/91/147 78/92/148 76/90/146
f 77/91/147 79/93/149 80/94/150 78/92/148
f 79/93/149 81/95/151 82/96/152 80/94/150
f 81/95/151 83/97/153 84/98/154 82/96/152
f 83/97/153 85/99/155 86/100/156 84/98/154
f 85/99/155 87/101/157 88/102/158 86/100/156
f 87/101/157 89/103/159 90/104/160 88/102/158
f 89/103/159 91/105/161 92/106/162 90/104/160
s 12
f 54/107/163 55/108/164 66/109/165 65/110/166
f 55/108/164 56/111/167 67/112/168 66/109/165
f 56/111/167 57/113/169 68/114/170 67/112/168
f 57/113/169 58/115/171 69/116/172 68/114/170
f 58/115/171 59/117/173 70/118/174 69/116/172
f 59/117/173 49/119/131 60/120/134 70/118/174
s off
f 64/84/175 53/83/176 71/85/177 74/88/178
f 54/107/179 65/110/180 92/106/181 91/105/182
f 93/121/183 94/122/184 96/123/185 95/124/186
f 95/124/187 96/123/188 98/125/189 97/126/190
f 97/126/191 98/125/192 100/127/193 99/128/194
f 99/128/195 100/127/196 94/129/197 93/130/198
f 94/122/199 100/131/200 98/132/201 96/123/202
f 99/133/203 93/121/204 95/124/205 97/134/206
f 101/135/207 102/136/208 104/137/209 103/138/210
f 103/138/211 104/137/212 106/139/213 105/140/214
f 105/140/215 106/139/216 108/141/217 107/142/218
f 107/142/219 108/141/220 102/143/221 101/144/222
f 102/136/223 108/145/224 106/146/225 104/137/226
f 107/147/227 101/135/228 103/138/229 105/148/230
s 15
f 119/149/231 120/150/232 112/151/233 111/152/234
s 16
f 113/153/235 114/154/236 117/155/237 118/156/238
s 17
f 120/150/239 117/157/240 114/158/241 112/151/242
s 18
f 118/159/243 119/149/244 111/152/245 113/160/246
s 16
f 118/156/238 117/155/237 116/161/247 115/162/248
s 18
f 115/163/249 109/164/250 119/149/244 118/159/243
s 15
f 109/164/251 110/165/252 120/150/232 119/149/231
s 17
f 110/165/253 116/166/254 117/157/240 120/150/239
s off
f 111/152/255 112/151/256 122/167/257 121/168/258
f 112/151/259 114/154/260 123/169/261 122/167/262
f 114/154/263 113/153/264 124/170/265 123/169/266
f 113/153/267 111/152/268 121/168/269 124/170/270
