# This file uses centimeters as units for non-parametric coordinates.

g default
v -1.608078 0.000000 0.000000
v 0.000000 0.000000 0.000000
v -1.608078 1.000000 0.000000
v 0.000000 1.000000 0.000000
v -1.608078 1.000000 -0.230379
v 0.000000 1.000000 -0.230379
v -1.608078 0.000000 -0.230379
v 0.000000 0.000000 -0.230379
v 0.000000 0.861285 -0.230379
v -1.608078 0.861285 -0.230379
v -1.608078 0.861285 0.000000
v 0.000000 0.861285 0.000000
v -1.608078 1.000000 -0.566601
v 0.000000 1.000000 -0.566601
v 0.000000 0.861285 -0.566601
v -1.608078 0.861285 -0.566601
v -1.144125 0.993798 -0.012040
v -0.787229 0.993798 -0.012040
v -1.144125 1.100505 -0.012040
v -0.787229 1.100505 -0.012040
v -1.144125 1.100505 -0.110201
v -0.787229 1.100505 -0.110201
v -1.144125 0.993798 -0.249397
v -0.787229 0.993798 -0.249397
v -0.787229 1.017354 -0.012040
v -1.144125 1.017354 -0.012040
v -1.144125 1.017354 -0.245354
v -0.787229 1.017354 -0.245354
v -1.114826 1.144769 -0.034156
v -0.807579 1.144769 -0.034156
v -1.114826 1.326558 -0.034156
v -0.807579 1.326558 -0.034156
v -1.114826 1.326558 -0.068086
v -0.807579 1.326558 -0.068086
v -1.114826 1.144769 -0.068086
v -0.807579 1.144769 -0.068086
v -0.997782 1.056037 0.010913
v -0.912320 1.056037 0.010913
v -0.982009 1.276575 -0.001212
v -0.928093 1.276575 -0.001212
v -0.982009 1.276575 -0.039981
v -0.928093 1.276575 -0.039981
v -0.997782 1.056037 -0.039981
v -0.912320 1.056037 -0.039981
v -0.997782 1.242893 0.010913
v -0.997782 1.242893 -0.039981
v -0.912320 1.242893 -0.039981
v -0.912320 1.242893 0.010913
v -1.652393 0.937851 -0.539465
v -1.665034 0.962661 -0.539465
v -1.684724 0.982351 -0.539465
v -1.709534 0.994992 -0.539465
v -1.737037 0.999348 -0.539465
v -1.737037 0.821348 -0.539465
v -1.709534 0.825704 -0.539465
v -1.684724 0.838346 -0.539465
v -1.665035 0.858035 -0.539465
v -1.652393 0.882846 -0.539465
v -1.648037 0.910348 -0.539465
v -1.652393 0.937851 -0.031440
v -1.665034 0.962661 -0.031440
v -1.684724 0.982351 -0.031440
v -1.709534 0.994992 -0.031440
v -1.737037 0.999348 -0.031440
v -1.737037 0.821348 -0.031440
v -1.709534 0.825704 -0.031440
v -1.684724 0.838346 -0.031440
v -1.665035 0.858035 -0.031440
v -1.652393 0.882846 -0.031440
v -1.648037 0.910348 -0.031440
v -3.174188 0.999348 -0.539465
v -3.201690 0.994992 -0.539465
v -3.201690 0.994992 -0.031440
v -3.174188 0.999348 -0.031440
v -3.226501 0.982351 -0.539465
v -3.226501 0.982351 -0.031440
v -3.246190 0.962661 -0.539465
v -3.246190 0.962661 -0.031440
v -3.258832 0.937851 -0.539465
v -3.258832 0.937851 -0.031440
v -3.263187 0.910348 -0.539465
v -3.263187 0.910348 -0.031440
v -3.258832 0.882846 -0.539465
v -3.258832 0.882846 -0.031440
v -3.246190 0.858035 -0.539465
v -3.246190 0.858035 -0.031440
v -3.226501 0.838346 -0.539465
v -3.226501 0.838346 -0.031440
v -3.201690 0.825704 -0.539465
v -3.201690 0.825704 -0.031440
v -3.174188 0.821348 -0.539465
v -3.174188 0.821348 -0.031440
v -3.283534 1.068389 -0.507290
v -3.283534 0.811281 -0.507290
v -1.638385 1.068389 -0.507290
v -1.638385 0.811281 -0.507290
v -1.638385 1.068389 -0.552320
v -1.638385 0.811281 -0.552320
v -3.283534 1.068389 -0.552320
v -3.283534 0.811281 -0.552320
v -3.283534 1.068389 -0.016644
v -3.283534 0.811281 -0.016644
v -1.638385 1.068389 -0.016644
v -1.638385 0.811281 -0.016644
v -1.638385 1.068389 -0.061675
v -1.638385 0.811281 -0.061675
v -3.283534 1.068389 -0.061675
v -3.283534 0.811281 -0.061675
v -3.066200 0.000000 -0.073833
v -2.953072 0.000000 -0.073833
v -3.066200 0.244413 -0.208657
v -2.953072 0.244413 -0.208657
v -3.066200 0.244413 -0.352515
v -2.953072 0.244413 -0.352515
v -3.066200 0.000000 -0.487339
v -2.953072 0.000000 -0.487339
v -2.953072 0.116225 -0.487339
v -3.066200 0.116225 -0.487339
v -3.066200 0.116225 -0.073833
v -2.953072 0.116225 -0.073833
v -3.066200 0.838024 -0.208657
v -2.953072 0.838024 -0.208657
v -2.953072 0.838024 -0.352515
v -3.066200 0.838024 -0.352515
vt 0.375000 0.189799
vt 0.625000 0.189799
vt 0.220960 0.307864
vt 0.375000 0.250000
vt 0.220960 0.382426
vt 0.375000 0.500000
vt 0.375000 0.500000
vt 0.625000 0.500000
vt 0.220960 0.400380
vt 0.146398 0.400380
vt 0.295521 0.289909
vt 0.295521 0.307864
vt 0.125000 0.189799
vt 0.125000 0.250000
vt 0.375000 0.560201
vt 0.220960 0.400380
vt 0.220960 0.456987
vt 0.146398 0.456987
vt 0.125000 0.000000
vt 0.375000 0.000000
vt 0.625000 0.000000
vt 0.295521 0.233303
vt 0.375000 0.000000
vt 0.625000 0.000000
vt 0.625000 0.055190
vt 0.375000 0.055190
vt 0.375000 0.250000
vt 0.625000 0.250000
vt 0.625000 0.500000
vt 0.375000 0.500000
vt 0.375000 0.694810
vt 0.625000 0.694810
vt 0.625000 0.750000
vt 0.375000 0.750000
vt 0.875000 0.000000
vt 0.875000 0.055190
vt 0.125000 0.000000
vt 0.125000 0.055190
vt 0.125000 0.250000
vt 0.875000 0.250000
vt 0.375000 0.000000
vt 0.625000 0.000000
vt 0.625000 0.250000
vt 0.375000 0.250000
vt 0.625000 0.500000
vt 0.375000 0.500000
vt 0.625000 0.750000
vt 0.375000 0.750000
vt 0.625000 1.000000
vt 0.375000 1.000000
vt 0.875000 0.000000
vt 0.875000 0.250000
vt 0.125000 0.000000
vt 0.125000 0.250000
vt 0.375000 0.000000
vt 0.625000 0.000000
vt 0.625000 0.211818
vt 0.375000 0.211818
vt 0.375000 0.250000
vt 0.625000 0.250000
vt 0.625000 0.500000
vt 0.375000 0.500000
vt 0.375000 0.538182
vt 0.625000 0.538182
vt 0.625000 0.750000
vt 0.375000 0.750000
vt 0.625000 1.000000
vt 0.375000 1.000000
vt 0.875000 0.000000
vt 0.875000 0.211818
vt 0.125000 0.000000
vt 0.125000 0.211818
vt 0.125000 0.250000
vt 0.875000 0.250000
vt 0.375000 0.312500
vt 0.387500 0.312500
vt 0.387500 0.688440
vt 0.375000 0.688440
vt 0.400000 0.312500
vt 0.400000 0.688440
vt 0.412500 0.312500
vt 0.412500 0.688440
vt 0.425000 0.312500
vt 0.425000 0.688440
vt 0.425000 0.312500
vt 0.437500 0.312500
vt 0.437500 0.688440
vt 0.425000 0.688440
vt 0.450000 0.312500
vt 0.450000 0.688440
vt 0.462500 0.312500
vt 0.462500 0.688440
vt 0.475000 0.312500
vt 0.475000 0.688440
vt 0.487500 0.312500
vt 0.487500 0.688440
vt 0.500000 0.312500
vt 0.500000 0.688440
vt 0.512500 0.312500
vt 0.512500 0.688440
vt 0.525000 0.312500
vt 0.525000 0.688440
vt 0.537500 0.312500
vt 0.537500 0.688440
vt 0.550000 0.312500
vt 0.550000 0.688440
vt 0.550000 0.312500
vt 0.562500 0.312500
vt 0.562500 0.688440
vt 0.550000 0.688440
vt 0.575000 0.312500
vt 0.575000 0.688440
vt 0.587500 0.312500
vt 0.587500 0.688440
vt 0.600000 0.312500
vt 0.600000 0.688440
vt 0.612500 0.312500
vt 0.612500 0.688440
vt 0.625000 0.312500
vt 0.625000 0.688440
vt 0.375000 0.000000
vt 0.625000 0.000000
vt 0.625000 0.250000
vt 0.375000 0.250000
vt 0.625000 0.500000
vt 0.146398 0.382426
vt 0.220960 0.456987
vt 0.375000 0.750000
vt 0.625000 1.000000
vt 0.375000 1.000000
vt 0.875000 0.000000
vt 0.875000 0.250000
vt 0.125000 0.000000
vt 0.125000 0.250000
vt 0.375000 0.000000
vt 0.625000 0.000000
vt 0.625000 0.250000
vt 0.375000 0.250000
vt 0.625000 0.500000
vt 0.375000 0.500000
vt 0.625000 0.750000
vt 0.375000 0.750000
vt 0.625000 1.000000
vt 0.375000 1.000000
vt 0.875000 0.000000
vt 0.875000 0.250000
vt 0.125000 0.000000
vt 0.125000 0.250000
vt 0.375000 0.118882
vt 0.625000 0.118882
vt 0.625000 0.250000
vt 0.375000 0.250000
vt 0.375000 0.500000
vt 0.220960 0.382426
vt 0.220960 0.421531
vt 0.146398 0.421531
vt 0.875000 0.118882
vt 0.875000 0.250000
vt 0.125000 0.118882
vt 0.125000 0.250000
vt 0.220960 0.456987
vt 0.146398 0.456987
vt 0.125000 0.000000
vt 0.375000 0.000000
vt 0.625000 0.000000
vt 0.875000 0.000000
vt 0.625000 0.250000
vt 0.375000 0.250000
vt 0.220960 0.382426
vt 0.375000 0.500000
vt 0.146398 0.382426
vt 0.146398 0.382426
vt 0.625000 0.500000
vt 0.625000 0.500000
vt 0.146398 0.456987
vt 0.375000 0.500000
vt 0.625000 0.750000
vt 0.220960 0.382426
vt 0.146398 0.400380
vt 0.375000 0.560201
vt 0.625000 0.500000
vt 0.220960 0.382426
vt 0.220960 0.233303
vt 0.220960 0.289909
vt 0.146398 0.382426
vt 0.625000 0.250000
vn 0.000000 0.000000 1.000000
vn 0.000000 0.000000 1.000000
vn 0.000000 0.000000 1.000000
vn 0.000000 0.000000 1.000000
vn 0.000000 1.000000 0.000000
vn 0.000000 1.000000 0.000000
vn 0.000000 1.000000 0.000000
vn 0.000000 1.000000 0.000000
vn 0.000000 0.000000 -1.000000
vn 0.000000 0.000000 -1.000000
vn 0.000000 0.000000 -1.000000
vn 0.000000 0.000000 -1.000000
vn 1.000000 0.000000 0.000000
vn 1.000000 0.000000 0.000000
vn 1.000000 0.000000 0.000000
vn 1.000000 0.000000 0.000000
vn -1.000000 0.000000 0.000000
vn -1.000000 0.000000 0.000000
vn -1.000000 0.000000 0.000000
vn -1.000000 0.000000 0.000000
vn 0.000000 0.000000 -1.000000
vn 0.000000 0.000000 -1.000000
vn 0.000000 0.000000 -1.000000
vn 0.000000 0.000000 -1.000000
vn -1.000000 0.000000 0.000000
vn -1.000000 0.000000 0.000000
vn -1.000000 0.000000 0.000000
vn -1.000000 0.000000 0.000000
vn 0.000000 0.000000 1.000000
vn 0.000000 0.000000 1.000000
vn 0.000000 0.000000 1.000000
vn 0.000000 0.000000 1.000000
vn 1.000000 0.000000 0.000000
vn 1.000000 0.000000 0.000000
vn 1.000000 0.000000 0.000000
vn 1.000000 0.000000 0.000000
vn 0.000000 1.000000 0.000000
vn 0.000000 1.000000 0.000000
vn 0.000000 1.000000 0.000000
vn 0.000000 1.000000 0.000000
vn 1.000000 0.000000 0.000000
vn 1.000000 0.000000 0.000000
vn 1.000000 0.000000 0.000000
vn 1.000000 0.000000 0.000000
vn 0.000000 -1.000000 0.000000
vn 0.000000 -1.000000 0.000000
vn 0.000000 -1.000000 0.000000
vn 0.000000 -1.000000 0.000000
vn -1.000000 0.000000 0.000000
vn -1.000000 0.000000 0.000000
vn -1.000000 0.000000 0.000000
vn -1.000000 0.000000 0.000000
vn 0.000000 0.000000 1.000000
vn 0.000000 0.000000 1.000000
vn 0.000000 0.000000 1.000000
vn 0.000000 0.000000 1.000000
vn 0.000000 1.000000 0.000000
vn 0.000000 1.000000 0.000000
vn 0.000000 1.000000 0.000000
vn 0.000000 1.000000 0.000000
vn 0.000000 0.793633 -0.608396
vn 0.000000 0.793633 -0.608396
vn 0.000000 0.169165 -0.985588
vn 0.000000 0.169165 -0.985588
vn 1.000000 -0.000003 0.000000
vn 1.000000 -0.000003 0.000000
vn 1.000000 -0.000001 0.000000
vn 1.000000 -0.000000 0.000000
vn -1.000000 0.000006 0.000000
vn -1.000000 0.000006 0.000000
vn -1.000000 0.000002 0.000000
vn -1.000000 0.000004 0.000000
vn 0.000000 0.000000 1.000000
vn 0.000000 0.000000 1.000000
vn 0.000000 0.000000 1.000000
vn 0.000000 0.000000 1.000000
vn -1.000000 0.000004 0.000000
vn -1.000000 0.000002 0.000000
vn -1.000000 0.000000 0.000000
vn -1.000000 0.000000 0.000000
vn 0.000000 0.851716 -0.524004
vn 0.000000 0.851716 -0.524004
vn 0.000000 0.793633 -0.608396
vn 0.000000 0.793633 -0.608396
vn 1.000000 -0.000000 0.000000
vn 1.000000 -0.000001 0.000000
vn 1.000000 0.000001 0.000000
vn 1.000000 0.000001 0.000000
vn 0.000000 0.000000 1.000000
vn 0.000000 0.000000 1.000000
vn 0.000000 0.000000 1.000000
vn 0.000000 0.000000 1.000000
vn 0.000000 1.000000 0.000000
vn 0.000000 1.000000 0.000000
vn 0.000000 1.000000 0.000000
vn 0.000000 1.000000 0.000000
vn 0.000000 0.000000 -1.000000
vn 0.000000 0.000000 -1.000000
vn 0.000000 0.000000 -1.000000
vn 0.000000 0.000000 -1.000000
vn 0.000000 -1.000000 0.000000
vn 0.000000 -1.000000 0.000000
vn 0.000000 -1.000000 0.000000
vn 0.000000 -1.000000 0.000000
vn 1.000000 0.000000 0.000000
vn 1.000000 0.000000 0.000000
vn 1.000000 0.000000 0.000000
vn 1.000000 0.000000 0.000000
vn -1.000000 0.000000 0.000000
vn -1.000000 0.000000 0.000000
vn -1.000000 0.000000 0.000000
vn -1.000000 0.000000 0.000000
vn 0.000000 0.000000 1.000000
vn 0.000000 0.000000 1.000000
vn 0.000000 0.035111 0.999383
vn 0.000000 0.035111 0.999383
vn 0.000000 1.000000 0.000000
vn 0.000000 1.000000 0.000000
vn 0.000000 1.000000 0.000000
vn 0.000000 1.000000 0.000000
vn 0.000000 0.000000 -1.000000
vn 0.000000 0.000000 -1.000000
vn 0.000000 0.000000 -1.000000
vn 0.000000 0.000000 -1.000000
vn 0.000000 -1.000000 0.000000
vn 0.000000 -1.000000 0.000000
vn 0.000000 -1.000000 0.000000
vn 0.000000 -1.000000 0.000000
vn 1.000000 0.000000 0.000000
vn 1.000000 0.000000 0.000000
vn 0.997948 0.064036 0.000000
vn 0.998612 0.052671 0.000000
vn -1.000000 0.000000 0.000000
vn -1.000000 0.000000 0.000000
vn -0.998612 0.052670 0.000000
vn -0.997948 0.064035 0.000000
vn -0.997948 0.064035 0.000000
vn -0.998612 0.052670 0.000000
vn -0.905623 0.424084 0.000000
vn -0.905623 0.424084 0.000000
vn 0.000000 0.000000 -1.000000
vn 0.000000 0.000000 -1.000000
vn 0.000000 0.000000 -1.000000
vn 0.000000 0.000000 -1.000000
vn 0.998612 0.052671 0.000000
vn 0.997948 0.064036 0.000000
vn 0.905622 0.424086 0.000000
vn 0.905622 0.424086 0.000000
vn 0.000000 0.035111 0.999383
vn 0.000000 0.035111 0.999383
vn 0.000000 0.338700 0.940894
vn 0.000000 0.338700 0.940894
vn 0.951056 0.309017 0.000000
vn 0.809016 0.587787 0.000000
vn 0.809016 0.587787 0.000000
vn 0.951056 0.309017 0.000000
vn 0.809016 0.587787 0.000000
vn 0.587786 0.809016 0.000000
vn 0.587786 0.809016 0.000000
vn 0.809016 0.587787 0.000000
vn 0.587786 0.809016 0.000000
vn 0.309017 0.951057 0.000000
vn 0.309017 0.951057 0.000000
vn 0.587786 0.809016 0.000000
vn 0.309017 0.951057 0.000000
vn 0.156434 0.987688 0.000000
vn 0.156434 0.987688 0.000000
vn 0.309017 0.951057 0.000000
vn -0.156434 0.987688 0.000000
vn -0.309018 0.951056 0.000000
vn -0.309018 0.951056 0.000000
vn -0.156434 0.987688 0.000000
vn -0.309018 0.951056 0.000000
vn -0.587786 0.809016 0.000000
vn -0.587786 0.809016 0.000000
vn -0.309018 0.951056 0.000000
vn -0.587786 0.809016 0.000000
vn -0.809018 0.587784 0.000000
vn -0.809018 0.587784 0.000000
vn -0.587786 0.809016 0.000000
vn -0.809018 0.587784 0.000000
vn -0.951058 0.309013 0.000000
vn -0.951058 0.309013 0.000000
vn -0.809018 0.587784 0.000000
vn -0.951058 0.309013 0.000000
vn -1.000000 0.000000 0.000000
vn -1.000000 0.000000 0.000000
vn -0.951058 0.309013 0.000000
vn -1.000000 0.000000 0.000000
vn -0.951058 -0.309013 0.000000
vn -0.951058 -0.309013 0.000000
vn -1.000000 0.000000 0.000000
vn -0.951058 -0.309013 0.000000
vn -0.809018 -0.587784 0.000000
vn -0.809018 -0.587784 0.000000
vn -0.951058 -0.309013 0.000000
vn -0.809018 -0.587784 0.000000
vn -0.587786 -0.809017 0.000000
vn -0.587786 -0.809017 0.000000
vn -0.809018 -0.587784 0.000000
vn -0.587786 -0.809017 0.000000
vn -0.309017 -0.951057 0.000000
vn -0.309017 -0.951057 0.000000
vn -0.587786 -0.809017 0.000000
vn -0.309017 -0.951057 0.000000
vn -0.156434 -0.987688 0.000000
vn -0.156434 -0.987688 0.000000
vn -0.309017 -0.951057 0.000000
vn 0.156434 -0.987688 0.000000
vn 0.309017 -0.951057 0.000000
vn 0.309017 -0.951057 0.000000
vn 0.156434 -0.987688 0.000000
vn 0.309017 -0.951057 0.000000
vn 0.587787 -0.809016 0.000000
vn 0.587787 -0.809016 0.000000
vn 0.309017 -0.951057 0.000000
vn 0.587787 -0.809016 0.000000
vn 0.809017 -0.587786 0.000000
vn 0.809017 -0.587786 0.000000
vn 0.587787 -0.809016 0.000000
vn 0.809017 -0.587786 0.000000
vn 0.951056 -0.309019 0.000000
vn 0.951056 -0.309019 0.000000
vn 0.809017 -0.587786 0.000000
vn 0.951056 -0.309019 0.000000
vn 1.000000 -0.000002 0.000000
vn 1.000000 -0.000002 0.000000
vn 0.951056 -0.309019 0.000000
vn 1.000000 -0.000002 0.000000
vn 0.951056 0.309017 0.000000
vn 0.951056 0.309017 0.000000
vn 1.000000 -0.000002 0.000000
vn 0.000000 1.000000 0.000000
vn 0.000000 1.000000 0.000000
vn 0.000000 1.000000 0.000000
vn 0.000000 1.000000 0.000000
vn 0.000000 -1.000000 0.000000
vn 0.000000 -1.000000 0.000000
vn 0.000000 -1.000000 0.000000
vn 0.000000 -1.000000 0.000000
vn 0.000000 0.000000 1.000000
vn 0.000000 0.000000 1.000000
vn 0.000000 0.000000 1.000000
vn 0.000000 0.000000 1.000000
vn 1.000000 0.000000 0.000000
vn 1.000000 0.000000 0.000000
vn 1.000000 0.000000 0.000000
vn 1.000000 0.000000 0.000000
vn -0.000000 0.000000 -1.000000
vn -0.000000 0.000000 -1.000000
vn -0.000000 0.000000 -1.000000
vn -0.000000 0.000000 -1.000000
vn -1.000000 0.000000 0.000000
vn -1.000000 0.000000 0.000000
vn -1.000000 0.000000 0.000000
vn -1.000000 0.000000 0.000000
vn 0.000000 -1.000000 0.000000
vn 0.000000 -1.000000 0.000000
vn 0.000000 -1.000000 0.000000
vn 0.000000 -1.000000 0.000000
vn 0.000000 1.000000 0.000000
vn 0.000000 1.000000 0.000000
vn 0.000000 1.000000 0.000000
vn 0.000000 1.000000 0.000000
vn 0.000000 0.000000 1.000000
vn 0.000000 0.000000 1.000000
vn 0.000000 0.000000 1.000000
vn 0.000000 0.000000 1.000000
vn 1.000000 0.000000 0.000000
vn 1.000000 0.000000 0.000000
vn 1.000000 0.000000 0.000000
vn 1.000000 0.000000 0.000000
vn -0.000000 0.000000 -1.000000
vn -0.000000 0.000000 -1.000000
vn -0.000000 0.000000 -1.000000
vn -0.000000 0.000000 -1.000000
vn -1.000000 0.000000 0.000000
vn -1.000000 0.000000 0.000000
vn -1.000000 0.000000 0.000000
vn -1.000000 0.000000 0.000000
vn 0.000000 -1.000000 0.000000
vn 0.000000 -1.000000 0.000000
vn 0.000000 -1.000000 0.000000
vn 0.000000 -1.000000 0.000000
vn 0.000000 1.000000 0.000000
vn 0.000000 1.000000 0.000000
vn 0.000000 1.000000 0.000000
vn 0.000000 1.000000 0.000000
vn 0.000000 0.483011 0.875614
vn 0.000000 0.483011 0.875614
vn 0.000000 0.724719 0.689045
vn 0.000000 0.724719 0.689045
vn 0.000000 0.724720 -0.689044
vn 0.000000 0.724720 -0.689044
vn 0.000000 0.483011 -0.875614
vn 0.000000 0.483011 -0.875614
vn 1.000000 0.000000 0.000000
vn 1.000000 0.000000 0.000000
vn 1.000000 0.000002 0.000000
vn 1.000000 0.000002 0.000000
vn -1.000000 0.000000 0.000000
vn -1.000000 0.000000 0.000000
vn -1.000000 0.000000 0.000000
vn -1.000000 0.000000 0.000000
vn 0.000000 0.483011 -0.875614
vn 0.000000 0.483011 -0.875614
vn 0.000000 0.000000 -1.000000
vn 0.000000 0.000000 -1.000000
vn -1.000000 0.000000 0.000000
vn -1.000000 0.000000 0.000000
vn -1.000000 0.000000 0.000000
vn -1.000000 0.000000 0.000000
vn 0.000000 0.000000 1.000000
vn 0.000000 0.000000 1.000000
vn 0.000000 0.483011 0.875614
vn 0.000000 0.483011 0.875614
vn 1.000000 0.000000 0.000000
vn 1.000000 0.000000 0.000000
vn 1.000000 0.000000 0.000000
vn 1.000000 0.000000 0.000000
vn 0.000000 0.000000 1.000000
vn 0.000000 0.000000 1.000000
vn 0.000000 0.000000 1.000000
vn 0.000000 0.000000 1.000000
vn 1.000000 0.000000 0.000000
vn 1.000000 0.000000 0.000000
vn 1.000000 0.000000 0.000000
vn 1.000000 0.000000 0.000000
vn 0.000000 0.000000 -1.000000
vn 0.000000 0.000000 -1.000000
vn 0.000000 0.000000 -1.000000
vn 0.000000 0.000000 -1.000000
vn -1.000000 0.000000 0.000000
vn -1.000000 0.000000 0.000000
vn -1.000000 0.000000 0.000000
vn -1.000000 0.000000 0.000000
s off
g Estante_Caja:Estante_Caja
f 11/1/1 12/2/2 4/186/3 3/4/4
f 3/4/5 4/186/6 6/181/7 5/6/8
f 13/185/9 14/182/10 15/9/11 16/10/12
f 12/184/13 9/11/14 6/12/15 4/3/16
f 10/13/17 11/1/18 3/4/19 5/14/20
f 10/179/21 9/16/22 8/17/23 7/18/24
f 7/19/25 1/20/26 11/1/27 10/13/28
f 1/20/29 2/21/30 12/2/31 11/1/32
f 2/183/33 8/22/34 9/11/35 12/184/36
f 5/6/37 6/181/38 14/8/39 13/7/40
f 6/5/41 9/16/42 15/9/43 14/182/44
f 9/16/45 10/179/46 16/10/47 15/9/48
f 10/15/49 5/6/50 13/7/51 16/180/52
f 17/23/53 18/24/54 25/25/55 26/26/56
f 19/27/57 20/28/58 22/29/59 21/30/60
f 27/31/61 28/32/62 24/33/63 23/34/64
f 18/24/65 24/35/66 28/36/67 25/25/68
f 23/37/69 17/23/70 26/26/71 27/38/72
f 26/26/73 25/25/74 20/28/75 19/27/76
f 27/38/77 26/26/78 19/27/79 21/39/80
f 21/30/81 22/29/82 28/32/83 27/31/84
f 25/25/85 28/36/86 22/40/87 20/28/88
f 29/41/89 30/42/90 32/43/91 31/44/92
f 31/44/93 32/43/94 34/45/95 33/46/96
f 33/46/97 34/45/98 36/47/99 35/48/100
f 35/48/101 36/47/102 30/49/103 29/50/104
f 30/42/105 36/51/106 34/52/107 32/43/108
f 35/53/109 29/41/110 31/44/111 33/54/112
f 37/55/113 38/56/114 48/57/115 45/58/116
f 39/59/117 40/60/118 42/61/119 41/62/120
f 46/63/121 47/64/122 44/65/123 43/66/124
f 43/66/125 44/65/126 38/67/127 37/68/128
f 38/56/129 44/69/130 47/70/131 48/57/132
f 43/71/133 37/55/134 45/58/135 46/72/136
f 46/72/137 45/58/138 39/59/139 41/73/140
f 41/62/141 42/61/142 47/64/143 46/63/144
f 48/57/145 47/70/146 42/74/147 40/60/148
f 45/58/149 48/57/150 40/60/151 39/59/152
f 49/75/153 50/76/154 61/77/155 60/78/156
f 50/76/157 51/79/158 62/80/159 61/77/160
f 51/79/161 52/81/162 63/82/163 62/80/164
f 52/81/165 53/83/166 64/84/167 63/82/168
f 71/85/169 72/86/170 73/87/171 74/88/172
f 72/86/173 75/89/174 76/90/175 73/87/176
f 75/89/177 77/91/178 78/92/179 76/90/180
f 77/91/181 79/93/182 80/94/183 78/92/184
f 79/93/185 81/95/186 82/96/187 80/94/188
f 81/95/189 83/97/190 84/98/191 82/96/192
f 83/97/193 85/99/194 86/100/195 84/98/196
f 85/99/197 87/101/198 88/102/199 86/100/200
f 87/101/201 89/103/202 90/104/203 88/102/204
f 89/103/205 91/105/206 92/106/207 90/104/208
f 54/107/209 55/108/210 66/109/211 65/110/212
f 55/108/213 56/111/214 67/112/215 66/109/216
f 56/111/217 57/113/218 68/114/219 67/112/220
f 57/113/221 58/115/222 69/116/223 68/114/224
f 58/115/225 59/117/226 70/118/227 69/116/228
f 59/117/229 49/119/230 60/120/231 70/118/232
f 64/84/233 53/83/234 71/85/235 74/88/236
f 54/107/237 65/110/238 92/106/239 91/105/240
f 93/121/241 94/122/242 96/123/243 95/124/244
f 95/124/245 96/123/246 98/125/247 97/176/248
f 97/126/249 98/178/250 100/127/251 99/175/252
f 99/128/253 100/177/254 94/129/255 93/130/256
f 94/122/257 100/131/258 98/132/259 96/123/260
f 99/133/261 93/121/262 95/124/263 97/134/264
f 101/135/265 102/136/266 104/137/267 103/138/268
f 103/138/269 104/137/270 106/139/271 105/140/272
f 105/140/273 106/139/274 108/141/275 107/142/276
f 107/142/277 108/141/278 102/143/279 101/144/280
f 102/136/281 108/145/282 106/146/283 104/137/284
f 107/147/285 101/135/286 103/138/287 105/148/288
f 119/149/289 120/150/290 112/151/291 111/152/292
f 113/171/293 114/154/294 117/155/295 118/156/296
f 120/150/297 117/157/298 114/158/299 112/151/300
f 118/159/301 119/149/302 111/152/303 113/160/304
f 118/156/305 117/155/306 116/161/307 115/162/308
f 115/163/309 109/164/310 119/149/311 118/159/312
f 109/164/313 110/165/314 120/150/315 119/149/316
f 110/165/317 116/166/318 117/157/319 120/150/320
f 111/152/321 112/151/322 122/167/323 121/168/324
f 112/151/325 114/173/326 123/174/327 122/167/328
f 114/154/329 113/171/330 124/172/331 123/169/332
f 113/153/333 111/152/334 121/168/335 124/170/336
