# This file uses centimeters as units for non-parametric coordinates.

g default
v 0.000000 0.000000 0.000000
v 0.000000 0.000000 -1.000000
v 0.000000 1.219545 -0.475680
v 0.000000 1.219545 -0.524320
v -2.000000 1.219545 -0.475680
v -2.000000 1.219545 -0.524320
v -2.000000 0.000000 0.000000
v -2.000000 0.000000 -1.000000
v 0.000000 0.730409 -1.000000
v 0.000000 0.730409 0.000000
v -2.000000 0.730409 0.000000
v -2.000000 0.730409 -1.000000
v 0.000000 0.927064 -0.535045
v 0.000000 0.927064 -0.464955
v -2.000000 0.927064 -0.464955
v -2.000000 0.927064 -0.535045
v -0.060000 0.753144 -0.053753
v -1.940000 0.753144 -0.053753
v -0.060000 0.904328 -0.411202
v -1.940000 0.904328 -0.411202
v -1.940000 0.753144 -0.946247
v -0.060000 0.753144 -0.946247
v -1.940000 0.904328 -0.588798
v -0.060000 0.904328 -0.588798
v -0.060000 0.489412 -0.053753
v -1.940000 0.489412 -0.053753
v -0.060000 0.489414 -0.411202
v -1.940000 0.489414 -0.411202
v -1.940000 0.489412 -0.946247
v -0.060000 0.489412 -0.946247
v -1.940000 0.489414 -0.588798
v -0.060000 0.489414 -0.588798
vt 0.272680 0.216869
vt 0.333193 0.216869
vt 0.273731 0.865823
vt 0.333193 0.277382
vt 0.272680 0.337894
vt 0.367799 0.439863
vt 0.272680 0.398407
vt 0.333193 0.398407
vt 0.393705 0.216869
vt 0.773731 0.865823
vt 0.212168 0.216869
vt 0.023731 0.865823
vt 0.512374 0.819043
vt 0.510147 0.673015
vt 0.507921 0.526987
vt 0.272680 0.368865
vt 0.333193 0.368865
vt 0.514600 0.965072
vt 0.489853 0.819387
vt 0.487626 0.673359
vt 0.485400 0.527330
vt 0.272680 0.359532
vt 0.333193 0.359532
vt 0.492079 0.965415
vt 0.099841 0.206124
vt 0.103288 0.301422
vt 0.088590 0.301954
vt 0.085144 0.206655
vt 0.106734 0.396721
vt 0.110181 0.492019
vt 0.095483 0.492551
vt 0.092037 0.397252
vt 0.099841 0.206124
vt 0.103288 0.301422
vt 0.088590 0.301954
vt 0.085144 0.206655
vt 0.106734 0.396721
vt 0.110181 0.492019
vt 0.095483 0.492551
vt 0.092037 0.397252
vt 0.333193 0.337894
vt 0.238074 0.439863
vt 0.238074 0.310137
vt 0.272680 0.277382
vt 0.272680 0.255744
vt 0.333193 0.255744
vt 0.367799 0.310137
vt 0.523731 0.865823
vt 0.212168 0.246411
vt 0.393705 0.246411
vt 0.272680 0.246411
vt 0.333193 0.246411
vt 0.512374 0.819043
vt 0.489853 0.819387
vt 0.492079 0.965415
vt 0.514600 0.965072
vt 0.507921 0.526987
vt 0.485400 0.527330
vt 0.487626 0.673359
vt 0.510147 0.673015
vt 0.523731 0.776427
vt 0.773731 0.776427
vt 0.023731 0.776427
vt 0.273731 0.776427
vn 1.000000 0.000000 0.000000
vn 1.000000 0.000000 0.000000
vn 1.000000 0.000000 0.000000
vn 1.000000 0.000000 0.000000
vn 0.000000 1.000000 0.000000
vn 0.000000 1.000000 0.000000
vn 0.000000 1.000000 0.000000
vn 0.000000 1.000000 0.000000
vn -1.000000 0.000000 0.000000
vn -1.000000 0.000000 0.000000
vn -1.000000 0.000000 0.000000
vn -1.000000 0.000000 0.000000
vn 0.000000 0.000000 -1.000000
vn 0.000000 0.000000 -1.000000
vn 0.000000 0.000000 -1.000000
vn 0.000000 0.000000 -1.000000
vn 0.000000 0.000000 1.000000
vn 0.000000 0.000000 1.000000
vn 0.000000 0.000000 1.000000
vn 0.000000 0.000000 1.000000
vn 1.000000 0.000000 0.000000
vn 1.000000 0.000000 0.000000
vn 1.000000 0.000000 0.000000
vn 1.000000 0.000000 0.000000
vn 0.000000 1.000000 0.000006
vn 0.000000 1.000000 0.000006
vn 0.000000 1.000000 0.000006
vn 0.000000 1.000000 0.000006
vn -1.000000 -0.000001 0.000000
vn -1.000000 -0.000001 0.000000
vn -1.000000 0.000000 0.000000
vn -1.000000 0.000000 0.000000
vn 0.000000 1.000000 -0.000006
vn 0.000000 1.000000 -0.000006
vn 0.000000 1.000000 -0.000006
vn 0.000000 1.000000 -0.000006
vn 1.000000 0.000000 0.000000
vn 1.000000 0.000000 0.000000
vn 1.000000 0.000000 0.000000
vn 1.000000 0.000000 0.000000
vn 0.000000 0.036645 0.999328
vn 0.000000 0.036645 0.999328
vn 0.000000 0.036645 0.999328
vn 0.000000 0.036645 0.999328
vn -1.000000 0.000000 0.000000
vn -1.000000 0.000000 0.000000
vn -1.000000 -0.000001 0.000000
vn -1.000000 -0.000001 0.000000
vn 0.000000 0.036645 -0.999328
vn 0.000000 0.036645 -0.999328
vn 0.000000 0.036645 -0.999328
vn 0.000000 0.036645 -0.999328
vn 0.000000 0.921008 0.389545
vn 0.000000 0.921008 0.389545
vn 0.000000 0.921008 0.389545
vn 0.000000 0.921008 0.389545
vn 0.000000 0.921008 0.389545
vn 0.000000 0.921008 0.389545
vn 0.000000 0.921008 0.389545
vn 0.000000 0.921008 0.389545
vn 0.000000 0.921008 0.389545
vn 0.000000 0.921008 0.389545
vn 0.000000 0.921008 0.389545
vn 0.000000 0.921008 0.389545
vn 0.000000 0.921008 0.389545
vn 0.000000 0.921008 0.389545
vn 0.000000 0.921008 0.389545
vn 0.000000 0.921008 0.389545
vn 0.000000 0.921008 -0.389545
vn -0.000000 0.921008 -0.389545
vn -0.000000 0.921008 -0.389545
vn 0.000000 0.921008 -0.389545
vn -0.000000 0.921008 -0.389545
vn -0.000000 0.921008 -0.389544
vn -0.000000 0.921008 -0.389544
vn -0.000000 0.921008 -0.389545
vn -0.000000 0.921008 -0.389544
vn 0.000000 0.921008 -0.389544
vn 0.000000 0.921008 -0.389544
vn -0.000000 0.921008 -0.389544
vn 0.000000 0.921008 -0.389544
vn 0.000000 0.921008 -0.389545
vn 0.000000 0.921008 -0.389545
vn 0.000000 0.921008 -0.389544
vn 0.000000 0.000000 -1.000000
vn 0.000000 0.000000 -1.000000
vn 0.000000 0.000000 -1.000000
vn 0.000000 0.000000 -1.000000
vn -1.000000 0.000000 0.000000
vn -1.000000 0.000000 0.000000
vn -1.000000 0.000000 0.000000
vn -1.000000 0.000000 0.000000
vn 0.000000 0.000000 1.000000
vn 0.000000 0.000000 1.000000
vn 0.000000 0.000000 1.000000
vn 0.000000 0.000000 1.000000
vn 1.000000 0.000000 0.000000
vn 1.000000 0.000000 0.000000
vn 1.000000 0.000000 0.000000
vn 1.000000 0.000000 0.000000
vn 0.000000 0.000000 1.000000
vn 0.000000 0.000000 1.000000
vn 0.000000 0.000000 1.000000
vn 0.000000 0.000000 1.000000
vn 1.000000 0.000000 0.000000
vn 1.000000 0.000000 0.000000
vn 1.000000 0.000000 0.000000
vn 1.000000 0.000000 0.000000
vn 0.000000 0.000000 -1.000000
vn 0.000000 0.000000 -1.000000
vn 0.000000 0.000000 -1.000000
vn 0.000000 0.000000 -1.000000
vn -1.000000 0.000000 0.000000
vn -1.000000 0.000000 0.000000
vn -1.000000 0.000000 0.000000
vn -1.000000 0.000000 0.000000
s off
g Estante_Refrigerador_Isla:polySurface1
f 1/1/1 2/2/2 9/52/3 10/51/4
f 3/43/5 4/47/6 6/6/7 5/42/8
f 11/16/9 12/17/10 8/8/11 7/7/12
f 2/2/13 8/9/14 12/50/15 9/52/16
f 7/11/17 1/1/18 10/51/19 11/49/20
f 10/51/21 9/52/22 13/46/23 14/45/24
f 26/33/25 25/34/26 27/35/27 28/36/28
f 15/22/29 16/23/30 12/17/31 11/16/32
f 30/37/33 29/38/34 31/39/35 32/40/36
f 14/45/37 13/46/38 4/4/39 3/44/40
f 15/63/41 14/64/42 3/3/43 5/12/44
f 5/5/45 6/41/46 16/23/47 15/22/48
f 13/61/49 16/62/50 6/10/51 4/48/52
f 11/15/53 10/14/54 17/60/55 18/57/56
f 10/14/57 14/20/58 19/59/59 17/60/60
f 14/20/61 15/21/62 20/58/63 19/59/64
f 15/21/65 11/15/66 18/57/67 20/58/68
f 9/13/69 12/18/70 21/56/71 22/53/72
f 12/18/73 16/24/74 23/55/75 21/56/76
f 16/24/77 13/19/78 24/54/79 23/55/80
f 13/19/81 9/13/82 22/53/83 24/54/84
f 18/25/85 17/26/86 25/34/87 26/33/88
f 17/26/89 19/27/90 27/35/91 25/34/92
f 19/27/93 20/28/94 28/36/95 27/35/96
f 20/28/97 18/25/98 26/33/99 28/36/100
f 22/29/101 21/30/102 29/38/103 30/37/104
f 21/30/105 23/31/106 31/39/107 29/38/108
f 23/31/109 24/32/110 32/40/111 31/39/112
f 24/32/113 22/29/114 30/37/115 32/40/116
