# This file uses centimeters as units for non-parametric coordinates.

g default
v 0.000000 0.000000 0.000000
v 0.000000 0.000000 -1.000000
v 0.000000 1.219545 -0.475680
v 0.000000 1.219545 -0.524320
v -2.000000 1.219545 -0.475680
v -2.000000 1.219545 -0.524320
v -2.000000 0.000000 0.000000
v -2.000000 0.000000 -1.000000
v 0.000000 0.730409 -1.000000
v 0.000000 0.730409 0.000000
v -2.000000 0.730409 0.000000
v -2.000000 0.730409 -1.000000
v 0.000000 0.927064 -0.535045
v 0.000000 0.927064 -0.464955
v -2.000000 0.927064 -0.464955
v -2.000000 0.927064 -0.535045
v -0.060000 0.753144 -0.053753
v -1.940000 0.753144 -0.053753
v -0.060000 0.904328 -0.411202
v -1.940000 0.904328 -0.411202
v -1.940000 0.753144 -0.946247
v -0.060000 0.753144 -0.946247
v -1.940000 0.904328 -0.588798
v -0.060000 0.904328 -0.588798
v -0.060000 0.489412 -0.053753
v -1.940000 0.489412 -0.053753
v -0.060000 0.489414 -0.411202
v -1.940000 0.489414 -0.411202
v -1.940000 0.489412 -0.946247
v -0.060000 0.489412 -0.946247
v -1.940000 0.489414 -0.588798
v -0.060000 0.489414 -0.588798
vt 0.375000 0.000000
vt 0.625000 0.000000
vt 0.375000 0.250000
vt 0.625000 0.250000
vt 0.375000 0.500000
vt 0.625000 0.500000
vt 0.375000 0.750000
vt 0.625000 0.750000
vt 0.875000 0.000000
vt 0.875000 0.250000
vt 0.125000 0.000000
vt 0.125000 0.250000
vt 0.625000 0.122048
vt 0.375000 0.122048
vt 0.125000 0.122048
vt 0.375000 0.627952
vt 0.625000 0.627952
vt 0.875000 0.122048
vt 0.625000 0.160604
vt 0.375000 0.160604
vt 0.125000 0.160604
vt 0.375000 0.589396
vt 0.625000 0.589396
vt 0.875000 0.160604
vt 0.125000 0.122048
vt 0.375000 0.122048
vt 0.375000 0.160604
vt 0.125000 0.160604
vt 0.625000 0.122048
vt 0.875000 0.122048
vt 0.875000 0.160604
vt 0.625000 0.160604
vt 0.125000 0.122048
vt 0.375000 0.122048
vt 0.375000 0.160604
vt 0.125000 0.160604
vt 0.625000 0.122048
vt 0.875000 0.122048
vt 0.875000 0.160604
vt 0.625000 0.160604
vn 1.000000 0.000000 0.000000
vn 1.000000 0.000000 0.000000
vn 1.000000 0.000000 0.000000
vn 1.000000 0.000000 0.000000
vn 0.000000 1.000000 0.000000
vn 0.000000 1.000000 0.000000
vn 0.000000 1.000000 0.000000
vn 0.000000 1.000000 0.000000
vn -1.000000 -0.000000 0.000000
vn -1.000000 -0.000000 0.000000
vn -1.000000 0.000000 0.000000
vn -1.000000 0.000000 0.000000
vn 0.000000 0.000000 -1.000000
vn 0.000000 0.000000 -1.000000
vn 0.000000 0.000000 -1.000000
vn 0.000000 0.000000 -1.000000
vn 0.000000 0.000000 1.000000
vn 0.000000 0.000000 1.000000
vn 0.000000 0.000000 1.000000
vn 0.000000 0.000000 1.000000
vn 1.000000 0.000000 0.000000
vn 1.000000 0.000000 0.000000
vn 0.000000 1.000000 0.000006
vn 0.000000 1.000000 0.000006
vn 0.000000 1.000000 0.000006
vn 0.000000 1.000000 0.000006
vn -1.000000 -0.000001 0.000000
vn -1.000000 -0.000001 0.000000
vn 0.000000 1.000000 -0.000006
vn 0.000000 1.000000 -0.000006
vn 0.000000 1.000000 -0.000006
vn 0.000000 1.000000 -0.000006
vn 1.000000 0.000000 0.000000
vn 1.000000 0.000000 0.000000
vn 0.000000 0.036645 0.999328
vn 0.000000 0.036645 0.999328
vn 0.000000 0.036645 0.999328
vn 0.000000 0.036645 0.999328
vn -1.000000 0.000000 0.000000
vn -1.000000 0.000000 0.000000
vn 0.000000 0.036645 -0.999328
vn 0.000000 0.036645 -0.999328
vn 0.000000 0.036645 -0.999328
vn 0.000000 0.036645 -0.999328
vn -0.000000 0.921008 0.389545
vn 0.000000 0.921008 0.389545
vn 0.000000 0.921008 0.389545
vn -0.000000 0.921008 0.389545
vn 0.000000 0.921008 0.389545
vn 0.000000 0.921008 0.389545
vn -0.000000 0.921008 0.389545
vn -0.000000 0.921008 0.389545
vn 0.000000 0.921008 -0.389545
vn -0.000000 0.921008 -0.389545
vn -0.000000 0.921008 -0.389545
vn 0.000000 0.921008 -0.389545
vn -0.000000 0.921008 -0.389544
vn -0.000000 0.921008 -0.389544
vn 0.000000 0.921008 -0.389544
vn 0.000000 0.921008 -0.389544
vn 0.000000 0.000000 -1.000000
vn 0.000000 0.000000 -1.000000
vn 0.000000 0.000000 -1.000000
vn 0.000000 0.000000 -1.000000
vn -1.000000 0.000000 0.000000
vn -1.000000 0.000000 0.000000
vn -1.000000 0.000000 0.000000
vn -1.000000 0.000000 0.000000
vn 0.000000 0.000000 1.000000
vn 0.000000 0.000000 1.000000
vn 0.000000 0.000000 1.000000
vn 0.000000 0.000000 1.000000
vn 1.000000 0.000000 0.000000
vn 1.000000 0.000000 0.000000
vn 1.000000 0.000000 0.000000
vn 1.000000 0.000000 0.000000
vn 0.000000 0.000000 1.000000
vn 0.000000 0.000000 1.000000
vn 0.000000 0.000000 1.000000
vn 0.000000 0.000000 1.000000
vn 1.000000 0.000000 0.000000
vn 1.000000 0.000000 0.000000
vn 1.000000 0.000000 0.000000
vn 1.000000 0.000000 0.000000
vn 0.000000 0.000000 -1.000000
vn 0.000000 0.000000 -1.000000
vn 0.000000 0.000000 -1.000000
vn 0.000000 0.000000 -1.000000
vn -1.000000 0.000000 0.000000
vn -1.000000 0.000000 0.000000
vn -1.000000 0.000000 0.000000
vn -1.000000 0.000000 0.000000
s 1
g Estante_Refrigerador_Isla EstantesExport
f 1/1/1 2/2/2 9/13/3 10/14/4
s off
f 3/3/5 4/4/6 6/6/7 5/5/8
s 2
f 11/16/9 12/17/10 8/8/11 7/7/12
s off
f 2/2/13 8/9/14 12/18/15 9/13/16
f 7/11/17 1/1/18 10/14/19 11/15/20
s 1
f 10/14/4 9/13/3 13/19/21 14/20/22
s off
f 26/33/23 25/34/24 27/35/25 28/36/26
s 2
f 15/22/27 16/23/28 12/17/10 11/16/9
s off
f 30/37/29 29/38/30 31/39/31 32/40/32
s 1
f 14/20/22 13/19/21 4/4/33 3/3/34
s off
f 15/21/35 14/20/36 3/3/37 5/12/38
s 2
f 5/5/39 6/6/40 16/23/28 15/22/27
s off
f 13/19/41 16/24/42 6/10/43 4/4/44
s 3
f 11/15/45 10/14/46 17/26/47 18/25/48
f 10/14/46 14/20/49 19/27/50 17/26/47
f 14/20/49 15/21/51 20/28/52 19/27/50
f 15/21/51 11/15/45 18/25/48 20/28/52
s 4
f 9/13/53 12/18/54 21/30/55 22/29/56
f 12/18/54 16/24/57 23/31/58 21/30/55
f 16/24/57 13/19/59 24/32/60 23/31/58
f 13/19/59 9/13/53 22/29/56 24/32/60
s off
f 18/25/61 17/26/62 25/34/63 26/33/64
f 17/26/65 19/27/66 27/35/67 25/34/68
f 19/27/69 20/28/70 28/36/71 27/35/72
f 20/28/73 18/25/74 26/33/75 28/36/76
f 22/29/77 21/30/78 29/38/79 30/37/80
f 21/30/81 23/31/82 31/39/83 29/38/84
f 23/31/85 24/32/86 32/40/87 31/39/88
f 24/32/89 22/29/90 30/37/91 32/40/92
