# This file uses centimeters as units for non-parametric coordinates.

g default
v 0.000000 0.000000 13.000000
v 2.000000 0.000000 13.000000
v 0.000000 4.000000 13.000000
v 2.000000 4.000000 13.000000
v 2.000000 0.000000 13.000000
v 4.000000 0.000000 13.000000
v 2.000000 4.000000 13.000000
v 4.000000 4.000000 13.000000
v 4.000000 0.000000 13.000000
v 6.000000 0.000000 13.000000
v 4.000000 4.000000 13.000000
v 6.000000 4.000000 13.000000
v 6.000000 0.000000 13.000000
v 8.000000 0.000000 13.000000
v 6.000000 4.000000 13.000000
v 8.000000 4.000000 13.000000
v 8.000000 0.000000 13.000000
v 10.000000 0.000000 13.000000
v 8.000000 4.000000 13.000000
v 10.000000 4.000000 13.000000
v 10.000000 0.000000 13.000000
v 12.000000 0.000000 13.000000
v 10.000000 4.000000 13.000000
v 12.000000 4.000000 13.000000
v -4.000000 0.000000 13.000000
v -2.000000 0.000000 13.000000
v -4.000000 4.000000 13.000000
v -2.000000 4.000000 13.000000
v -6.000000 0.000000 13.000000
v -4.000000 0.000000 13.000000
v -6.000000 4.000000 13.000000
v -4.000000 4.000000 13.000000
v -8.000000 0.000000 13.000000
v -6.000000 0.000000 13.000000
v -8.000000 4.000000 13.000000
v -6.000000 4.000000 13.000000
v -10.000000 0.000000 13.000000
v -8.000000 0.000000 13.000000
v -10.000000 4.000000 13.000000
v -8.000000 4.000000 13.000000
v -12.000000 0.000000 13.000000
v -10.000000 0.000000 13.000000
v -12.000000 4.000000 13.000000
v -10.000000 4.000000 13.000000
v -2.000000 0.000000 13.000000
v 0.000000 0.000000 13.000000
v -2.000000 4.000000 13.000000
v 0.000000 4.000000 13.000000
v 12.000000 0.000000 1.000000
v 12.000000 0.000000 -1.000000
v 12.000000 4.000000 1.000000
v 12.000000 4.000000 -1.000000
v 12.000000 0.000000 -1.000000
v 12.000000 0.000000 -3.000000
v 12.000000 4.000000 -1.000000
v 12.000000 4.000000 -3.000000
v 12.000000 0.000000 -3.000000
v 12.000000 0.000000 -5.000000
v 12.000000 4.000000 -3.000000
v 12.000000 4.000000 -5.000000
v 12.000000 0.000000 -5.000000
v 12.000000 0.000000 -7.000000
v 12.000000 4.000000 -5.000000
v 12.000000 4.000000 -7.000000
v 12.000000 0.000000 -7.000000
v 12.000000 0.000000 -9.000000
v 12.000000 4.000000 -7.000000
v 12.000000 4.000000 -9.000000
v 12.000000 0.000000 -9.000000
v 12.000000 0.000000 -11.000000
v 12.000000 4.000000 -9.000000
v 12.000000 4.000000 -11.000000
v 12.000000 0.000000 5.000000
v 12.000000 0.000000 3.000000
v 12.000000 4.000000 5.000000
v 12.000000 4.000000 3.000000
v 12.000000 0.000000 7.000000
v 12.000000 0.000000 5.000000
v 12.000000 4.000000 7.000000
v 12.000000 4.000000 5.000000
v 12.000000 0.000000 9.000000
v 12.000000 0.000000 7.000000
v 12.000000 4.000000 9.000000
v 12.000000 4.000000 7.000000
v 12.000000 0.000000 11.000000
v 12.000000 0.000000 9.000000
v 12.000000 4.000000 11.000000
v 12.000000 4.000000 9.000000
v 12.000000 0.000000 13.000000
v 12.000000 0.000000 11.000000
v 12.000000 4.000000 13.000000
v 12.000000 4.000000 11.000000
v 12.000000 0.000000 3.000000
v 12.000000 0.000000 1.000000
v 12.000000 4.000000 3.000000
v 12.000000 4.000000 1.000000
v 12.000000 0.000000 -11.000000
v 12.000000 0.000000 -13.000000
v 12.000000 4.000000 -11.000000
v 12.000000 4.000000 -13.000000
v 0.000000 0.000000 -13.000000
v 2.000000 0.000000 -13.000000
v 0.000000 4.000000 -13.000000
v 2.000000 4.000000 -13.000000
v 2.000000 0.000000 -13.000000
v 4.000000 0.000000 -13.000000
v 2.000000 4.000000 -13.000000
v 4.000000 4.000000 -13.000000
v 4.000000 0.000000 -13.000000
v 6.000000 0.000000 -13.000000
v 4.000000 4.000000 -13.000000
v 6.000000 4.000000 -13.000000
v 6.000000 0.000000 -13.000000
v 8.000000 0.000000 -13.000000
v 6.000000 4.000000 -13.000000
v 8.000000 4.000000 -13.000000
v 8.000000 0.000000 -13.000000
v 10.000000 0.000000 -13.000000
v 8.000000 4.000000 -13.000000
v 10.000000 4.000000 -13.000000
v 10.000000 0.000000 -13.000000
v 12.000000 0.000000 -13.000000
v 10.000000 4.000000 -13.000000
v 12.000000 4.000000 -13.000000
v -4.000000 0.000000 -13.000000
v -2.000000 0.000000 -13.000000
v -4.000000 4.000000 -13.000000
v -2.000000 4.000000 -13.000000
v -6.000000 0.000000 -13.000000
v -4.000000 0.000000 -13.000000
v -6.000000 4.000000 -13.000000
v -4.000000 4.000000 -13.000000
v -8.000000 0.000000 -13.000000
v -6.000000 0.000000 -13.000000
v -8.000000 4.000000 -13.000000
v -6.000000 4.000000 -13.000000
v -10.000000 0.000000 -13.000000
v -8.000000 0.000000 -13.000000
v -10.000000 4.000000 -13.000000
v -8.000000 4.000000 -13.000000
v -12.000000 0.000000 -13.000000
v -10.000000 0.000000 -13.000000
v -12.000000 4.000000 -13.000000
v -10.000000 4.000000 -13.000000
v -2.000000 0.000000 -13.000000
v 0.000000 0.000000 -13.000000
v -2.000000 4.000000 -13.000000
v 0.000000 4.000000 -13.000000
v -12.000000 0.000000 -1.000000
v -12.000000 0.000000 1.000000
v -12.000000 4.000000 -1.000000
v -12.000000 4.000000 1.000000
v -12.000000 0.000000 1.000000
v -12.000000 0.000000 3.000000
v -12.000000 4.000000 1.000000
v -12.000000 4.000000 3.000000
v -12.000000 0.000000 3.000000
v -12.000000 0.000000 5.000000
v -12.000000 4.000000 3.000000
v -12.000000 4.000000 5.000000
v -12.000000 0.000000 5.000000
v -12.000000 0.000000 7.000000
v -12.000000 4.000000 5.000000
v -12.000000 4.000000 7.000000
v -12.000000 0.000000 7.000000
v -12.000000 0.000000 9.000000
v -12.000000 4.000000 7.000000
v -12.000000 4.000000 9.000000
v -12.000000 0.000000 9.000000
v -12.000000 0.000000 11.000000
v -12.000000 4.000000 9.000000
v -12.000000 4.000000 11.000000
v -12.000000 0.000000 -5.000000
v -12.000000 0.000000 -3.000000
v -12.000000 4.000000 -5.000000
v -12.000000 4.000000 -3.000000
v -12.000000 0.000000 -7.000000
v -12.000000 0.000000 -5.000000
v -12.000000 4.000000 -7.000000
v -12.000000 4.000000 -5.000000
v -12.000000 0.000000 -9.000000
v -12.000000 0.000000 -7.000000
v -12.000000 4.000000 -9.000000
v -12.000000 4.000000 -7.000000
v -12.000000 0.000000 -11.000000
v -12.000000 0.000000 -9.000000
v -12.000000 4.000000 -11.000000
v -12.000000 4.000000 -9.000000
v -12.000000 0.000000 -13.000000
v -12.000000 0.000000 -11.000000
v -12.000000 4.000000 -13.000000
v -12.000000 4.000000 -11.000000
v -12.000000 0.000000 -3.000000
v -12.000000 0.000000 -1.000000
v -12.000000 4.000000 -3.000000
v -12.000000 4.000000 -1.000000
v -12.000000 0.000000 11.000000
v -12.000000 0.000000 13.000000
v -12.000000 4.000000 11.000000
v -12.000000 4.000000 13.000000
v -12.000000 -0.000000 13.000000
v 12.000000 -0.000000 13.000000
v -12.000000 0.000000 -13.000000
v 12.000000 0.000000 -13.000000
vt 0.000000 0.000000
vt 0.666667 0.000000
vt 0.000000 1.000000
vt 0.666667 1.000000
vt 0.000000 0.000000
vt 0.000000 1.000000
vt 0.666667 1.000000
vt 0.666667 0.000000
vt 0.000000 0.000000
vt 0.000000 1.000000
vt 0.666667 1.000000
vt 0.666667 0.000000
vt 0.000000 0.000000
vt 0.000000 1.000000
vt 0.666667 1.000000
vt 0.666667 0.000000
vt 0.000000 0.000000
vt 0.000000 1.000000
vt 0.666667 1.000000
vt 0.666667 0.000000
vt 0.000000 0.000000
vt 0.000000 1.000000
vt 0.666667 1.000000
vt 0.666667 0.000000
vt 0.000000 0.000000
vt 0.000000 1.000000
vt 0.666667 1.000000
vt 0.666667 0.000000
vt 0.000000 0.000000
vt 0.000000 1.000000
vt 0.666667 1.000000
vt 0.666667 0.000000
vt 0.000000 0.000000
vt 0.000000 1.000000
vt 0.666667 1.000000
vt 0.666667 0.000000
vt 0.000000 0.000000
vt 0.000000 1.000000
vt 0.666667 1.000000
vt 0.666667 0.000000
vt 0.000000 0.000000
vt 0.000000 1.000000
vt 0.666667 1.000000
vt 0.666667 0.000000
vt 0.000000 0.000000
vt 0.000000 1.000000
vt 0.666667 1.000000
vt 0.666667 0.000000
vt 0.000000 0.000000
vt 0.000000 1.000000
vt 0.666667 1.000000
vt 0.666667 0.000000
vt 0.000000 0.000000
vt 0.000000 1.000000
vt 0.666667 1.000000
vt 0.666667 0.000000
vt 0.000000 0.000000
vt 0.000000 1.000000
vt 0.666667 1.000000
vt 0.666667 0.000000
vt 0.000000 0.000000
vt 0.000000 1.000000
vt 0.666667 1.000000
vt 0.666667 0.000000
vt 0.000000 0.000000
vt 0.000000 1.000000
vt 0.666667 1.000000
vt 0.666667 0.000000
vt 0.000000 0.000000
vt 0.000000 1.000000
vt 0.666667 1.000000
vt 0.666667 0.000000
vt 0.000000 0.000000
vt 0.000000 1.000000
vt 0.666667 1.000000
vt 0.666667 0.000000
vt 0.000000 0.000000
vt 0.000000 1.000000
vt 0.666667 1.000000
vt 0.666667 0.000000
vt 0.000000 0.000000
vt 0.000000 1.000000
vt 0.666667 1.000000
vt 0.666667 0.000000
vt 0.000000 0.000000
vt 0.000000 1.000000
vt 0.666667 1.000000
vt 0.666667 0.000000
vt 0.000000 0.000000
vt 0.000000 1.000000
vt 0.666667 1.000000
vt 0.666667 0.000000
vt 0.000000 0.000000
vt 0.000000 1.000000
vt 0.666667 1.000000
vt 0.666667 0.000000
vt 0.000000 0.000000
vt 0.000000 1.000000
vt 0.666667 1.000000
vt 0.666667 0.000000
vt 0.000000 0.000000
vt 0.000000 1.000000
vt 0.666667 1.000000
vt 0.666667 0.000000
vt 0.000000 0.000000
vt 0.000000 1.000000
vt 0.666667 1.000000
vt 0.666667 0.000000
vt 0.000000 0.000000
vt 0.000000 1.000000
vt 0.666667 1.000000
vt 0.666667 0.000000
vt 0.000000 0.000000
vt 0.000000 1.000000
vt 0.666667 1.000000
vt 0.666667 0.000000
vt 0.000000 0.000000
vt 0.000000 1.000000
vt 0.666667 1.000000
vt 0.666667 0.000000
vt 0.000000 0.000000
vt 0.000000 1.000000
vt 0.666667 1.000000
vt 0.666667 0.000000
vt 0.000000 0.000000
vt 0.000000 1.000000
vt 0.666667 1.000000
vt 0.666667 0.000000
vt 0.000000 0.000000
vt 0.000000 1.000000
vt 0.666667 1.000000
vt 0.666667 0.000000
vt 0.000000 0.000000
vt 0.000000 1.000000
vt 0.666667 1.000000
vt 0.666667 0.000000
vt 0.000000 0.000000
vt 0.000000 1.000000
vt 0.666667 1.000000
vt 0.666667 0.000000
vt 0.000000 0.000000
vt 0.000000 1.000000
vt 0.666667 1.000000
vt 0.666667 0.000000
vt 0.000000 0.000000
vt 0.000000 1.000000
vt 0.666667 1.000000
vt 0.666667 0.000000
vt 0.000000 0.000000
vt 0.000000 1.000000
vt 0.666667 1.000000
vt 0.666667 0.000000
vt 0.000000 0.000000
vt 0.000000 1.000000
vt 0.666667 1.000000
vt 0.666667 0.000000
vt 0.000000 0.000000
vt 0.000000 1.000000
vt 0.666667 1.000000
vt 0.666667 0.000000
vt 0.000000 0.000000
vt 0.000000 1.000000
vt 0.666667 1.000000
vt 0.666667 0.000000
vt 0.000000 0.000000
vt 0.000000 1.000000
vt 0.666667 1.000000
vt 0.666667 0.000000
vt 0.000000 0.000000
vt 0.000000 1.000000
vt 0.666667 1.000000
vt 0.666667 0.000000
vt 0.000000 0.000000
vt 0.000000 1.000000
vt 0.666667 1.000000
vt 0.666667 0.000000
vt 0.000000 0.000000
vt 0.000000 1.000000
vt 0.666667 1.000000
vt 0.666667 0.000000
vt 0.000000 0.000000
vt 0.000000 1.000000
vt 0.666667 1.000000
vt 0.666667 0.000000
vt 0.000000 0.000000
vt 0.000000 1.000000
vt 0.666667 1.000000
vt 0.666667 0.000000
vt 0.000000 0.000000
vt 0.000000 1.000000
vt 0.666667 1.000000
vt 0.666667 0.000000
vt 0.000000 0.000000
vt 0.000000 1.000000
vt 0.666667 1.000000
vt 0.666667 0.000000
vt 0.000000 0.000000
vt 0.000000 1.000000
vt 0.666667 1.000000
vt 0.666667 0.000000
vt 0.000000 0.000000
vt 1.000000 0.000000
vt 1.000000 0.958333
vt 0.000000 0.958333
vn 0.000000 0.000000 -1.000000
vn 0.000000 0.000000 -1.000000
vn 0.000000 0.000000 -1.000000
vn 0.000000 0.000000 -1.000000
vn 0.000000 0.000000 -1.000000
vn 0.000000 0.000000 -1.000000
vn 0.000000 0.000000 -1.000000
vn 0.000000 0.000000 -1.000000
vn 0.000000 0.000000 -1.000000
vn 0.000000 0.000000 -1.000000
vn 0.000000 0.000000 -1.000000
vn 0.000000 0.000000 -1.000000
vn 0.000000 0.000000 -1.000000
vn 0.000000 0.000000 -1.000000
vn 0.000000 0.000000 -1.000000
vn 0.000000 0.000000 -1.000000
vn 0.000000 0.000000 -1.000000
vn 0.000000 0.000000 -1.000000
vn 0.000000 0.000000 -1.000000
vn 0.000000 0.000000 -1.000000
vn 0.000000 0.000000 -1.000000
vn 0.000000 0.000000 -1.000000
vn 0.000000 0.000000 -1.000000
vn 0.000000 0.000000 -1.000000
vn 0.000000 0.000000 -1.000000
vn 0.000000 0.000000 -1.000000
vn 0.000000 0.000000 -1.000000
vn 0.000000 0.000000 -1.000000
vn 0.000000 0.000000 -1.000000
vn 0.000000 0.000000 -1.000000
vn 0.000000 0.000000 -1.000000
vn 0.000000 0.000000 -1.000000
vn 0.000000 0.000000 -1.000000
vn 0.000000 0.000000 -1.000000
vn 0.000000 0.000000 -1.000000
vn 0.000000 0.000000 -1.000000
vn 0.000000 0.000000 -1.000000
vn 0.000000 0.000000 -1.000000
vn 0.000000 0.000000 -1.000000
vn 0.000000 0.000000 -1.000000
vn 0.000000 0.000000 -1.000000
vn 0.000000 0.000000 -1.000000
vn 0.000000 0.000000 -1.000000
vn 0.000000 0.000000 -1.000000
vn 0.000000 0.000000 -1.000000
vn 0.000000 0.000000 -1.000000
vn 0.000000 0.000000 -1.000000
vn 0.000000 0.000000 -1.000000
vn -1.000000 0.000000 0.000000
vn -1.000000 0.000000 0.000000
vn -1.000000 0.000000 0.000000
vn -1.000000 0.000000 0.000000
vn -1.000000 0.000000 0.000000
vn -1.000000 0.000000 0.000000
vn -1.000000 0.000000 0.000000
vn -1.000000 0.000000 0.000000
vn -1.000000 0.000000 0.000000
vn -1.000000 0.000000 0.000000
vn -1.000000 0.000000 0.000000
vn -1.000000 0.000000 0.000000
vn -1.000000 0.000000 0.000000
vn -1.000000 0.000000 0.000000
vn -1.000000 0.000000 0.000000
vn -1.000000 0.000000 0.000000
vn -1.000000 0.000000 0.000000
vn -1.000000 0.000000 0.000000
vn -1.000000 0.000000 0.000000
vn -1.000000 0.000000 0.000000
vn -1.000000 0.000000 0.000000
vn -1.000000 0.000000 0.000000
vn -1.000000 0.000000 0.000000
vn -1.000000 0.000000 0.000000
vn -1.000000 0.000000 0.000000
vn -1.000000 0.000000 0.000000
vn -1.000000 0.000000 0.000000
vn -1.000000 0.000000 0.000000
vn -1.000000 0.000000 0.000000
vn -1.000000 0.000000 0.000000
vn -1.000000 0.000000 0.000000
vn -1.000000 0.000000 0.000000
vn -1.000000 0.000000 0.000000
vn -1.000000 0.000000 0.000000
vn -1.000000 0.000000 0.000000
vn -1.000000 0.000000 0.000000
vn -1.000000 0.000000 0.000000
vn -1.000000 0.000000 0.000000
vn -1.000000 0.000000 0.000000
vn -1.000000 0.000000 0.000000
vn -1.000000 0.000000 0.000000
vn -1.000000 0.000000 0.000000
vn -1.000000 0.000000 0.000000
vn -1.000000 0.000000 0.000000
vn -1.000000 0.000000 0.000000
vn -1.000000 0.000000 0.000000
vn -1.000000 0.000000 0.000000
vn -1.000000 0.000000 0.000000
vn -1.000000 0.000000 0.000000
vn -1.000000 0.000000 0.000000
vn -1.000000 0.000000 0.000000
vn -1.000000 0.000000 0.000000
vn 0.000000 0.000000 1.000000
vn 0.000000 0.000000 1.000000
vn 0.000000 0.000000 1.000000
vn 0.000000 0.000000 1.000000
vn 0.000000 0.000000 1.000000
vn 0.000000 0.000000 1.000000
vn 0.000000 0.000000 1.000000
vn 0.000000 0.000000 1.000000
vn 0.000000 0.000000 1.000000
vn 0.000000 0.000000 1.000000
vn 0.000000 0.000000 1.000000
vn 0.000000 0.000000 1.000000
vn 0.000000 0.000000 1.000000
vn 0.000000 0.000000 1.000000
vn 0.000000 0.000000 1.000000
vn 0.000000 0.000000 1.000000
vn 0.000000 0.000000 1.000000
vn 0.000000 0.000000 1.000000
vn 0.000000 0.000000 1.000000
vn 0.000000 0.000000 1.000000
vn 0.000000 0.000000 1.000000
vn 0.000000 0.000000 1.000000
vn 0.000000 0.000000 1.000000
vn 0.000000 0.000000 1.000000
vn 0.000000 0.000000 1.000000
vn 0.000000 0.000000 1.000000
vn 0.000000 0.000000 1.000000
vn 0.000000 0.000000 1.000000
vn 0.000000 0.000000 1.000000
vn 0.000000 0.000000 1.000000
vn 0.000000 0.000000 1.000000
vn 0.000000 0.000000 1.000000
vn 0.000000 0.000000 1.000000
vn 0.000000 0.000000 1.000000
vn 0.000000 0.000000 1.000000
vn 0.000000 0.000000 1.000000
vn 0.000000 0.000000 1.000000
vn 0.000000 0.000000 1.000000
vn 0.000000 0.000000 1.000000
vn 0.000000 0.000000 1.000000
vn 0.000000 0.000000 1.000000
vn 0.000000 0.000000 1.000000
vn 0.000000 0.000000 1.000000
vn 0.000000 0.000000 1.000000
vn 0.000000 0.000000 1.000000
vn 0.000000 0.000000 1.000000
vn 0.000000 0.000000 1.000000
vn 0.000000 0.000000 1.000000
vn 1.000000 0.000000 0.000000
vn 1.000000 0.000000 0.000000
vn 1.000000 0.000000 0.000000
vn 1.000000 0.000000 0.000000
vn 1.000000 0.000000 0.000000
vn 1.000000 0.000000 0.000000
vn 1.000000 0.000000 0.000000
vn 1.000000 0.000000 0.000000
vn 1.000000 0.000000 0.000000
vn 1.000000 0.000000 0.000000
vn 1.000000 0.000000 0.000000
vn 1.000000 0.000000 0.000000
vn 1.000000 0.000000 0.000000
vn 1.000000 0.000000 0.000000
vn 1.000000 0.000000 0.000000
vn 1.000000 0.000000 0.000000
vn 1.000000 0.000000 0.000000
vn 1.000000 0.000000 0.000000
vn 1.000000 0.000000 0.000000
vn 1.000000 0.000000 0.000000
vn 1.000000 0.000000 0.000000
vn 1.000000 0.000000 0.000000
vn 1.000000 0.000000 0.000000
vn 1.000000 0.000000 0.000000
vn 1.000000 0.000000 0.000000
vn 1.000000 0.000000 0.000000
vn 1.000000 0.000000 0.000000
vn 1.000000 0.000000 0.000000
vn 1.000000 0.000000 0.000000
vn 1.000000 0.000000 0.000000
vn 1.000000 0.000000 0.000000
vn 1.000000 0.000000 0.000000
vn 1.000000 0.000000 0.000000
vn 1.000000 0.000000 0.000000
vn 1.000000 0.000000 0.000000
vn 1.000000 0.000000 0.000000
vn 1.000000 0.000000 0.000000
vn 1.000000 0.000000 0.000000
vn 1.000000 0.000000 0.000000
vn 1.000000 0.000000 0.000000
vn 1.000000 0.000000 0.000000
vn 1.000000 0.000000 0.000000
vn 1.000000 0.000000 0.000000
vn 1.000000 0.000000 0.000000
vn 1.000000 0.000000 0.000000
vn 1.000000 0.000000 0.000000
vn 1.000000 0.000000 0.000000
vn 1.000000 0.000000 0.000000
vn 1.000000 0.000000 0.000000
vn 1.000000 0.000000 0.000000
vn 1.000000 0.000000 0.000000
vn 1.000000 0.000000 0.000000
vn 0.000000 1.000000 0.000000
vn 0.000000 1.000000 0.000000
vn 0.000000 1.000000 0.000000
vn 0.000000 1.000000 0.000000
s off
g Estructura_Building
f 1/1/1 3/3/2 4/4/3 2/2/4
f 5/5/5 7/6/6 8/7/7 6/8/8
f 9/9/9 11/10/10 12/11/11 10/12/12
f 13/13/13 15/14/14 16/15/15 14/16/16
f 17/17/17 19/18/18 20/19/19 18/20/20
f 21/21/21 23/22/22 24/23/23 22/24/24
f 25/25/25 27/26/26 28/27/27 26/28/28
f 29/29/29 31/30/30 32/31/31 30/32/32
f 33/33/33 35/34/34 36/35/35 34/36/36
f 37/37/37 39/38/38 40/39/39 38/40/40
f 41/41/41 43/42/42 44/43/43 42/44/44
f 45/45/45 47/46/46 48/47/47 46/48/48
f 49/49/49 51/50/50 52/51/51 50/52/52
f 53/53/53 55/54/54 56/55/55 54/56/56
f 57/57/57 59/58/58 60/59/59 58/60/60
f 61/61/61 63/62/62 64/63/63 62/64/64
f 65/65/65 67/66/66 68/67/67 66/68/68
f 69/69/69 71/70/70 72/71/71 70/72/72
f 73/73/73 75/74/74 76/75/75 74/76/76
f 77/77/77 79/78/78 80/79/79 78/80/80
f 81/81/81 83/82/82 84/83/83 82/84/84
f 85/85/85 87/86/86 88/87/87 86/88/88
f 89/89/89 91/90/90 92/91/91 90/92/92
f 93/93/93 95/94/94 96/95/95 94/96/96
f 97/97/97 99/98/98 100/99/99 98/100/100
f 101/101/101 102/104/102 104/103/103 103/102/104
f 105/105/105 106/108/106 108/107/107 107/106/108
f 109/109/109 110/112/110 112/111/111 111/110/112
f 113/113/113 114/116/114 116/115/115 115/114/116
f 117/117/117 118/120/118 120/119/119 119/118/120
f 121/121/121 122/124/122 124/123/123 123/122/124
f 125/125/125 126/128/126 128/127/127 127/126/128
f 129/129/129 130/132/130 132/131/131 131/130/132
f 133/133/133 134/136/134 136/135/135 135/134/136
f 137/137/137 138/140/138 140/139/139 139/138/140
f 141/141/141 142/144/142 144/143/143 143/142/144
f 145/145/145 146/148/146 148/147/147 147/146/148
f 149/149/149 151/150/150 152/151/151 150/152/152
f 153/153/153 155/154/154 156/155/155 154/156/156
f 157/157/157 159/158/158 160/159/159 158/160/160
f 161/161/161 163/162/162 164/163/163 162/164/164
f 165/165/165 167/166/166 168/167/167 166/168/168
f 169/169/169 171/170/170 172/171/171 170/172/172
f 173/173/173 175/174/174 176/175/175 174/176/176
f 177/177/177 179/178/178 180/179/179 178/180/180
f 181/181/181 183/182/182 184/183/183 182/184/184
f 185/185/185 187/186/186 188/187/187 186/188/188
f 189/189/189 191/190/190 192/191/191 190/192/192
f 193/193/193 195/194/194 196/195/195 194/196/196
f 197/197/197 199/198/198 200/199/199 198/200/200
f 201/201/201 202/202/202 204/203/203 203/204/204
