# This file uses centimeters as units for non-parametric coordinates.

g default
v -0.047479 -0.076061 0.029801
v -0.024210 -0.087075 0.029801
v -0.024210 -0.076061 0.053070
v -0.024210 -0.049470 0.062709
v -0.047479 -0.049470 0.053070
v -0.057118 -0.049470 0.029801
v 0.047479 -0.076061 0.029801
v 0.057118 -0.049470 0.029801
v 0.047479 -0.049470 0.053070
v 0.024210 -0.049470 0.062709
v 0.024210 -0.076061 0.053070
v 0.024210 -0.087075 0.029801
v -0.047479 0.027272 0.029801
v -0.057118 0.000682 0.029801
v -0.047479 0.000682 0.053070
v -0.024210 0.000682 0.062709
v -0.024210 0.027272 0.053070
v -0.024210 0.038286 0.029801
v 0.047479 0.027272 0.029801
v 0.024210 0.038286 0.029801
v 0.024210 0.027272 0.053070
v 0.024210 0.000682 0.062709
v 0.047479 0.000682 0.053070
v 0.057118 0.000682 0.029801
v -0.047479 0.000682 -0.053070
v -0.057118 0.000682 -0.029801
v -0.047479 0.027272 -0.029801
v -0.024210 0.038286 -0.029801
v -0.024210 0.027272 -0.053070
v -0.024210 0.000682 -0.062709
v 0.047479 0.000682 -0.053070
v 0.024210 0.000682 -0.062709
v 0.024210 0.027272 -0.053070
v 0.024210 0.038286 -0.029801
v 0.047479 0.027272 -0.029801
v 0.057118 0.000682 -0.029801
v -0.047479 -0.076061 -0.029801
v -0.057118 -0.049470 -0.029801
v -0.047479 -0.049470 -0.053070
v -0.024210 -0.049470 -0.062709
v -0.024210 -0.076061 -0.053070
v -0.024210 -0.087075 -0.029801
v 0.047479 -0.076061 -0.029801
v 0.024210 -0.087075 -0.029801
v 0.024210 -0.076061 -0.053070
v 0.024210 -0.049470 -0.062709
v 0.047479 -0.049470 -0.053070
v 0.057118 -0.049470 -0.029801
v -0.043203 -0.071174 0.048793
v 0.043203 -0.071174 0.048793
v -0.043203 0.022385 0.048793
v 0.043203 0.022385 0.048793
v -0.043203 0.022385 -0.048793
v 0.043203 0.022385 -0.048793
v -0.043203 -0.071174 -0.048793
v 0.043203 -0.071174 -0.048793
v 0.008362 0.037282 -0.000022
v 0.008362 0.037282 0.008113
v 0.015407 0.037282 0.004045
v 0.014050 0.080015 -0.004821
v 0.013030 0.079981 0.003249
v 0.020363 0.079117 0.000066
v 0.017143 0.070712 -0.000450
v 0.009809 0.071576 0.002734
v 0.010830 0.071610 -0.005336
v 0.010246 0.055916 0.010763
v 0.004543 0.057761 0.015594
v 0.002640 0.056439 0.008027
v -0.010011 0.057380 0.006724
v 0.011822 0.064648 0.006724
v -0.035307 0.085371 0.006724
v -0.000831 0.087075 0.006724
v -0.010011 0.057380 0.006724
v 0.011822 0.064648 0.006724
v -0.035307 0.085371 0.006724
v -0.000831 0.087075 0.006724
vt 0.480022 0.851707
vt 0.464755 0.853089
vt 0.464755 0.816603
vt 0.480327 0.817454
vt 0.452553 0.621730
vt 0.451581 0.638015
vt 0.417407 0.637776
vt 0.416067 0.621730
vt 0.480264 0.637907
vt 0.478502 0.621730
vt 0.511897 0.621730
vt 0.510136 0.637907
vt 0.478502 0.865291
vt 0.510378 0.851707
vt 0.511897 0.865291
vt 0.465561 0.637403
vt 0.465659 0.666601
vt 0.451605 0.666203
vt 0.480621 0.665554
vt 0.538819 0.638015
vt 0.537847 0.621730
vt 0.574333 0.621730
vt 0.572993 0.637776
vt 0.525645 0.853089
vt 0.510072 0.817454
vt 0.525645 0.816603
vt 0.524839 0.637403
vt 0.524741 0.666601
vt 0.509778 0.665554
vt 0.538795 0.666203
vt 0.452553 0.682620
vt 0.416067 0.682620
vt 0.417409 0.666552
vt 0.464755 0.694823
vt 0.480389 0.695649
vt 0.480373 0.730344
vt 0.464755 0.731309
vt 0.479899 0.681222
vt 0.510501 0.681222
vt 0.510011 0.695649
vt 0.525645 0.694823
vt 0.525645 0.731309
vt 0.510027 0.730344
vt 0.537847 0.682620
vt 0.572990 0.666552
vt 0.574333 0.682620
vt 0.403864 0.668129
vt 0.403864 0.636222
vt 0.464755 0.758002
vt 0.480385 0.759851
vt 0.480381 0.788036
vt 0.464755 0.789910
vt 0.479830 0.744610
vt 0.510569 0.744610
vt 0.510015 0.759851
vt 0.525645 0.758002
vt 0.525645 0.789910
vt 0.510018 0.788036
vt 0.586535 0.668129
vt 0.586535 0.636222
vt 0.479817 0.803254
vt 0.510583 0.803254
vt 0.464755 0.621730
vt 0.464755 0.865291
vt 0.525645 0.865291
vt 0.525645 0.621730
vt 0.464755 0.682620
vt 0.525645 0.682620
vt 0.464755 0.743511
vt 0.403864 0.682620
vt 0.586535 0.682620
vt 0.525645 0.743511
vt 0.464755 0.804401
vt 0.403864 0.621730
vt 0.586535 0.621730
vt 0.525645 0.804401
vt 0.815112 0.161921
vt 0.864537 0.161921
vt 0.864537 0.256125
vt 0.815112 0.256125
vt 0.913963 0.161921
vt 0.913963 0.256125
vt 0.963389 0.161921
vt 0.963389 0.256125
vt 0.838808 0.451447
vt 0.838808 0.292416
vt 0.976534 0.371931
vt 0.864537 0.340207
vt 0.913963 0.340207
vt 0.913963 0.384894
vt 0.864537 0.384894
vt 0.815112 0.340207
vt 0.815112 0.384894
vt 0.963389 0.340207
vt 0.963389 0.384894
vt 0.028020 0.672186
vt 0.175786 0.672186
vt 0.175786 0.784617
vt 0.028020 0.784617
vt 0.028020 0.672186
vt 0.028020 0.784617
vt 0.175786 0.784617
vt 0.175786 0.672186
vn -0.139211 -0.983171 0.118298
vn -0.416807 -0.904768 0.087560
vn -0.416807 -0.904768 -0.087560
vn -0.139211 -0.983171 -0.118298
vn -0.940149 -0.332005 0.076766
vn -0.987896 -0.115111 0.103981
vn -0.987896 -0.115111 -0.103981
vn -0.940149 -0.332005 -0.076766
vn -0.120465 -0.113478 0.986210
vn -0.089814 -0.330310 0.939590
vn 0.089814 -0.330310 0.939590
vn 0.120465 -0.113478 0.986210
vn -0.102256 -0.904227 0.414629
vn -0.139211 -0.983171 0.118298
vn 0.139211 -0.983171 0.118298
vn 0.102256 -0.904227 0.414629
vn -0.987896 -0.115111 0.103981
vn -0.924951 -0.085383 0.370373
vn -0.924951 0.085383 0.370373
vn -0.987896 0.115111 0.103981
vn -0.370373 -0.085383 0.924951
vn -0.120465 -0.113478 0.986210
vn -0.120465 0.113478 0.986210
vn -0.370373 0.085383 0.924951
vn 0.987896 -0.115111 0.103981
vn 0.940149 -0.332005 0.076766
vn 0.940149 -0.332005 -0.076766
vn 0.987896 -0.115111 -0.103981
vn 0.416807 -0.904768 0.087560
vn 0.139211 -0.983171 0.118298
vn 0.139211 -0.983171 -0.118298
vn 0.416807 -0.904768 -0.087560
vn 0.120465 -0.113478 0.986210
vn 0.370373 -0.085383 0.924951
vn 0.370373 0.085383 0.924951
vn 0.120465 0.113478 0.986210
vn 0.924951 -0.085383 0.370373
vn 0.987896 -0.115111 0.103981
vn 0.987896 0.115111 0.103981
vn 0.924951 0.085383 0.370373
vn -0.987896 0.115111 0.103981
vn -0.940149 0.332005 0.076766
vn -0.940149 0.332005 -0.076766
vn -0.987896 0.115111 -0.103981
vn -0.416807 0.904768 0.087560
vn -0.139211 0.983171 0.118298
vn -0.139211 0.983171 -0.118298
vn -0.416807 0.904768 -0.087560
vn -0.139211 0.983171 0.118298
vn -0.102256 0.904227 0.414629
vn 0.102256 0.904227 0.414629
vn 0.139211 0.983171 0.118298
vn -0.089814 0.330310 0.939590
vn -0.120465 0.113478 0.986210
vn 0.120465 0.113478 0.986210
vn 0.089814 0.330310 0.939590
vn 0.139211 0.983171 0.118298
vn 0.416807 0.904768 0.087560
vn 0.416807 0.904768 -0.087560
vn 0.139211 0.983171 -0.118298
vn 0.940149 0.332005 0.076766
vn 0.987896 0.115111 0.103981
vn 0.987895 0.115111 -0.103981
vn 0.940149 0.332005 -0.076766
vn -0.987896 0.115111 -0.103981
vn -0.924951 0.085383 -0.370373
vn -0.924951 -0.085383 -0.370373
vn -0.987896 -0.115111 -0.103981
vn -0.370373 0.085383 -0.924951
vn -0.120465 0.113478 -0.986210
vn -0.120465 -0.113478 -0.986210
vn -0.370373 -0.085383 -0.924951
vn -0.120465 0.113478 -0.986210
vn -0.089814 0.330310 -0.939590
vn 0.089814 0.330310 -0.939590
vn 0.120465 0.113478 -0.986210
vn -0.102256 0.904227 -0.414629
vn -0.139211 0.983171 -0.118298
vn 0.139211 0.983171 -0.118298
vn 0.102256 0.904227 -0.414629
vn 0.120465 0.113478 -0.986210
vn 0.370373 0.085383 -0.924951
vn 0.370373 -0.085383 -0.924951
vn 0.120465 -0.113478 -0.986210
vn 0.924951 0.085383 -0.370373
vn 0.987895 0.115111 -0.103981
vn 0.987896 -0.115111 -0.103981
vn 0.924951 -0.085383 -0.370373
vn -0.139211 -0.983171 -0.118298
vn -0.102256 -0.904227 -0.414629
vn 0.102256 -0.904227 -0.414629
vn 0.139211 -0.983171 -0.118298
vn -0.089814 -0.330310 -0.939590
vn -0.120465 -0.113478 -0.986210
vn 0.120465 -0.113478 -0.986210
vn 0.089814 -0.330310 -0.939590
vn -0.120465 -0.113478 0.986210
vn 0.120465 -0.113478 0.986210
vn 0.120465 0.113478 0.986210
vn -0.120465 0.113478 0.986210
vn -0.139211 0.983171 0.118298
vn 0.139211 0.983171 0.118298
vn 0.139211 0.983171 -0.118298
vn -0.139211 0.983171 -0.118298
vn -0.120465 0.113478 -0.986210
vn 0.120465 0.113478 -0.986210
vn 0.120465 -0.113478 -0.986210
vn -0.120465 -0.113478 -0.986210
vn -0.139211 -0.983171 -0.118298
vn 0.139211 -0.983171 -0.118298
vn 0.139211 -0.983171 0.118298
vn -0.139211 -0.983171 0.118298
vn 0.987896 -0.115111 0.103981
vn 0.987896 -0.115111 -0.103981
vn 0.987895 0.115111 -0.103981
vn 0.987896 0.115111 0.103981
vn -0.987896 -0.115111 -0.103981
vn -0.987896 -0.115111 0.103981
vn -0.987896 0.115111 0.103981
vn -0.987896 0.115111 -0.103981
vn -0.924951 -0.085383 0.370373
vn -0.987896 -0.115111 0.103981
vn -0.940149 -0.332005 0.076766
vn -0.899127 -0.288239 0.329375
vn -0.416807 -0.904768 0.087560
vn -0.139211 -0.983171 0.118298
vn -0.102256 -0.904227 0.414629
vn -0.360219 -0.860514 0.360219
vn -0.089814 -0.330310 0.939590
vn -0.120465 -0.113478 0.986210
vn -0.370373 -0.085383 0.924951
vn -0.329376 -0.288239 0.899127
vn 0.102256 -0.904227 0.414629
vn 0.139211 -0.983171 0.118298
vn 0.416807 -0.904768 0.087560
vn 0.360219 -0.860514 0.360219
vn 0.940149 -0.332005 0.076766
vn 0.987896 -0.115111 0.103981
vn 0.924951 -0.085383 0.370373
vn 0.899127 -0.288239 0.329376
vn 0.370373 -0.085383 0.924951
vn 0.120465 -0.113478 0.986210
vn 0.089814 -0.330310 0.939590
vn 0.329376 -0.288239 0.899127
vn -0.102256 0.904227 0.414629
vn -0.139211 0.983171 0.118298
vn -0.416807 0.904768 0.087560
vn -0.360219 0.860514 0.360219
vn -0.940149 0.332005 0.076766
vn -0.987896 0.115111 0.103981
vn -0.924951 0.085383 0.370373
vn -0.899127 0.288239 0.329375
vn -0.370373 0.085383 0.924951
vn -0.120465 0.113478 0.986210
vn -0.089814 0.330310 0.939590
vn -0.329376 0.288239 0.899127
vn 0.924951 0.085383 0.370373
vn 0.987896 0.115111 0.103981
vn 0.940149 0.332005 0.076766
vn 0.899127 0.288239 0.329376
vn 0.416807 0.904768 0.087560
vn 0.139211 0.983171 0.118298
vn 0.102256 0.904227 0.414629
vn 0.360219 0.860514 0.360219
vn 0.089814 0.330310 0.939590
vn 0.120465 0.113478 0.986210
vn 0.370373 0.085383 0.924951
vn 0.329376 0.288239 0.899127
vn -0.089814 0.330310 -0.939590
vn -0.120465 0.113478 -0.986210
vn -0.370373 0.085383 -0.924951
vn -0.329376 0.288239 -0.899127
vn -0.924951 0.085383 -0.370373
vn -0.987896 0.115111 -0.103981
vn -0.940149 0.332005 -0.076766
vn -0.899127 0.288239 -0.329375
vn -0.416807 0.904768 -0.087560
vn -0.139211 0.983171 -0.118298
vn -0.102256 0.904227 -0.414629
vn -0.360219 0.860514 -0.360219
vn 0.940149 0.332005 -0.076766
vn 0.987895 0.115111 -0.103981
vn 0.924951 0.085383 -0.370373
vn 0.899127 0.288239 -0.329376
vn 0.370373 0.085383 -0.924951
vn 0.120465 0.113478 -0.986210
vn 0.089814 0.330310 -0.939590
vn 0.329375 0.288239 -0.899127
vn 0.102256 0.904227 -0.414629
vn 0.139211 0.983171 -0.118298
vn 0.416807 0.904768 -0.087560
vn 0.360219 0.860514 -0.360219
vn -0.102256 -0.904227 -0.414629
vn -0.139211 -0.983171 -0.118298
vn -0.416807 -0.904768 -0.087560
vn -0.360219 -0.860514 -0.360219
vn -0.940149 -0.332005 -0.076766
vn -0.987896 -0.115111 -0.103981
vn -0.924951 -0.085383 -0.370373
vn -0.899127 -0.288239 -0.329375
vn -0.370373 -0.085383 -0.924951
vn -0.120465 -0.113478 -0.986210
vn -0.089814 -0.330310 -0.939590
vn -0.329376 -0.288239 -0.899127
vn 0.924951 -0.085383 -0.370373
vn 0.987896 -0.115111 -0.103981
vn 0.940149 -0.332005 -0.076766
vn 0.899127 -0.288239 -0.329375
vn 0.416807 -0.904768 -0.087560
vn 0.139211 -0.983171 -0.118298
vn 0.102256 -0.904227 -0.414629
vn 0.360219 -0.860514 -0.360219
vn 0.089814 -0.330310 -0.939590
vn 0.120465 -0.113478 -0.986210
vn 0.370373 -0.085383 -0.924951
vn 0.329376 -0.288239 -0.899127
vn -0.949052 -0.282886 0.138834
vn -0.949053 -0.282886 0.138834
vn -0.994948 0.047779 0.088290
vn -0.995095 0.042979 0.089103
vn 0.547038 -0.171815 0.819286
vn 0.547038 -0.171815 0.819286
vn 0.567054 0.091537 0.818579
vn 0.566749 0.125704 0.814245
vn 0.392718 0.430617 -0.812614
vn 0.392718 0.430617 -0.812614
vn 0.414712 -0.170670 -0.893804
vn 0.418088 -0.131855 -0.898786
vn 0.125517 0.991888 0.020102
vn 0.125517 0.991888 0.020102
vn 0.125517 0.991888 0.020102
vn 0.515974 0.251380 0.818889
vn 0.487316 0.130788 0.863376
vn 0.370669 -0.197717 0.907476
vn 0.370669 -0.197717 0.907476
vn -0.915928 0.398210 -0.050056
vn -0.909936 0.414271 -0.019921
vn -0.925162 0.361588 -0.115457
vn -0.925162 0.361588 -0.115457
vn 0.398274 -0.554722 -0.730521
vn 0.393017 -0.562337 -0.727540
vn 0.586715 -0.176318 -0.790365
vn 0.586715 -0.176318 -0.790365
vn 0.566749 0.125704 0.814245
vn 0.567054 0.091537 0.818579
vn 0.487316 0.130788 0.863376
vn 0.515974 0.251380 0.818889
vn -0.995095 0.042979 0.089103
vn -0.994948 0.047779 0.088290
vn -0.909936 0.414271 -0.019921
vn -0.915928 0.398210 -0.050056
vn 0.418088 -0.131855 -0.898786
vn 0.414712 -0.170670 -0.893804
vn 0.393017 -0.562337 -0.727540
vn 0.398274 -0.554722 -0.730521
vn 0.000000 0.000000 1.000000
vn 0.000000 0.000000 1.000000
vn 0.000000 0.000000 1.000000
vn 0.000000 0.000000 1.000000
vn 0.000000 0.000000 -1.000000
vn 0.000000 0.000000 -1.000000
vn 0.000000 0.000000 -1.000000
vn 0.000000 0.000000 -1.000000
s off
g Prop_Fruta_Manzana:Fruta_Manzana
f 2/1/1 1/2/2 37/3/3 42/4/4
f 1/5/5 6/6/6 38/7/7 37/8/8
f 4/9/9 3/10/10 11/11/11 10/12/12
f 3/13/13 2/1/14 12/14/15 11/15/16
f 6/6/17 5/16/18 15/17/19 14/18/20
f 5/16/21 4/9/22 16/19/23 15/17/24
f 8/20/25 7/21/26 43/22/27 48/23/28
f 7/24/29 12/14/30 44/25/31 43/26/32
f 10/12/33 9/27/34 23/28/35 22/29/36
f 9/27/37 8/20/38 24/30/39 23/28/40
f 14/18/41 13/31/42 27/32/43 26/33/44
f 13/34/45 18/35/46 28/36/47 27/37/48
f 18/35/49 17/38/50 21/39/51 20/40/52
f 17/38/53 16/19/54 22/29/55 21/39/56
f 20/40/57 19/41/58 35/42/59 34/43/60
f 19/44/61 24/30/62 36/45/63 35/46/64
f 26/33/65 25/47/66 39/48/67 38/7/68
f 25/49/69 30/50/70 40/51/71 39/52/72
f 30/50/73 29/53/74 33/54/75 32/55/76
f 29/53/77 28/36/78 34/43/79 33/54/80
f 32/55/81 31/56/82 47/57/83 46/58/84
f 31/59/85 36/45/86 48/23/87 47/60/88
f 42/4/89 41/61/90 45/62/91 44/25/92
f 41/61/93 40/51/94 46/58/95 45/62/96
f 4/9/97 10/12/98 22/29/99 16/19/100
f 18/35/101 20/40/102 34/43/103 28/36/104
f 30/50/105 32/55/106 46/58/107 40/51/108
f 42/4/109 44/25/110 12/14/111 2/1/112
f 8/20/113 48/23/114 36/45/115 24/30/116
f 38/7/117 6/6/118 14/18/119 26/33/120
f 5/16/121 6/6/122 1/5/123 49/63/124
f 1/2/125 2/1/126 3/13/127 49/64/128
f 3/10/129 4/9/130 5/16/131 49/63/132
f 11/15/133 12/14/134 7/24/135 50/65/136
f 7/21/137 8/20/138 9/27/139 50/66/140
f 9/27/141 10/12/142 11/11/143 50/66/144
f 17/38/145 18/35/146 13/34/147 51/67/148
f 13/31/149 14/18/150 15/17/151 51/67/152
f 15/17/153 16/19/154 17/38/155 51/67/156
f 23/28/157 24/30/158 19/44/159 52/68/160
f 19/41/161 20/40/162 21/39/163 52/68/164
f 21/39/165 22/29/166 23/28/167 52/68/168
f 29/53/169 30/50/170 25/49/171 53/69/172
f 25/47/173 26/33/174 27/32/175 53/70/176
f 27/37/177 28/36/178 29/53/179 53/69/180
f 35/46/181 36/45/182 31/59/183 54/71/184
f 31/56/185 32/55/186 33/54/187 54/72/188
f 33/54/189 34/43/190 35/42/191 54/72/192
f 41/61/193 42/4/194 37/3/195 55/73/196
f 37/8/197 38/7/198 39/48/199 55/74/200
f 39/52/201 40/51/202 41/61/203 55/73/204
f 47/60/205 48/23/206 43/22/207 56/75/208
f 43/26/209 44/25/210 45/62/211 56/76/212
f 45/62/213 46/58/214 47/57/215 56/76/216
f 57/77/217 58/78/218 67/79/219 68/80/220
f 58/78/221 59/81/222 66/82/223 67/79/224
f 59/81/225 57/83/226 68/84/227 66/82/228
f 60/85/229 61/86/230 62/87/231
f 64/88/232 63/89/233 62/90/234 61/91/235
f 65/92/236 64/88/237 61/91/238 60/93/239
f 63/89/240 65/94/241 60/95/242 62/90/243
f 67/79/244 66/82/245 63/89/246 64/88/247
f 68/80/248 67/79/249 64/88/250 65/92/251
f 66/82/252 68/84/253 65/94/254 63/89/255
f 69/96/256 70/97/257 72/98/258 71/99/259
f 73/100/260 75/101/261 76/102/262 74/103/263
