# This file uses centimeters as units for non-parametric coordinates.

g default
v -0.119532 -0.130313 0.115395
v 0.119532 -0.130313 0.115395
v -0.081868 0.130313 0.079035
v 0.081868 0.130313 0.079035
v -0.081868 0.130313 -0.079035
v 0.081868 0.130313 -0.079035
v -0.119532 -0.130313 -0.115395
v 0.119532 -0.130313 -0.115395
vt 0.667443 0.278351
vt 0.731876 0.278351
vt 0.731876 0.342784
vt 0.582082 0.571394
vt 0.617819 0.607131
vt 0.667443 0.407216
vt 0.731876 0.471649
vt 0.582082 0.642869
vt 0.617819 0.678606
vt 0.582082 0.678606
vt 0.796309 0.278351
vt 0.796309 0.342784
vt 0.603010 0.278351
vt 0.603010 0.342784
vt 0.667443 0.471649
vt 0.617819 0.642869
vt 0.582082 0.607131
vt 0.667443 0.342784
vt 0.731876 0.407216
vt 0.617819 0.571394
vn 0.000000 0.138175 0.990408
vn 0.000000 0.138175 0.990408
vn 0.000000 0.138175 0.990408
vn 0.000000 0.138175 0.990408
vn 0.000000 1.000000 0.000000
vn 0.000000 1.000000 0.000000
vn 0.000000 1.000000 0.000000
vn 0.000000 1.000000 0.000000
vn 0.000000 0.138175 -0.990408
vn 0.000000 0.138175 -0.990408
vn 0.000000 0.138175 -0.990408
vn 0.000000 0.138175 -0.990408
vn 0.000000 -1.000000 0.000000
vn 0.000000 -1.000000 0.000000
vn 0.000000 -1.000000 0.000000
vn 0.000000 -1.000000 0.000000
vn 0.989719 0.143028 0.000000
vn 0.989719 0.143028 0.000000
vn 0.989719 0.143028 0.000000
vn 0.989719 0.143028 0.000000
vn -0.989719 0.143028 0.000000
vn -0.989719 0.143028 0.000000
vn -0.989719 0.143028 0.000000
vn -0.989719 0.143028 0.000000
s off
g Prop_Caja_7:Caja_7
f 1/1/1 2/2/2 4/3/3 3/18/4
f 3/4/5 4/20/6 6/5/7 5/17/8
f 5/6/9 6/19/10 8/7/11 7/15/12
f 7/8/13 8/16/14 2/9/15 1/10/16
f 2/2/17 8/11/18 6/12/19 4/3/20
f 7/13/21 1/1/22 3/18/23 5/14/24
