# This file uses centimeters as units for non-parametric coordinates.

g default
v -0.022297 0.193548 0.006831
v -0.016385 0.193548 0.017283
v -0.011136 0.193548 0.019097
v 0.022297 0.193548 0.006831
v 0.011136 0.193548 0.019097
v 0.016385 0.193548 0.017283
v -0.016385 0.193548 -0.017283
v -0.022297 0.193548 -0.006831
v -0.011136 0.193548 -0.019097
v 0.016385 0.193548 -0.017283
v 0.011136 0.193548 -0.019097
v 0.022297 0.193548 -0.006831
v 0.052059 0.071372 0.065798
v 0.035382 0.071372 0.072705
v -0.035382 0.071372 0.072705
v -0.052059 0.071372 0.065798
v -0.058967 0.071372 0.049121
v -0.058967 0.071372 -0.049121
v -0.052059 0.071372 -0.065798
v -0.035382 0.071372 -0.072705
v 0.035382 0.071372 -0.072705
v 0.052059 0.071372 -0.065798
v 0.058967 0.071372 -0.049121
v 0.058967 0.071372 0.049121
v 0.037962 0.086254 0.047980
v 0.025801 0.086254 0.053017
v -0.025801 0.086254 0.053017
v -0.037962 0.086254 0.047980
v -0.042999 0.086254 0.035819
v -0.042999 0.086254 -0.035819
v -0.037962 0.086254 -0.047980
v -0.025801 0.086254 -0.053017
v 0.025801 0.086254 -0.053017
v 0.037962 0.086254 -0.047980
v 0.042999 0.086254 -0.035819
v 0.042999 0.086254 0.035819
v 0.016385 0.168252 0.017283
v 0.011136 0.168252 0.019097
v -0.011136 0.168252 0.019097
v -0.016385 0.168252 0.017283
v -0.022297 0.168252 0.006831
v -0.022297 0.168252 -0.006831
v -0.016385 0.168252 -0.017283
v -0.011136 0.168252 -0.019097
v 0.011136 0.168252 -0.019097
v 0.016385 0.168252 -0.017283
v 0.022297 0.168252 -0.006831
v 0.022297 0.168252 0.006831
v -0.022297 0.193548 0.006644
v 0.019685 0.193548 0.006820
v 0.019685 0.193549 -0.006831
v 0.011136 0.193548 0.017283
v 0.013379 0.193548 0.006794
v 0.013379 0.193549 -0.006831
v 0.011136 0.193548 -0.017283
v -0.011136 0.193548 -0.017283
v -0.013379 0.193549 -0.006831
v -0.013379 0.193548 0.006681
v -0.011136 0.193548 0.017283
v -0.019685 0.193548 0.006655
v -0.019685 0.193548 -0.006831
v 0.022297 0.097753 0.006831
v 0.022297 0.097753 -0.006831
v 0.016385 0.097753 -0.017283
v 0.011136 0.097753 -0.019097
v -0.011136 0.097753 -0.019097
v -0.016385 0.097753 -0.017283
v -0.022297 0.097753 -0.006831
v -0.022297 0.097753 0.006831
v -0.016385 0.097753 0.017283
v -0.011136 0.097753 0.019097
v 0.011136 0.097753 0.019097
v 0.016385 0.097753 0.017283
v 0.020514 0.168252 0.021638
v 0.013943 0.168252 0.023910
v 0.020514 0.193548 0.021638
v 0.013943 0.193548 0.023910
v -0.013943 0.193548 0.023910
v -0.013943 0.168252 0.023910
v -0.020514 0.168252 0.021638
v -0.020514 0.193548 0.021638
v -0.027917 0.168252 0.008552
v -0.027917 0.193548 0.008552
v -0.027917 0.193548 -0.008552
v -0.027917 0.168252 -0.008552
v -0.027917 0.193548 0.008318
v -0.020514 0.193548 -0.021638
v -0.020514 0.168252 -0.021638
v -0.013943 0.193548 -0.023910
v -0.013943 0.168252 -0.023910
v 0.013943 0.168252 -0.023910
v 0.013943 0.193548 -0.023910
v 0.020514 0.193548 -0.021638
v 0.020514 0.168252 -0.021638
v 0.027917 0.193548 -0.008552
v 0.027917 0.168252 -0.008552
v 0.027917 0.193548 0.008552
v 0.027917 0.168252 0.008552
v -0.033216 -0.193549 0.061812
v -0.035382 -0.182655 0.072705
v 0.035382 -0.182655 0.072705
v 0.033216 -0.193549 0.061812
v -0.058967 -0.182655 0.049121
v -0.048073 -0.193549 0.046954
v -0.048073 -0.193549 -0.046954
v -0.058967 -0.182655 -0.049121
v -0.035382 -0.182655 -0.072705
v -0.033216 -0.193549 -0.061812
v 0.033216 -0.193549 -0.061812
v 0.035382 -0.182655 -0.072705
v 0.048073 -0.193549 0.046954
v 0.058967 -0.182655 0.049121
v 0.058967 -0.182655 -0.049121
v 0.048073 -0.193549 -0.046954
v -0.052059 -0.182655 0.065798
v -0.043722 -0.193549 0.057460
v 0.052059 -0.182655 0.065798
v 0.043722 -0.193549 0.057460
v -0.043722 -0.193549 -0.057460
v -0.052059 -0.182655 -0.065798
v 0.043722 -0.193549 -0.057460
v 0.052059 -0.182655 -0.065798
vt 0.341409 0.250000
vt 0.375000 0.283591
vt 0.375000 0.250000
vt 0.416750 0.248329
vt 0.625000 0.283591
vt 0.658591 0.250000
vt 0.583250 0.248329
vt 0.625000 0.250000
vt 0.375000 0.500000
vt 0.125000 0.250000
vt 0.375000 0.466409
vt 0.158591 0.250000
vt 0.416748 0.501660
vt 0.625000 0.500000
vt 0.875000 0.250000
vt 0.583252 0.501660
vt 0.841409 0.250000
vt 0.625000 0.466409
vt 0.375000 0.578905
vt 0.875000 0.171095
vt 0.625000 0.180706
vt 0.583118 0.179498
vt 0.416882 0.179498
vt 0.375000 0.180706
vt 0.341409 0.180706
vt 0.158591 0.180706
vt 0.125000 0.180706
vt 0.375000 0.569294
vt 0.416748 0.570034
vt 0.583252 0.570034
vt 0.625000 0.569294
vt 0.875000 0.180706
vt 0.841409 0.180706
vt 0.658591 0.180706
vt 0.625000 0.233663
vt 0.583219 0.232101
vt 0.416781 0.232101
vt 0.375000 0.233663
vt 0.341409 0.233663
vt 0.158591 0.233663
vt 0.125000 0.233663
vt 0.375000 0.516337
vt 0.416748 0.517780
vt 0.583252 0.517780
vt 0.625000 0.516337
vt 0.875000 0.233663
vt 0.841409 0.233663
vt 0.658591 0.233663
vt 0.338901 0.250000
vt 0.375000 0.286099
vt 0.610357 0.283738
vt 0.610357 0.466409
vt 0.584958 0.250000
vt 0.575005 0.284092
vt 0.575005 0.466409
vt 0.584957 0.500000
vt 0.415043 0.500000
vt 0.424995 0.466409
vt 0.424995 0.285598
vt 0.415043 0.250000
vt 0.389643 0.285952
vt 0.389643 0.466409
vt 0.658591 0.188132
vt 0.841409 0.188132
vt 0.625000 0.561868
vt 0.875000 0.188132
vt 0.583252 0.562706
vt 0.416748 0.562706
vt 0.125000 0.188132
vt 0.375000 0.561868
vt 0.158591 0.188132
vt 0.341409 0.188132
vt 0.375000 0.188132
vt 0.416868 0.186875
vt 0.583132 0.186875
vt 0.625000 0.188132
vt 0.583219 0.232101
vt 0.625000 0.233663
vt 0.625000 0.250000
vt 0.583250 0.248329
vt 0.416781 0.232101
vt 0.416750 0.248329
vt 0.375000 0.233663
vt 0.375000 0.250000
vt 0.341409 0.233663
vt 0.341409 0.250000
vt 0.158591 0.233663
vt 0.338901 0.250000
vt 0.158591 0.250000
vt 0.125000 0.250000
vt 0.125000 0.233663
vt 0.375000 0.500000
vt 0.416748 0.501660
vt 0.416748 0.517780
vt 0.375000 0.516337
vt 0.583252 0.517780
vt 0.583252 0.501660
vt 0.625000 0.500000
vt 0.625000 0.516337
vt 0.875000 0.250000
vt 0.841409 0.250000
vt 0.841409 0.233663
vt 0.875000 0.233663
vt 0.658591 0.233663
vt 0.658591 0.250000
vt 0.412159 0.000000
vt 0.385556 0.000000
vt 0.422296 0.000000
vt 0.577704 0.000000
vt 0.587842 0.000000
vt 0.614445 0.000000
vt 0.345442 0.000000
vt 0.366604 0.000000
vt 0.337377 0.000000
vt 0.162623 0.000000
vt 0.154558 0.000000
vt 0.125000 0.007035
vt 0.133397 0.000000
vt 0.625000 0.742965
vt 0.654559 0.000000
vt 0.633397 0.000000
vt 0.662623 0.000000
vt 0.837377 0.000000
vt 0.845442 0.000000
vt 0.866603 0.000000
vt 0.416901 0.169951
vt 0.582786 0.006991
vt 0.416748 0.741398
vt 0.583252 0.579517
vt 0.658591 0.171095
vt 0.841409 0.007035
vt 0.158591 0.171095
vt 0.341409 0.007038
vt 0.375000 0.007038
vt 0.341409 0.171095
vt 0.417214 0.006988
vt 0.375000 0.171095
vt 0.625000 0.007038
vt 0.583099 0.169951
vt 0.658591 0.007035
vt 0.625000 0.171095
vt 0.125000 0.171095
vt 0.158591 0.007035
vt 0.416748 0.579517
vt 0.375000 0.742965
vt 0.625000 0.578905
vt 0.583252 0.741399
vt 0.841409 0.171095
vt 0.875000 0.007035
vt 0.601908 0.787623
vt 0.605495 0.957620
vt 0.597704 0.975271
vt 0.576546 0.980649
vt 0.420433 0.984142
vt 0.393830 0.984142
vt 0.393582 0.963165
vt 0.398092 0.787623
vt 0.404033 0.768502
vt 0.425461 0.760998
vt 0.581555 0.758028
vt 0.600005 0.766794
vn -0.000000 1.000000 0.000002
vn -0.000000 1.000000 -0.000001
vn -0.000000 1.000000 -0.000000
vn -0.000000 1.000000 0.000001
vn 0.058356 0.809845 0.583734
vn 0.215379 0.826585 0.519971
vn 0.175148 0.886446 0.428412
vn 0.035233 0.870412 0.491062
vn -0.035234 0.870412 0.491062
vn -0.058356 0.809845 0.583734
vn -0.215378 0.826585 0.519971
vn -0.175147 0.886446 0.428413
vn -0.652096 0.755556 0.062494
vn -0.554317 0.800009 0.229606
vn -0.468021 0.860392 0.201698
vn -0.601744 0.797577 0.042136
vn -0.601744 0.797577 -0.042136
vn -0.652096 0.755557 -0.062494
vn -0.468020 0.860392 -0.201698
vn -0.554316 0.800009 -0.229605
vn -0.175149 0.886446 -0.428412
vn -0.035234 0.870412 -0.491061
vn -0.058357 0.809846 -0.583733
vn -0.215380 0.826585 -0.519970
vn 0.058357 0.809846 -0.583733
vn 0.035234 0.870412 -0.491062
vn 0.175148 0.886446 -0.428412
vn 0.215379 0.826585 -0.519970
vn 0.468020 0.860392 -0.201700
vn 0.601744 0.797577 -0.042136
vn 0.652096 0.755557 -0.062495
vn 0.554316 0.800009 -0.229606
vn 0.601744 0.797577 0.042136
vn 0.652096 0.755556 0.062494
vn 0.554317 0.800009 0.229605
vn 0.468021 0.860392 0.201698
vn 0.051863 0.592411 0.803965
vn 0.265672 0.613342 0.743794
vn 0.326707 0.000000 0.945126
vn 0.065784 0.000000 0.997834
vn -0.065784 0.000000 0.997834
vn -0.051863 0.592411 0.803965
vn -0.265671 0.613341 0.743795
vn -0.326707 0.000000 0.945126
vn -0.827321 0.541461 0.149530
vn -0.784714 0.444322 0.432206
vn -0.870389 0.000000 0.492365
vn -0.971233 0.000000 0.238132
vn -0.971233 0.000000 -0.238132
vn -0.827321 0.541461 -0.149531
vn -0.870389 0.000000 -0.492365
vn -0.784714 0.444322 -0.432206
vn -0.326707 0.000000 -0.945126
vn -0.065784 0.000000 -0.997834
vn -0.051863 0.592411 -0.803965
vn -0.265673 0.613342 -0.743794
vn 0.051863 0.592411 -0.803965
vn 0.065784 0.000000 -0.997834
vn 0.326707 0.000000 -0.945126
vn 0.265672 0.613341 -0.743795
vn 0.870389 0.000000 -0.492365
vn 0.971233 0.000000 -0.238132
vn 0.827321 0.541461 -0.149530
vn 0.784714 0.444322 -0.432207
vn 0.971233 0.000000 0.238132
vn 0.827321 0.541461 0.149531
vn 0.784714 0.444322 0.432206
vn 0.870389 0.000000 0.492365
vn 0.065783 0.000000 0.997834
vn 0.326704 0.000000 0.945127
vn 0.326704 0.000000 0.945127
vn 0.065783 0.000000 0.997834
vn -0.065783 0.000000 0.997834
vn -0.065783 0.000000 0.997834
vn -0.326705 0.000000 0.945126
vn -0.326705 0.000000 0.945126
vn -0.971233 0.000000 0.238132
vn -0.870389 0.000000 0.492365
vn -0.870389 0.000000 0.492365
vn -0.971233 0.000000 0.238132
vn -0.971233 0.000000 -0.238132
vn -0.971233 0.000000 -0.238132
vn -1.000000 0.000000 0.000000
vn -0.870389 0.000000 -0.492365
vn -0.870389 0.000000 -0.492365
vn -0.326705 0.000000 -0.945126
vn -0.065783 0.000000 -0.997834
vn -0.065783 0.000000 -0.997834
vn -0.326705 0.000000 -0.945126
vn 0.065783 0.000000 -0.997834
vn 0.065783 0.000000 -0.997834
vn 0.326705 0.000000 -0.945127
vn 0.326705 0.000000 -0.945127
vn 0.870389 0.000000 -0.492365
vn 0.971233 0.000000 -0.238132
vn 0.971233 0.000000 -0.238132
vn 0.870389 0.000000 -0.492365
vn 0.971233 0.000000 0.238132
vn 0.971233 0.000000 0.238132
vn 0.870389 0.000000 0.492365
vn 0.870389 0.000000 0.492365
vn -0.000001 1.000000 0.000002
vn -0.000000 1.000000 0.000001
vn -0.000001 1.000000 0.000000
vn -0.000000 1.000000 0.000000
vn -0.000001 1.000000 -0.000003
vn -0.000000 1.000000 -0.000003
vn -0.000001 1.000000 0.000000
vn -0.000000 1.000000 0.000000
vn 0.000005 1.000000 0.000001
vn 0.000001 1.000000 0.000002
vn 0.000000 1.000000 0.000002
vn 0.000007 1.000000 -0.000000
vn 0.000002 1.000000 -0.000000
vn 0.000000 1.000000 -0.000004
vn 0.000000 1.000000 -0.000002
vn -0.000001 1.000000 0.000000
vn 0.000000 1.000000 0.000000
vn -0.000000 1.000000 0.000000
vn 0.000000 1.000000 0.000000
vn 0.000003 1.000000 -0.000002
vn 0.000000 1.000000 0.000000
vn 0.000000 -1.000000 -0.000001
vn 0.000000 -1.000000 -0.000001
vn 0.000000 -1.000000 -0.000001
vn 0.000000 -1.000000 -0.000001
vn 0.000000 1.000000 -0.000002
vn 0.000000 1.000000 -0.000002
vn 0.000000 1.000000 -0.000002
vn 0.000000 1.000000 -0.000002
vn 0.000000 -1.000000 0.000000
vn 0.000000 -1.000000 0.000000
vn 0.000000 -1.000000 0.000000
vn 0.000000 -1.000000 0.000000
vn 0.000000 1.000000 -0.000000
vn 0.000000 1.000000 -0.000000
vn 0.000000 1.000000 -0.000000
vn 0.000000 1.000000 -0.000000
vn 0.000000 -1.000000 -0.000002
vn 0.000000 -1.000000 -0.000002
vn 0.000000 -1.000000 -0.000002
vn 0.000000 -1.000000 -0.000002
vn 0.000000 1.000000 0.000002
vn 0.000000 1.000000 0.000002
vn 0.000000 1.000000 0.000002
vn 0.000000 1.000000 0.000002
vn 0.000000 -1.000000 0.000000
vn 0.000000 -1.000000 0.000000
vn 0.000000 -1.000000 0.000000
vn 0.000000 -1.000000 0.000000
vn 0.000000 1.000000 0.000000
vn 0.000000 1.000000 0.000000
vn 0.000000 1.000000 0.000000
vn 0.000000 1.000000 0.000000
vn 0.000000 -1.000000 0.000000
vn 0.000000 -1.000000 0.000000
vn 0.000000 -1.000000 0.000000
vn 0.000000 -1.000000 0.000000
vn 0.000000 1.000000 0.000000
vn 0.000000 1.000000 0.000000
vn 0.000000 1.000000 0.000000
vn 0.000000 1.000000 0.000000
vn 0.000000 1.000000 0.000000
vn 0.000000 1.000000 0.000000
vn 0.000000 1.000000 0.000000
vn 0.000000 1.000000 0.000000
vn 0.000000 1.000000 0.000000
vn 0.000000 1.000000 0.000000
vn 0.000000 1.000000 0.000000
vn 0.000000 1.000000 0.000000
vn 0.000000 -1.000000 0.000001
vn 0.000000 -1.000000 0.000001
vn 0.000000 -1.000000 0.000001
vn 0.000000 -1.000000 0.000001
vn 0.000000 1.000000 -0.000002
vn 0.000000 1.000000 -0.000002
vn 0.000000 1.000000 -0.000002
vn 0.000000 1.000000 -0.000002
vn 0.000000 -1.000000 0.000001
vn 0.000000 -1.000000 0.000001
vn 0.000000 -1.000000 0.000001
vn 0.000000 -1.000000 0.000001
vn 0.000000 -1.000000 -0.000000
vn 0.000000 -1.000000 -0.000000
vn 0.000000 -1.000000 -0.000000
vn 0.000000 -1.000000 -0.000000
vn 0.000000 1.000000 0.000000
vn 0.000000 1.000000 0.000000
vn 0.000000 1.000000 0.000000
vn 0.000000 1.000000 0.000000
vn 0.000000 1.000000 0.000002
vn 0.000000 1.000000 0.000002
vn 0.000000 1.000000 0.000002
vn 0.000000 1.000000 0.000002
vn 0.000000 -1.000000 0.000000
vn 0.000000 -1.000000 0.000000
vn 0.000000 -1.000000 0.000000
vn 0.000000 -1.000000 0.000000
vn 0.000000 1.000000 0.000000
vn 0.000000 1.000000 0.000000
vn 0.000000 1.000000 0.000000
vn 0.000000 1.000000 0.000000
vn 0.000000 -1.000000 0.000001
vn 0.000000 -1.000000 0.000001
vn 0.000000 -1.000000 0.000001
vn 0.000000 -1.000000 0.000001
vn 0.000000 -1.000000 0.000000
vn 0.000000 -1.000000 0.000000
vn 0.000000 -1.000000 0.000000
vn 0.000000 -1.000000 0.000000
vn 0.000000 1.000000 0.000000
vn 0.000000 1.000000 0.000000
vn 0.000000 1.000000 0.000000
vn 0.000000 1.000000 0.000000
vn 0.000000 -1.000000 -0.000002
vn 0.000000 -1.000000 -0.000002
vn 0.000000 -1.000000 -0.000002
vn 0.000000 -1.000000 -0.000002
vn 0.000000 1.000000 0.000000
vn 0.000000 1.000000 0.000000
vn 0.000000 1.000000 0.000000
vn 0.000000 1.000000 0.000000
vn -0.048050 -0.711052 0.701496
vn -0.048050 -0.711052 0.701495
vn -0.270598 -0.707106 0.653282
vn -0.270598 -0.707106 0.653282
vn 0.048050 -0.711052 0.701496
vn 0.048050 -0.711052 0.701496
vn 0.270598 -0.707106 0.653282
vn 0.270598 -0.707106 0.653282
vn -0.703047 -0.710227 0.036091
vn -0.703047 -0.710227 0.036091
vn -0.653281 -0.707107 0.270598
vn -0.653281 -0.707107 0.270598
vn -0.703047 -0.710227 -0.036091
vn -0.703047 -0.710227 -0.036091
vn -0.653281 -0.707107 -0.270598
vn -0.653281 -0.707107 -0.270598
vn -0.048050 -0.711053 -0.701495
vn -0.048050 -0.711053 -0.701495
vn -0.270598 -0.707107 -0.653282
vn -0.270598 -0.707107 -0.653282
vn 0.048050 -0.711053 -0.701495
vn 0.048050 -0.711053 -0.701495
vn 0.270598 -0.707107 -0.653282
vn 0.270598 -0.707107 -0.653282
vn 0.703047 -0.710227 0.036091
vn 0.703047 -0.710227 0.036091
vn 0.653281 -0.707107 0.270598
vn 0.653281 -0.707107 0.270598
vn 0.703047 -0.710227 -0.036091
vn 0.703047 -0.710227 -0.036091
vn 0.653281 -0.707107 -0.270598
vn 0.653281 -0.707107 -0.270598
vn -0.078753 0.000000 0.996894
vn -0.078753 0.000000 0.996894
vn 0.078753 0.000000 0.996894
vn 0.078753 0.000000 0.996894
vn -0.078753 0.000000 -0.996894
vn -0.078753 0.000000 -0.996894
vn 0.078753 0.000000 -0.996894
vn 0.078753 0.000000 -0.996894
vn 0.998198 0.000000 0.060001
vn 0.998198 0.000000 0.060001
vn 0.998198 0.000000 -0.060001
vn 0.998198 0.000000 -0.060001
vn -0.998198 0.000000 -0.060001
vn -0.998198 0.000000 -0.060001
vn -0.998198 0.000000 0.060001
vn -0.998198 0.000000 0.060001
vn -0.923880 0.000000 0.382683
vn -0.923880 0.000000 0.382683
vn -0.382683 0.000000 0.923880
vn -0.382683 0.000000 0.923880
vn 0.382683 0.000000 0.923880
vn 0.382683 0.000000 0.923880
vn 0.923879 0.000000 0.382684
vn 0.923879 0.000000 0.382684
vn -0.923880 0.000000 -0.382683
vn -0.923880 0.000000 -0.382683
vn -0.382684 0.000000 -0.923879
vn -0.382684 0.000000 -0.923879
vn 0.382684 0.000000 -0.923879
vn 0.382684 0.000000 -0.923879
vn 0.923879 0.000000 -0.382684
vn 0.923879 0.000000 -0.382684
vn 0.000000 -1.000000 0.000000
vn 0.000000 -1.000000 0.000000
vn 0.000000 -1.000000 0.000000
vn 0.000000 -1.000000 0.000000
vn 0.000000 -1.000000 0.000000
vn 0.000000 -1.000000 0.000000
vn 0.000000 -1.000000 0.000000
vn 0.000000 -1.000000 0.000000
vn 0.000000 -1.000000 0.000000
vn 0.000000 -1.000000 0.000000
vn 0.000000 -1.000000 0.000000
vn 0.000000 -1.000000 0.000000
s 1
g Botella_2
f 53/54/1 54/55/2 57/58/3 58/59/4
s 2
f 14/139/5 13/141/6 25/21/7 26/22/8
f 27/23/9 15/126/10 14/139/5 26/22/8
f 16/137/11 15/126/10 27/23/9 28/24/12
s 3
f 17/135/13 16/137/14 28/24/15 29/25/16
f 30/26/17 18/132/18 17/135/13 29/25/16
f 30/26/17 31/27/19 19/142/20 18/132/18
s 4
f 31/28/21 32/29/22 20/144/23 19/19/24
f 21/129/25 20/144/23 32/29/22 33/30/26
f 33/30/26 34/31/27 22/146/28 21/129/25
s 5
f 34/32/29 35/33/30 23/148/31 22/20/32
f 36/34/33 24/130/34 23/148/31 35/33/30
f 13/141/35 24/130/34 36/34/33 25/21/36
s 2
f 72/75/37 73/76/38 37/35/39 38/36/40
f 39/37/41 71/74/42 72/75/37 38/36/40
f 70/73/43 71/74/42 39/37/41 40/38/44
s 3
f 69/72/45 70/73/46 40/38/47 41/39/48
f 42/40/49 68/71/50 69/72/45 41/39/48
f 42/40/49 43/41/51 67/69/52 68/71/50
s 4
f 43/42/53 44/43/54 66/68/55 67/70/56
f 65/67/57 66/68/55 44/43/54 45/44/58
f 45/44/58 46/45/59 64/65/60 65/67/57
s 5
f 46/46/61 47/47/62 63/64/63 64/66/64
f 48/48/65 62/63/66 63/64/63 47/47/62
f 73/76/67 62/63/66 48/48/65 37/35/68
s 8
f 75/77/69 74/78/70 76/79/71 77/80/72
f 78/82/73 79/81/74 75/77/69 77/80/72
f 80/83/75 79/81/74 78/82/73 81/84/76
s 9
f 82/85/77 80/83/78 81/84/79 83/86/80
f 84/89/81 85/87/82 82/85/77 83/86/80 86/88/83
f 84/89/81 87/90/84 88/91/85 85/87/82
s 10
f 87/92/86 89/93/87 90/94/88 88/95/89
f 91/96/90 90/94/88 89/93/87 92/97/91
f 92/97/91 93/98/92 94/99/93 91/96/90
s 11
f 93/100/94 95/101/95 96/102/96 94/103/97
f 97/105/98 98/104/99 96/102/96 95/101/95
f 74/78/100 98/104/99 97/105/98 76/79/101
s 1
f 52/53/102 53/54/1 58/59/4 59/60/103
f 5/7/104 52/53/102 59/60/103 3/4/105
f 54/55/2 55/56/106 56/57/107 57/58/3
f 55/56/106 11/16/108 9/13/109 56/57/107
f 4/5/110 50/51/111 6/8/112
f 12/18/113 51/52/114 50/51/111 4/5/110
f 10/14/115 51/52/114 12/18/113
f 6/8/112 52/53/102 5/7/104
f 6/8/112 50/51/111 53/54/1 52/53/102
f 50/51/111 51/52/114 54/55/2 53/54/1
f 10/14/115 55/56/106 54/55/2 51/52/114
f 10/14/115 11/16/108 55/56/106
f 56/57/107 9/13/109 7/9/116
f 61/62/117 7/9/116 8/11/118
f 60/61/119 61/62/117 8/11/118 49/50/120
f 2/3/121 60/61/119 49/50/120 1/2/122
f 3/4/105 59/60/103 2/3/121
f 59/60/103 58/59/4 60/61/119 2/3/121
f 58/59/4 57/58/3 61/62/117 60/61/119
f 57/58/3 56/57/107 7/9/116 61/62/117
s 5
f 62/63/66 36/34/33 35/33/30 63/64/63
f 64/66/64 63/64/63 35/33/30 34/32/29
s 4
f 65/67/57 64/65/60 34/31/27 33/30/26
f 33/30/26 32/29/22 66/68/55 65/67/57
f 67/70/56 66/68/55 32/29/22 31/28/21
s 3
f 68/71/50 67/69/52 31/27/19 30/26/17
f 69/72/45 68/71/50 30/26/17 29/25/16
f 29/25/16 28/24/15 70/73/46 69/72/45
s 2
f 28/24/12 27/23/9 71/74/42 70/73/43
f 72/75/37 71/74/42 27/23/9 26/22/8
f 26/22/8 25/21/7 73/76/38 72/75/37
s 5
f 25/21/36 36/34/33 62/63/66 73/76/67
s off
f 38/36/123 37/35/124 74/78/125 75/77/126
f 6/8/127 5/7/128 77/80/129 76/79/130
f 39/37/131 38/36/132 75/77/133 79/81/134
f 5/7/135 3/4/136 78/82/137 77/80/138
f 40/38/139 39/37/140 79/81/141 80/83/142
f 3/4/143 2/3/144 81/84/145 78/82/146
f 41/39/147 40/38/148 80/83/149 82/85/150
f 2/3/151 1/1/152 83/86/153 81/84/154
f 42/40/155 41/39/156 82/85/157 85/87/158
f 1/1/159 49/49/160 86/88/161 83/86/162
f 49/49/163 8/12/164 84/89/165 86/88/166
f 8/12/167 7/10/168 87/90/169 84/89/170
f 43/41/171 42/40/172 85/87/173 88/91/174
f 7/9/175 9/13/176 89/93/177 87/92/178
f 44/43/179 43/42/180 88/95/181 90/94/182
f 45/44/183 44/43/184 90/94/185 91/96/186
f 9/13/187 11/16/188 92/97/189 89/93/190
f 11/16/191 10/14/192 93/98/193 92/97/194
f 46/45/195 45/44/196 91/96/197 94/99/198
f 10/15/199 12/17/200 95/101/201 93/100/202
f 47/47/203 46/46/204 94/103/205 96/102/206
f 48/48/207 47/47/208 96/102/209 98/104/210
f 12/17/211 4/6/212 97/105/213 95/101/214
f 37/35/215 48/48/216 98/104/217 74/78/218
f 4/6/219 6/8/220 76/79/221 97/105/222
s 13
f 99/106/223 100/136/224 115/134/225 116/107/226
f 100/136/224 99/108/223 102/109/227 101/127/228
f 101/127/228 102/110/227 118/111/229 117/138/230
s 14
f 103/133/231 104/112/232 116/113/233 115/134/234
f 104/114/232 103/133/231 106/143/235 105/115/236
f 105/116/236 106/143/235 120/117/237 119/118/238
s 15
f 107/128/239 108/159/240 119/158/241 120/145/242
f 108/159/240 107/128/239 110/147/243 109/160/244
f 109/160/244 110/147/243 122/119/245 121/161/246
s 16
f 111/120/247 112/140/248 117/138/249 118/121/250
f 112/140/248 111/122/247 114/123/251 113/131/252
f 113/131/252 114/124/251 121/125/253 122/149/254
s 17
f 15/126/255 100/136/256 101/127/257 14/139/258
s 18
f 107/128/259 20/144/260 21/129/261 110/147/262
s 19
f 24/130/263 112/140/264 113/131/265 23/148/266
s 20
f 18/132/267 106/143/268 103/133/269 17/135/270
f 103/133/269 115/134/271 16/137/272 17/135/270
s 17
f 115/134/273 100/136/256 15/126/255 16/137/274
f 101/127/257 117/138/275 13/141/276 14/139/258
s 19
f 117/138/277 112/140/264 24/130/263 13/141/278
s 20
f 18/132/267 19/142/279 120/117/280 106/143/268
s 18
f 19/19/281 20/144/260 107/128/259 120/145/282
f 21/129/261 22/146/283 122/119/284 110/147/262
s 19
f 22/20/285 23/148/266 113/131/265 122/149/286
s off
f 114/150/287 111/151/288 118/152/289 102/153/290 99/154/291 116/155/292 104/156/293 105/157/294 119/158/295 108/159/296 109/160/297 121/161/298
