# This file uses centimeters as units for non-parametric coordinates.

g default
v -0.048759 -0.004311 0.126195
v 0.048759 -0.004311 0.126195
v -0.048759 0.004311 0.126195
v 0.048759 0.004311 0.126195
v -0.048759 0.004311 -0.126195
v 0.048759 0.004311 -0.126195
v -0.048759 -0.004311 -0.126195
v 0.048759 -0.004311 -0.126195
v 0.051320 0.004538 -0.111990
v -0.051320 0.004538 -0.111990
v -0.051320 -0.004538 -0.111990
v 0.051320 -0.004538 -0.111990
v 0.075339 0.034961 -0.083520
v -0.075339 0.034961 -0.083520
v -0.075339 -0.034961 -0.083520
v 0.075339 -0.034961 -0.083520
v 0.079105 0.036709 -0.057564
v -0.079105 0.036709 -0.057564
v -0.079105 -0.036709 -0.057564
v 0.079105 -0.036709 -0.057564
v 0.081554 0.037846 -0.029394
v -0.081554 0.037846 -0.029394
v -0.081554 -0.037846 -0.029394
v 0.081554 -0.037846 -0.029394
v 0.082403 0.038240 0.000000
v -0.082403 0.038240 0.000000
v -0.082403 -0.038240 0.000000
v 0.082403 -0.038240 0.000000
v 0.081554 0.037846 0.029394
v -0.081554 0.037846 0.029394
v -0.081554 -0.037846 0.029394
v 0.081554 -0.037846 0.029394
v 0.079105 0.036709 0.057564
v -0.079105 0.036709 0.057564
v -0.079105 -0.036709 0.057564
v 0.079105 -0.036709 0.057564
v 0.075339 0.034961 0.083520
v -0.075339 0.034961 0.083520
v -0.075339 -0.034961 0.083520
v 0.075339 -0.034961 0.083520
v 0.051320 0.004538 0.111990
v -0.051320 0.004538 0.111990
v -0.051320 -0.004538 0.111990
v 0.051320 -0.004538 0.111990
vt 0.375000 0.000000
vt 0.625000 0.000000
vt 0.375000 0.250000
vt 0.625000 0.250000
vt 0.375000 0.500000
vt 0.625000 0.500000
vt 0.375000 0.750000
vt 0.625000 0.750000
vt 0.375000 1.000000
vt 0.625000 1.000000
vt 0.875000 0.000000
vt 0.875000 0.250000
vt 0.125000 0.000000
vt 0.125000 0.250000
vt 0.625000 0.475000
vt 0.850000 0.250000
vt 0.150000 0.250000
vt 0.375000 0.475000
vt 0.150000 0.000000
vt 0.375000 0.775000
vt 0.625000 0.775000
vt 0.850000 0.000000
vt 0.625000 0.450000
vt 0.825000 0.250000
vt 0.175000 0.250000
vt 0.375000 0.450000
vt 0.175000 0.000000
vt 0.375000 0.800000
vt 0.625000 0.800000
vt 0.825000 0.000000
vt 0.625000 0.425000
vt 0.800000 0.250000
vt 0.200000 0.250000
vt 0.375000 0.425000
vt 0.200000 0.000000
vt 0.375000 0.825000
vt 0.625000 0.825000
vt 0.800000 0.000000
vt 0.625000 0.400000
vt 0.775000 0.250000
vt 0.225000 0.250000
vt 0.375000 0.400000
vt 0.225000 0.000000
vt 0.375000 0.850000
vt 0.625000 0.850000
vt 0.775000 0.000000
vt 0.625000 0.375000
vt 0.750000 0.250000
vt 0.250000 0.250000
vt 0.375000 0.375000
vt 0.250000 0.000000
vt 0.375000 0.875000
vt 0.625000 0.875000
vt 0.750000 0.000000
vt 0.625000 0.350000
vt 0.725000 0.250000
vt 0.275000 0.250000
vt 0.375000 0.350000
vt 0.275000 0.000000
vt 0.375000 0.900000
vt 0.625000 0.900000
vt 0.725000 0.000000
vt 0.625000 0.325000
vt 0.700000 0.250000
vt 0.300000 0.250000
vt 0.375000 0.325000
vt 0.300000 0.000000
vt 0.375000 0.925000
vt 0.625000 0.925000
vt 0.700000 0.000000
vt 0.625000 0.300000
vt 0.675000 0.250000
vt 0.325000 0.250000
vt 0.375000 0.300000
vt 0.325000 0.000000
vt 0.375000 0.950000
vt 0.625000 0.950000
vt 0.675000 0.000000
vt 0.625000 0.275000
vt 0.650000 0.250000
vt 0.350000 0.250000
vt 0.375000 0.275000
vt 0.350000 0.000000
vt 0.375000 0.975000
vt 0.625000 0.975000
vt 0.650000 0.000000
vn 0.000000 0.000000 1.000000
vn 0.000000 0.000000 1.000000
vn 0.000000 0.000000 1.000000
vn 0.000000 0.000000 1.000000
vn 0.000000 0.999873 0.015942
vn 0.000000 0.999873 0.015942
vn 0.000000 0.761949 0.647637
vn 0.000000 0.761949 0.647637
vn 0.000000 0.000000 -1.000000
vn 0.000000 0.000000 -1.000000
vn 0.000000 0.000000 -1.000000
vn 0.000000 0.000000 -1.000000
vn 0.000000 -0.761949 0.647637
vn 0.000000 -0.761949 0.647637
vn 0.000000 -0.999873 0.015942
vn 0.000000 -0.999873 0.015942
vn 0.984130 0.000000 0.177447
vn 0.782313 0.000000 0.622886
vn 0.782313 0.000000 0.622886
vn 0.984130 0.000000 0.177447
vn -0.782313 0.000000 0.622886
vn -0.984130 0.000000 0.177447
vn -0.984130 0.000000 0.177447
vn -0.782313 0.000000 0.622886
vn 0.000000 0.761949 -0.647637
vn 0.000000 0.761949 -0.647637
vn 0.000000 0.999873 -0.015942
vn 0.000000 0.999873 -0.015942
vn -0.984131 0.000000 -0.177447
vn -0.782313 0.000000 -0.622886
vn -0.782313 0.000000 -0.622886
vn -0.984131 0.000000 -0.177447
vn 0.000000 -0.999873 -0.015942
vn 0.000000 -0.999873 -0.015942
vn 0.000000 -0.761949 -0.647637
vn 0.000000 -0.761949 -0.647637
vn 0.782313 0.000000 -0.622886
vn 0.782313 0.000000 -0.622886
vn 0.984131 0.000000 -0.177447
vn 0.984131 0.000000 -0.177447
vn 0.000000 0.921149 -0.389210
vn 0.000000 0.921149 -0.389210
vn -0.953180 0.000000 -0.302405
vn -0.953180 0.000000 -0.302405
vn 0.000000 -0.921149 -0.389210
vn 0.000000 -0.921149 -0.389210
vn 0.953180 0.000000 -0.302405
vn 0.953180 0.000000 -0.302405
vn 0.000000 0.998649 -0.051954
vn 0.000000 0.998649 -0.051954
vn -0.993646 0.000000 -0.112552
vn -0.993646 0.000000 -0.112552
vn 0.000000 -0.998649 -0.051954
vn 0.000000 -0.998649 -0.051954
vn 0.993646 0.000000 -0.112552
vn 0.993646 0.000000 -0.112552
vn 0.000000 0.999663 -0.025943
vn 0.000000 0.999663 -0.025943
vn -0.998407 0.000000 -0.056420
vn -0.998407 0.000000 -0.056420
vn 0.000000 -0.999663 -0.025943
vn 0.000000 -0.999663 -0.025943
vn 0.998407 0.000000 -0.056420
vn 0.998407 0.000000 -0.056420
vn 0.000000 1.000000 0.000000
vn 0.000000 1.000000 0.000000
vn -1.000000 0.000000 -0.000000
vn -1.000000 0.000000 -0.000000
vn 0.000000 -1.000000 0.000000
vn 0.000000 -1.000000 0.000000
vn 1.000000 0.000000 -0.000000
vn 1.000000 0.000000 -0.000000
vn 0.000000 0.999663 0.025943
vn 0.000000 0.999663 0.025943
vn -0.998407 0.000000 0.056420
vn -0.998407 0.000000 0.056420
vn 0.000000 -0.999663 0.025943
vn 0.000000 -0.999663 0.025943
vn 0.998407 0.000000 0.056420
vn 0.998407 0.000000 0.056420
vn 0.000000 0.998649 0.051954
vn 0.000000 0.998649 0.051954
vn -0.993646 0.000000 0.112552
vn -0.993646 0.000000 0.112552
vn 0.000000 -0.998649 0.051954
vn 0.000000 -0.998649 0.051954
vn 0.993646 0.000000 0.112552
vn 0.993646 0.000000 0.112552
vn 0.000000 0.921149 0.389210
vn 0.000000 0.921149 0.389210
vn -0.953180 0.000000 0.302405
vn -0.953180 0.000000 0.302405
vn 0.000000 -0.921149 0.389210
vn 0.000000 -0.921149 0.389210
vn 0.953180 0.000000 0.302405
vn 0.953180 0.000000 0.302405
s off
g Caja_8
f 1/1/1 2/2/2 4/4/3 3/3/4
s 1
f 3/3/5 4/4/6 41/79/7 42/82/8
s off
f 5/5/9 6/6/10 8/8/11 7/7/12
s 2
f 43/84/13 44/85/14 2/10/15 1/9/16
s 3
f 2/2/17 44/86/18 41/80/19 4/4/20
s 4
f 43/83/21 1/1/22 3/3/23 42/81/24
s 1
f 10/18/25 9/15/26 6/6/27 5/5/28
s 4
f 7/13/29 11/19/30 10/17/31 5/14/32
s 2
f 7/7/33 8/8/34 12/21/35 11/20/36
s 3
f 9/16/37 12/22/38 8/11/39 6/12/40
s 1
f 14/26/41 13/23/42 9/15/26 10/18/25
s 4
f 11/19/30 15/27/43 14/25/44 10/17/31
s 2
f 11/20/36 12/21/35 16/29/45 15/28/46
s 3
f 13/24/47 16/30/48 12/22/38 9/16/37
s 1
f 18/34/49 17/31/50 13/23/42 14/26/41
s 4
f 15/27/43 19/35/51 18/33/52 14/25/44
s 2
f 15/28/46 16/29/45 20/37/53 19/36/54
s 3
f 17/32/55 20/38/56 16/30/48 13/24/47
s 1
f 22/42/57 21/39/58 17/31/50 18/34/49
s 4
f 19/35/51 23/43/59 22/41/60 18/33/52
s 2
f 19/36/54 20/37/53 24/45/61 23/44/62
s 3
f 21/40/63 24/46/64 20/38/56 17/32/55
s 1
f 26/50/65 25/47/66 21/39/58 22/42/57
s 4
f 23/43/59 27/51/67 26/49/68 22/41/60
s 2
f 23/44/62 24/45/61 28/53/69 27/52/70
s 3
f 25/48/71 28/54/72 24/46/64 21/40/63
s 1
f 30/58/73 29/55/74 25/47/66 26/50/65
s 4
f 27/51/67 31/59/75 30/57/76 26/49/68
s 2
f 27/52/70 28/53/69 32/61/77 31/60/78
s 3
f 29/56/79 32/62/80 28/54/72 25/48/71
s 1
f 34/66/81 33/63/82 29/55/74 30/58/73
s 4
f 31/59/75 35/67/83 34/65/84 30/57/76
s 2
f 31/60/78 32/61/77 36/69/85 35/68/86
s 3
f 33/64/87 36/70/88 32/62/80 29/56/79
s 1
f 38/74/89 37/71/90 33/63/82 34/66/81
s 4
f 35/67/83 39/75/91 38/73/92 34/65/84
s 2
f 35/68/86 36/69/85 40/77/93 39/76/94
s 3
f 37/72/95 40/78/96 36/70/88 33/64/87
s 1
f 42/82/8 41/79/7 37/71/90 38/74/89
s 4
f 39/75/91 43/83/21 42/81/24 38/73/92
s 2
f 39/76/94 40/77/93 44/85/14 43/84/13
s 3
f 41/80/19 44/86/18 40/78/96 37/72/95
