# This file uses centimeters as units for non-parametric coordinates.

g default
v -0.047479 -0.076061 0.029801
v -0.024210 -0.087075 0.029801
v -0.024210 -0.076061 0.053070
v -0.024210 -0.049470 0.062709
v -0.047479 -0.049470 0.053070
v -0.057118 -0.049470 0.029801
v 0.047479 -0.076061 0.029801
v 0.057118 -0.049470 0.029801
v 0.047479 -0.049470 0.053070
v 0.024210 -0.049470 0.062709
v 0.024210 -0.076061 0.053070
v 0.024210 -0.087075 0.029801
v -0.047479 0.027272 0.029801
v -0.057118 0.000682 0.029801
v -0.047479 0.000682 0.053070
v -0.024210 0.000682 0.062709
v -0.024210 0.027272 0.053070
v -0.024210 0.038286 0.029801
v 0.047479 0.027272 0.029801
v 0.024210 0.038286 0.029801
v 0.024210 0.027272 0.053070
v 0.024210 0.000682 0.062709
v 0.047479 0.000682 0.053070
v 0.057118 0.000682 0.029801
v -0.047479 0.000682 -0.053070
v -0.057118 0.000682 -0.029801
v -0.047479 0.027272 -0.029801
v -0.024210 0.038286 -0.029801
v -0.024210 0.027272 -0.053070
v -0.024210 0.000682 -0.062709
v 0.047479 0.000682 -0.053070
v 0.024210 0.000682 -0.062709
v 0.024210 0.027272 -0.053070
v 0.024210 0.038286 -0.029801
v 0.047479 0.027272 -0.029801
v 0.057118 0.000682 -0.029801
v -0.047479 -0.076061 -0.029801
v -0.057118 -0.049470 -0.029801
v -0.047479 -0.049470 -0.053070
v -0.024210 -0.049470 -0.062709
v -0.024210 -0.076061 -0.053070
v -0.024210 -0.087075 -0.029801
v 0.047479 -0.076061 -0.029801
v 0.024210 -0.087075 -0.029801
v 0.024210 -0.076061 -0.053070
v 0.024210 -0.049470 -0.062709
v 0.047479 -0.049470 -0.053070
v 0.057118 -0.049470 -0.029801
v -0.043203 -0.071174 0.048793
v 0.043203 -0.071174 0.048793
v -0.043203 0.022385 0.048793
v 0.043203 0.022385 0.048793
v -0.043203 0.022385 -0.048793
v 0.043203 0.022385 -0.048793
v -0.043203 -0.071174 -0.048793
v 0.043203 -0.071174 -0.048793
v 0.008362 0.037282 -0.000022
v 0.008362 0.037282 0.008113
v 0.015407 0.037282 0.004045
v 0.014050 0.080015 -0.004821
v 0.013030 0.079981 0.003249
v 0.020363 0.079117 0.000066
v 0.017143 0.070712 -0.000450
v 0.009809 0.071576 0.002734
v 0.010830 0.071610 -0.005336
v 0.010246 0.055916 0.010763
v 0.004543 0.057761 0.015594
v 0.002640 0.056439 0.008027
v -0.010011 0.057380 0.006724
v 0.011822 0.064648 0.006724
v -0.035307 0.085371 0.006724
v -0.000831 0.087075 0.006724
v -0.010011 0.057380 0.006724
v 0.011822 0.064648 0.006724
v -0.035307 0.085371 0.006724
v -0.000831 0.087075 0.006724
vt 0.375000 0.949901
vt 0.324901 -0.000000
vt 0.437683 0.944225
vt 0.431444 -0.000000
vt 0.431444 1.000000
vt 0.438677 0.066417
vt 0.378311 0.064349
vt 0.320912 0.066861
vt 0.675099 -0.000000
vt 0.625000 0.949901
vt 0.679088 0.066861
vt 0.621689 0.064349
vt 0.561323 0.066417
vt 0.568556 1.000000
vt 0.568556 -0.000000
vt 0.562317 0.944225
vt 0.324901 0.250000
vt 0.375000 0.300099
vt 0.321010 0.182595
vt 0.378712 0.184229
vt 0.440144 0.179930
vt 0.437178 0.244259
vt 0.439190 0.303490
vt 0.625000 0.300099
vt 0.675099 0.250000
vt 0.560810 0.303490
vt 0.562822 0.244259
vt 0.559856 0.179930
vt 0.621288 0.184229
vt 0.678990 0.182595
vt 0.125000 0.190502
vt 0.375000 0.559498
vt 0.180612 0.184028
vt 0.375000 0.449901
vt 0.175099 0.250000
vt 0.439125 0.445941
vt 0.436897 0.504512
vt 0.439172 0.567090
vt 0.625000 0.559498
vt 0.875000 0.190502
vt 0.560828 0.567090
vt 0.563103 0.504512
vt 0.560875 0.445941
vt 0.824901 0.250000
vt 0.625000 0.449901
vt 0.819388 0.184028
vt 0.175099 -0.000000
vt 0.375000 0.800099
vt 0.180602 0.065882
vt 0.375000 0.690502
vt 0.125000 0.059498
vt 0.439159 0.682809
vt 0.436842 0.745292
vt 0.438937 0.803594
vt 0.625000 0.800099
vt 0.824901 -0.000000
vt 0.561063 0.803594
vt 0.563158 0.745292
vt 0.560841 0.682809
vt 0.875000 0.059498
vt 0.625000 0.690502
vt 0.819398 0.065882
vt 0.375000 1.000000
vt 0.375000 0.000000
vt 0.625000 0.000000
vt 0.625000 1.000000
vt 0.375000 0.250000
vt 0.625000 0.250000
vt 0.125000 0.250000
vt 0.375000 0.500000
vt 0.625000 0.500000
vt 0.875000 0.250000
vt 0.125000 0.000000
vt 0.375000 0.750000
vt 0.625000 0.750000
vt 0.875000 0.000000
vt 0.375000 0.312500
vt 0.458333 0.312500
vt 0.458333 0.471332
vt 0.375000 0.471332
vt 0.541667 0.312500
vt 0.541667 0.471332
vt 0.625000 0.312500
vt 0.625000 0.471332
vt 0.421875 0.979066
vt 0.421875 0.708434
vt 0.656250 0.843750
vt 0.458333 0.613097
vt 0.541667 0.613097
vt 0.541667 0.688440
vt 0.458333 0.688440
vt 0.375000 0.613097
vt 0.375000 0.688440
vt 0.625000 0.613097
vt 0.625000 0.688440
vt 0.000000 0.000000
vt 1.000000 0.000000
vt 1.000000 0.760870
vt 0.000000 0.760870
vt 0.000000 0.000000
vt 0.000000 0.760870
vt 1.000000 0.760870
vt 1.000000 0.000000
vn -0.139211 -0.983171 0.118298
vn -0.416807 -0.904768 0.087560
vn -0.416807 -0.904768 -0.087560
vn -0.139211 -0.983171 -0.118298
vn -0.940149 -0.332005 0.076766
vn -0.987896 -0.115111 0.103981
vn -0.987896 -0.115111 -0.103981
vn -0.940149 -0.332005 -0.076766
vn -0.120465 -0.113478 0.986210
vn -0.089814 -0.330310 0.939590
vn 0.089814 -0.330310 0.939590
vn 0.120465 -0.113478 0.986210
vn -0.102256 -0.904227 0.414629
vn 0.139211 -0.983171 0.118298
vn 0.102256 -0.904227 0.414629
vn -0.924951 -0.085383 0.370373
vn -0.924951 0.085383 0.370373
vn -0.987896 0.115111 0.103981
vn -0.370373 -0.085383 0.924951
vn -0.120465 0.113478 0.986210
vn -0.370373 0.085383 0.924951
vn 0.987896 -0.115111 0.103981
vn 0.940149 -0.332005 0.076766
vn 0.940149 -0.332005 -0.076766
vn 0.987896 -0.115111 -0.103981
vn 0.416807 -0.904768 0.087560
vn 0.139211 -0.983171 -0.118298
vn 0.416807 -0.904768 -0.087560
vn 0.370373 -0.085383 0.924951
vn 0.370373 0.085383 0.924951
vn 0.120465 0.113478 0.986210
vn 0.924951 -0.085383 0.370373
vn 0.987896 0.115111 0.103981
vn 0.924951 0.085383 0.370373
vn -0.940149 0.332005 0.076766
vn -0.940149 0.332005 -0.076766
vn -0.987896 0.115111 -0.103981
vn -0.416807 0.904768 0.087560
vn -0.139211 0.983171 0.118298
vn -0.139211 0.983171 -0.118298
vn -0.416807 0.904768 -0.087560
vn -0.102256 0.904227 0.414629
vn 0.102256 0.904227 0.414629
vn 0.139211 0.983171 0.118298
vn -0.089814 0.330310 0.939590
vn 0.089814 0.330310 0.939590
vn 0.416807 0.904768 0.087560
vn 0.416807 0.904768 -0.087560
vn 0.139211 0.983171 -0.118298
vn 0.940149 0.332005 0.076766
vn 0.987895 0.115111 -0.103981
vn 0.940149 0.332005 -0.076766
vn -0.924951 0.085383 -0.370373
vn -0.924951 -0.085383 -0.370373
vn -0.370373 0.085383 -0.924951
vn -0.120465 0.113478 -0.986210
vn -0.120465 -0.113478 -0.986210
vn -0.370373 -0.085383 -0.924951
vn -0.089814 0.330310 -0.939590
vn 0.089814 0.330310 -0.939590
vn 0.120465 0.113478 -0.986210
vn -0.102256 0.904227 -0.414629
vn 0.102256 0.904227 -0.414629
vn 0.370373 0.085383 -0.924951
vn 0.370373 -0.085383 -0.924951
vn 0.120465 -0.113478 -0.986210
vn 0.924951 0.085383 -0.370373
vn 0.924951 -0.085383 -0.370373
vn -0.102256 -0.904227 -0.414629
vn 0.102256 -0.904227 -0.414629
vn -0.089814 -0.330310 -0.939590
vn 0.089814 -0.330310 -0.939590
vn -0.899127 -0.288239 0.329375
vn -0.360219 -0.860514 0.360219
vn -0.329376 -0.288239 0.899127
vn 0.360219 -0.860514 0.360219
vn 0.899127 -0.288239 0.329376
vn 0.329376 -0.288239 0.899127
vn -0.360219 0.860514 0.360219
vn -0.899127 0.288239 0.329375
vn -0.329376 0.288239 0.899127
vn 0.899127 0.288239 0.329376
vn 0.360219 0.860514 0.360219
vn 0.329376 0.288239 0.899127
vn -0.329376 0.288239 -0.899127
vn -0.899127 0.288239 -0.329375
vn -0.360219 0.860514 -0.360219
vn 0.899127 0.288239 -0.329376
vn 0.329375 0.288239 -0.899127
vn 0.360219 0.860514 -0.360219
vn -0.360219 -0.860514 -0.360219
vn -0.899127 -0.288239 -0.329375
vn -0.329376 -0.288239 -0.899127
vn 0.899127 -0.288239 -0.329375
vn 0.360219 -0.860514 -0.360219
vn 0.329376 -0.288239 -0.899127
vn -0.949052 -0.282886 0.138834
vn -0.949053 -0.282886 0.138834
vn -0.994948 0.047779 0.088290
vn -0.995095 0.042979 0.089103
vn 0.547038 -0.171815 0.819286
vn 0.547038 -0.171815 0.819286
vn 0.567054 0.091537 0.818579
vn 0.566749 0.125704 0.814245
vn 0.392718 0.430617 -0.812614
vn 0.392718 0.430617 -0.812614
vn 0.414712 -0.170670 -0.893804
vn 0.418088 -0.131855 -0.898786
vn 0.125517 0.991888 0.020102
vn 0.125517 0.991888 0.020102
vn 0.125517 0.991888 0.020102
vn 0.515974 0.251380 0.818889
vn 0.487316 0.130788 0.863376
vn 0.370669 -0.197717 0.907476
vn 0.370669 -0.197717 0.907476
vn -0.915927 0.398210 -0.050056
vn -0.909936 0.414271 -0.019921
vn -0.925162 0.361588 -0.115457
vn -0.925162 0.361588 -0.115457
vn 0.398274 -0.554722 -0.730521
vn 0.393017 -0.562337 -0.727540
vn 0.586715 -0.176318 -0.790365
vn 0.586715 -0.176318 -0.790365
vn 0.000000 0.000000 1.000000
vn 0.000000 0.000000 1.000000
vn 0.000000 0.000000 1.000000
vn 0.000000 0.000000 1.000000
vn 0.000000 0.000000 -1.000000
vn 0.000000 0.000000 -1.000000
vn 0.000000 0.000000 -1.000000
vn 0.000000 0.000000 -1.000000
s 1
g Fruta_Manzana
f 2/3/1 1/1/2 37/48/3 42/54/4
s 2
f 1/2/5 6/8/6 38/49/7 37/47/8
s 3
f 4/6/9 3/4/10 11/15/11 10/13/12
s 1
f 3/5/13 2/3/1 12/16/14 11/14/15
s 2
f 6/8/6 5/7/16 15/20/17 14/19/18
s 3
f 5/7/19 4/6/9 16/21/20 15/20/21
s 4
f 8/11/22 7/9/23 43/56/24 48/62/25
s 1
f 7/10/26 12/16/14 44/57/27 43/55/28
s 3
f 10/13/12 9/12/29 23/29/30 22/28/31
s 4
f 9/12/32 8/11/22 24/30/33 23/29/34
s 2
f 14/19/18 13/17/35 27/35/36 26/33/37
s 5
f 13/18/38 18/23/39 28/36/40 27/34/41
f 18/23/39 17/22/42 21/27/43 20/26/44
s 3
f 17/22/45 16/21/20 22/28/31 21/27/46
s 5
f 20/26/44 19/24/47 35/45/48 34/43/49
s 4
f 19/25/50 24/30/33 36/46/51 35/44/52
s 2
f 26/33/37 25/31/53 39/51/54 38/49/7
s 6
f 25/32/55 30/38/56 40/52/57 39/50/58
f 30/38/56 29/37/59 33/42/60 32/41/61
s 5
f 29/37/62 28/36/40 34/43/49 33/42/63
s 6
f 32/41/61 31/39/64 47/61/65 46/59/66
s 4
f 31/40/67 36/46/51 48/62/25 47/60/68
s 1
f 42/54/4 41/53/69 45/58/70 44/57/27
s 6
f 41/53/71 40/52/57 46/59/66 45/58/72
s 3
f 4/6/9 10/13/12 22/28/31 16/21/20
s 5
f 18/23/39 20/26/44 34/43/49 28/36/40
s 6
f 30/38/56 32/41/61 46/59/66 40/52/57
s 1
f 42/54/4 44/57/27 12/16/14 2/3/1
s 4
f 8/11/22 48/62/25 36/46/51 24/30/33
s 2
f 38/49/7 6/8/6 14/19/18 26/33/37
f 5/7/16 6/8/6 1/2/5 49/64/73
s 1
f 1/1/2 2/3/1 3/5/13 49/63/74
s 3
f 3/4/10 4/6/9 5/7/19 49/64/75
s 1
f 11/14/15 12/16/14 7/10/26 50/66/76
s 4
f 7/9/23 8/11/22 9/12/32 50/65/77
s 3
f 9/12/29 10/13/12 11/15/11 50/65/78
s 5
f 17/22/42 18/23/39 13/18/38 51/67/79
s 2
f 13/17/35 14/19/18 15/20/17 51/67/80
s 3
f 15/20/21 16/21/20 17/22/45 51/67/81
s 4
f 23/29/34 24/30/33 19/25/50 52/68/82
s 5
f 19/24/47 20/26/44 21/27/43 52/68/83
s 3
f 21/27/46 22/28/31 23/29/30 52/68/84
s 6
f 29/37/59 30/38/56 25/32/55 53/70/85
s 2
f 25/31/53 26/33/37 27/35/36 53/69/86
s 5
f 27/34/41 28/36/40 29/37/62 53/70/87
s 4
f 35/44/52 36/46/51 31/40/67 54/72/88
s 6
f 31/39/64 32/41/61 33/42/60 54/71/89
s 5
f 33/42/63 34/43/49 35/45/48 54/71/90
s 1
f 41/53/69 42/54/4 37/48/3 55/74/91
s 2
f 37/47/8 38/49/7 39/51/54 55/73/92
s 6
f 39/50/58 40/52/57 41/53/71 55/74/93
s 4
f 47/60/68 48/62/25 43/56/24 56/76/94
s 1
f 43/55/28 44/57/27 45/58/70 56/75/95
s 6
f 45/58/72 46/59/66 47/61/65 56/75/96
s 7
f 57/77/97 58/78/98 67/79/99 68/80/100
s 8
f 58/78/101 59/81/102 66/82/103 67/79/104
s 9
f 59/81/105 57/83/106 68/84/107 66/82/108
s off
f 60/85/109 61/86/110 62/87/111
s 8
f 64/88/112 63/89/113 62/90/114 61/91/115
s 7
f 65/92/116 64/88/117 61/91/118 60/93/119
s 9
f 63/89/120 65/94/121 60/95/122 62/90/123
s 8
f 67/79/104 66/82/103 63/89/113 64/88/112
s 7
f 68/80/100 67/79/99 64/88/117 65/92/116
s 9
f 66/82/108 68/84/107 65/94/121 63/89/120
s off
f 69/96/124 70/97/125 72/98/126 71/99/127
f 73/100/128 75/101/129 76/102/130 74/103/131
