# This file uses centimeters as units for non-parametric coordinates.

g default
v 0.028868 -0.074988 0.000000
v 0.026670 -0.074988 -0.011047
v 0.020413 -0.074988 -0.020413
v 0.011047 -0.074988 -0.026670
v -0.000000 -0.074988 -0.028868
v -0.011047 -0.074988 -0.026670
v -0.020413 -0.074988 -0.020413
v -0.026670 -0.074988 -0.011047
v -0.028868 -0.074988 0.000000
v -0.026670 -0.074988 0.011047
v -0.020413 -0.074988 0.020413
v -0.011047 -0.074988 0.026670
v 0.000000 -0.074988 0.028868
v 0.011047 -0.074988 0.026670
v 0.020413 -0.074988 0.020413
v 0.026670 -0.074988 0.011047
v 0.028868 0.074988 0.000000
v 0.026670 0.074988 -0.011047
v 0.020413 0.074988 -0.020413
v 0.011047 0.074988 -0.026670
v -0.000000 0.074988 -0.028868
v -0.011047 0.074988 -0.026670
v -0.020413 0.074988 -0.020413
v -0.026670 0.074988 -0.011047
v -0.028868 0.074988 0.000000
v -0.026670 0.074988 0.011047
v -0.020413 0.074988 0.020413
v -0.011047 0.074988 0.026670
v 0.000000 0.074988 0.028868
v 0.011047 0.074988 0.026670
v 0.020413 0.074988 0.020413
v 0.026670 0.074988 0.011047
v 0.084335 0.074988 0.000000
v 0.077915 0.074988 -0.032273
v 0.059634 0.074988 -0.059634
v 0.032273 0.074988 -0.077915
v -0.000000 0.074988 -0.084335
v -0.032273 0.074988 -0.077915
v -0.059634 0.074988 -0.059634
v -0.077915 0.074988 -0.032273
v -0.084335 0.074988 0.000000
v -0.077915 0.074988 0.032273
v -0.059634 0.074988 0.059634
v -0.032273 0.074988 0.077915
v 0.000000 0.074988 0.084335
v 0.032273 0.074988 0.077915
v 0.059634 0.074988 0.059633
v 0.077915 0.074988 0.032273
v 0.084335 -0.074988 0.000000
v 0.077915 -0.074988 -0.032273
v 0.059634 -0.074988 -0.059634
v 0.032273 -0.074988 -0.077915
v -0.000000 -0.074988 -0.084335
v -0.032273 -0.074988 -0.077915
v -0.059634 -0.074988 -0.059634
v -0.077915 -0.074988 -0.032273
v -0.084335 -0.074988 0.000000
v -0.077915 -0.074988 0.032273
v -0.059634 -0.074988 0.059634
v -0.032273 -0.074988 0.077915
v 0.000000 -0.074988 0.084335
v 0.032273 -0.074988 0.077915
v 0.059634 -0.074988 0.059633
v 0.077915 -0.074988 0.032273
vt 0.000000 1.000000
vt 0.062500 1.000000
vt 0.125000 1.000000
vt 0.187500 1.000000
vt 0.250000 1.000000
vt 0.312500 1.000000
vt 0.375000 1.000000
vt 0.437500 1.000000
vt 0.500000 1.000000
vt 0.562500 1.000000
vt 0.625000 1.000000
vt 0.687500 1.000000
vt 0.750000 1.000000
vt 0.812500 1.000000
vt 0.875000 1.000000
vt 0.937500 1.000000
vt 1.000000 1.000000
vt 0.000000 0.750000
vt 0.062500 0.750000
vt 0.125000 0.750000
vt 0.187500 0.750000
vt 0.250000 0.750000
vt 0.312500 0.750000
vt 0.375000 0.750000
vt 0.437500 0.750000
vt 0.500000 0.750000
vt 0.562500 0.750000
vt 0.625000 0.750000
vt 0.687500 0.750000
vt 0.750000 0.750000
vt 0.812500 0.750000
vt 0.875000 0.750000
vt 0.937500 0.750000
vt 1.000000 0.750000
vt 0.000000 0.500000
vt 0.062500 0.500000
vt 0.125000 0.500000
vt 0.187500 0.500000
vt 0.250000 0.500000
vt 0.312500 0.500000
vt 0.375000 0.500000
vt 0.437500 0.500000
vt 0.500000 0.500000
vt 0.562500 0.500000
vt 0.625000 0.500000
vt 0.687500 0.500000
vt 0.750000 0.500000
vt 0.812500 0.500000
vt 0.875000 0.500000
vt 0.937500 0.500000
vt 1.000000 0.500000
vt 0.000000 0.250000
vt 0.062500 0.250000
vt 0.125000 0.250000
vt 0.187500 0.250000
vt 0.250000 0.250000
vt 0.312500 0.250000
vt 0.375000 0.250000
vt 0.437500 0.250000
vt 0.500000 0.250000
vt 0.562500 0.250000
vt 0.625000 0.250000
vt 0.687500 0.250000
vt 0.750000 0.250000
vt 0.812500 0.250000
vt 0.875000 0.250000
vt 0.937500 0.250000
vt 1.000000 0.250000
vt 0.000000 0.000000
vt 0.062500 0.000000
vt 0.125000 0.000000
vt 0.187500 0.000000
vt 0.250000 0.000000
vt 0.312500 0.000000
vt 0.375000 0.000000
vt 0.437500 0.000000
vt 0.500000 0.000000
vt 0.562500 0.000000
vt 0.625000 0.000000
vt 0.687500 0.000000
vt 0.750000 0.000000
vt 0.812500 0.000000
vt 0.875000 0.000000
vt 0.937500 0.000000
vt 1.000000 0.000000
vn -0.923880 0.000000 0.382683
vn -1.000000 0.000000 0.000000
vn -1.000000 0.000000 0.000000
vn -0.923880 0.000000 0.382683
vn -0.707107 0.000000 0.707107
vn -0.707107 0.000000 0.707107
vn -0.382683 0.000000 0.923880
vn -0.382683 0.000000 0.923880
vn 0.000000 0.000000 1.000000
vn 0.000000 0.000000 1.000000
vn 0.382684 0.000000 0.923880
vn 0.382684 0.000000 0.923880
vn 0.707107 0.000000 0.707107
vn 0.707107 0.000000 0.707107
vn 0.923880 0.000000 0.382683
vn 0.923880 0.000000 0.382683
vn 1.000000 0.000000 -0.000000
vn 1.000000 0.000000 -0.000000
vn 0.923879 0.000000 -0.382684
vn 0.923879 0.000000 -0.382684
vn 0.707106 0.000000 -0.707107
vn 0.707106 0.000000 -0.707107
vn 0.382683 0.000000 -0.923880
vn 0.382683 0.000000 -0.923880
vn -0.000000 0.000000 -1.000000
vn -0.000000 0.000000 -1.000000
vn -0.382684 0.000000 -0.923879
vn -0.382684 0.000000 -0.923879
vn -0.707107 0.000000 -0.707106
vn -0.707107 0.000000 -0.707106
vn -0.923880 0.000000 -0.382683
vn -0.923880 0.000000 -0.382683
vn 0.000000 1.000000 0.000000
vn 0.000000 1.000000 -0.000000
vn 0.000000 1.000000 -0.000000
vn 0.000000 1.000000 0.000000
vn 0.000000 1.000000 0.000000
vn 0.000000 1.000000 0.000000
vn 0.000000 1.000000 0.000000
vn 0.000000 1.000000 0.000000
vn 0.000000 1.000000 0.000000
vn 0.000000 1.000000 0.000000
vn 0.000000 1.000000 -0.000000
vn 0.000000 1.000000 -0.000000
vn 0.000000 1.000000 0.000000
vn 0.000000 1.000000 0.000000
vn 0.000000 1.000000 0.000000
vn 0.000000 1.000000 0.000000
vn 0.000000 1.000000 0.000000
vn 0.000000 1.000000 0.000000
vn 0.000000 1.000000 0.000000
vn 0.000000 1.000000 0.000000
vn 0.000000 1.000000 0.000000
vn 0.000000 1.000000 0.000000
vn 0.000000 1.000000 0.000000
vn 0.000000 1.000000 0.000000
vn 0.000000 1.000000 -0.000000
vn 0.000000 1.000000 -0.000000
vn 0.000000 1.000000 -0.000000
vn 0.000000 1.000000 -0.000000
vn 0.000000 1.000000 0.000000
vn 0.000000 1.000000 0.000000
vn 0.000000 1.000000 -0.000000
vn 0.000000 1.000000 -0.000000
vn 0.923880 0.000000 -0.382683
vn 1.000000 0.000000 0.000000
vn 1.000000 0.000000 0.000000
vn 0.923880 0.000000 -0.382683
vn 0.707107 0.000000 -0.707107
vn 0.707107 0.000000 -0.707107
vn 0.382683 0.000000 -0.923880
vn 0.382683 0.000000 -0.923880
vn -0.000000 0.000000 -1.000000
vn -0.000000 0.000000 -1.000000
vn -0.382684 0.000000 -0.923880
vn -0.382684 0.000000 -0.923880
vn -0.707107 0.000000 -0.707107
vn -0.707107 0.000000 -0.707107
vn -0.923880 0.000000 -0.382683
vn -0.923880 0.000000 -0.382683
vn -1.000000 0.000000 0.000000
vn -1.000000 0.000000 0.000000
vn -0.923879 0.000000 0.382684
vn -0.923879 0.000000 0.382684
vn -0.707107 0.000000 0.707107
vn -0.707107 0.000000 0.707107
vn -0.382683 0.000000 0.923880
vn -0.382683 0.000000 0.923880
vn 0.000000 0.000000 1.000000
vn 0.000000 0.000000 1.000000
vn 0.382684 0.000000 0.923879
vn 0.382684 0.000000 0.923879
vn 0.707107 0.000000 0.707106
vn 0.707107 0.000000 0.707106
vn 0.923880 0.000000 0.382684
vn 0.923880 0.000000 0.382684
vn 0.000000 -1.000000 0.000000
vn 0.000000 -1.000000 0.000000
vn 0.000000 -1.000000 0.000000
vn 0.000000 -1.000000 0.000000
vn 0.000000 -1.000000 0.000000
vn 0.000000 -1.000000 0.000000
vn 0.000000 -1.000000 0.000000
vn 0.000000 -1.000000 0.000000
vn 0.000000 -1.000000 -0.000000
vn 0.000000 -1.000000 -0.000000
vn 0.000000 -1.000000 -0.000000
vn 0.000000 -1.000000 -0.000000
vn 0.000000 -1.000000 0.000000
vn 0.000000 -1.000000 0.000000
vn 0.000000 -1.000000 0.000000
vn 0.000000 -1.000000 0.000000
vn 0.000000 -1.000000 0.000000
vn 0.000000 -1.000000 0.000000
vn 0.000000 -1.000000 0.000000
vn 0.000000 -1.000000 0.000000
vn 0.000000 -1.000000 0.000000
vn 0.000000 -1.000000 0.000000
vn 0.000000 -1.000000 0.000000
vn 0.000000 -1.000000 0.000000
vn 0.000000 -1.000000 0.000000
vn 0.000000 -1.000000 0.000000
vn 0.000000 -1.000000 -0.000000
vn 0.000000 -1.000000 -0.000000
vn 0.000000 -1.000000 0.000000
vn 0.000000 -1.000000 0.000000
vn 0.000000 -1.000000 0.000000
vn 0.000000 -1.000000 0.000000
s 1
g Lata_3
f 2/2/1 1/1/2 17/18/3 18/19/4
f 3/3/5 2/2/1 18/19/4 19/20/6
f 4/4/7 3/3/5 19/20/6 20/21/8
f 5/5/9 4/4/7 20/21/8 21/22/10
f 6/6/11 5/5/9 21/22/10 22/23/12
f 7/7/13 6/6/11 22/23/12 23/24/14
f 8/8/15 7/7/13 23/24/14 24/25/16
f 9/9/17 8/8/15 24/25/16 25/26/18
f 10/10/19 9/9/17 25/26/18 26/27/20
f 11/11/21 10/10/19 26/27/20 27/28/22
f 12/12/23 11/11/21 27/28/22 28/29/24
f 13/13/25 12/12/23 28/29/24 29/30/26
f 14/14/27 13/13/25 29/30/26 30/31/28
f 15/15/29 14/14/27 30/31/28 31/32/30
f 16/16/31 15/15/29 31/32/30 32/33/32
f 1/17/2 16/16/31 32/33/32 17/34/3
s 2
f 18/19/33 17/18/34 33/35/35 34/36/36
f 19/20/37 18/19/33 34/36/36 35/37/38
f 20/21/39 19/20/37 35/37/38 36/38/40
f 21/22/41 20/21/39 36/38/40 37/39/42
f 22/23/43 21/22/41 37/39/42 38/40/44
f 23/24/45 22/23/43 38/40/44 39/41/46
f 24/25/47 23/24/45 39/41/46 40/42/48
f 25/26/49 24/25/47 40/42/48 41/43/50
f 26/27/51 25/26/49 41/43/50 42/44/52
f 27/28/53 26/27/51 42/44/52 43/45/54
f 28/29/55 27/28/53 43/45/54 44/46/56
f 29/30/57 28/29/55 44/46/56 45/47/58
f 30/31/59 29/30/57 45/47/58 46/48/60
f 31/32/61 30/31/59 46/48/60 47/49/62
f 32/33/63 31/32/61 47/49/62 48/50/64
f 17/34/34 32/33/63 48/50/64 33/51/35
s 3
f 34/36/65 33/35/66 49/52/67 50/53/68
f 35/37/69 34/36/65 50/53/68 51/54/70
f 36/38/71 35/37/69 51/54/70 52/55/72
f 37/39/73 36/38/71 52/55/72 53/56/74
f 38/40/75 37/39/73 53/56/74 54/57/76
f 39/41/77 38/40/75 54/57/76 55/58/78
f 40/42/79 39/41/77 55/58/78 56/59/80
f 41/43/81 40/42/79 56/59/80 57/60/82
f 42/44/83 41/43/81 57/60/82 58/61/84
f 43/45/85 42/44/83 58/61/84 59/62/86
f 44/46/87 43/45/85 59/62/86 60/63/88
f 45/47/89 44/46/87 60/63/88 61/64/90
f 46/48/91 45/47/89 61/64/90 62/65/92
f 47/49/93 46/48/91 62/65/92 63/66/94
f 48/50/95 47/49/93 63/66/94 64/67/96
f 33/51/66 48/50/95 64/67/96 49/68/67
s 4
f 50/53/97 49/52/98 1/69/99 2/70/100
f 51/54/101 50/53/97 2/70/100 3/71/102
f 52/55/103 51/54/101 3/71/102 4/72/104
f 53/56/105 52/55/103 4/72/104 5/73/106
f 54/57/107 53/56/105 5/73/106 6/74/108
f 55/58/109 54/57/107 6/74/108 7/75/110
f 56/59/111 55/58/109 7/75/110 8/76/112
f 57/60/113 56/59/111 8/76/112 9/77/114
f 58/61/115 57/60/113 9/77/114 10/78/116
f 59/62/117 58/61/115 10/78/116 11/79/118
f 60/63/119 59/62/117 11/79/118 12/80/120
f 61/64/121 60/63/119 12/80/120 13/81/122
f 62/65/123 61/64/121 13/81/122 14/82/124
f 63/66/125 62/65/123 14/82/124 15/83/126
f 64/67/127 63/66/125 15/83/126 16/84/128
f 49/68/98 64/67/127 16/84/128 1/85/99
